<svg width="200" height="200" viewBox="0 0 200 200" fill="none" xmlns="http://www.w3.org/2000/svg">
<rect width="200" height="200" fill="#1C80C6"/>
<path d="M49 145.952L65.7682 125.877C77.3691 135.454 89.5128 141.537 104.251 141.537C115.858 141.537 122.84 136.929 122.84 129.382V129.009C122.84 121.834 118.425 118.148 96.8849 112.625C70.9242 105.993 54.1616 98.8191 54.1616 73.2201V72.847C54.1616 49.4699 72.9538 34.002 99.2707 34.002C118.063 34.002 134.085 39.8929 147.15 50.3971L132.417 71.7446C120.991 63.8354 109.769 59.0469 98.9089 59.0469C88.0486 59.0469 82.3272 64.0163 82.3272 70.2803V70.6421C82.3272 79.111 87.845 81.8756 110.131 87.5856C136.29 94.398 151 103.788 151 126.25V126.623C151 152.216 131.49 166.57 103.686 166.57C84.1703 166.57 64.4792 159.764 49 145.952Z" fill="white"/>
</svg>
