<svg width="72" height="69" viewBox="0 0 72 69" fill="none" xmlns="http://www.w3.org/2000/svg">
<path d="M66.031 29.9986C63.609 29.3046 61.23 28.9736 61.13 28.9596L61.055 28.9496H53.475L50.884 24.8376H55.089V19.0336H50.182L49.987 19.1106C49.3 19.3796 48.545 19.7446 47.964 20.2066L43.938 13.8206H47.888V8.16555H43.132L42.937 8.24255C42.302 8.49255 41.607 8.82655 41.055 9.24655L37.508 3.62055L28.483 -0.000442505L37.034 28.9496H14.958L14.849 28.9716C14.776 28.9866 13.415 29.2646 11.74 29.7506L6.646 19.8166H0L3.207 33.1026H1.504V35.3196H3.177L0 48.4806H6.646L11.656 38.7096C13.395 39.1306 14.828 39.3506 14.903 39.3616L14.986 39.3746H37.018L28.483 68.2686L37.508 64.6476L41.055 59.0216C41.607 59.4416 42.302 59.7766 42.937 60.0256L43.132 60.1026H47.888V54.4486H43.938L47.964 48.0626C48.545 48.5236 49.3 48.8886 49.987 49.1586L50.182 49.2346H55.089V43.4306H50.884L53.441 39.3746H61.062L61.145 39.3626C61.245 39.3466 63.618 38.9846 66.034 38.2856C69.818 37.1886 71.58 35.8916 71.58 34.1996C71.58 32.4436 69.765 31.0696 66.031 29.9986ZM10.501 36.1016L9.988 37.1036L9.474 38.1046L5.291 46.2626H2.817L5.348 35.7756L5.458 35.3196H6.411H8.4H10.902L10.501 36.1016ZM8.957 33.1026H6.794H5.489L5.439 32.8986L2.817 22.0346H5.291L9.604 30.4446L10.113 31.4386L10.624 32.4346L10.967 33.1026H8.957ZM50.611 21.2506H52.871V22.6206H50.638C50.182 22.3976 49.715 22.1146 49.423 21.8886C49.716 21.6866 50.171 21.4406 50.611 21.2506ZM43.561 10.3836H45.671V11.6026H43.589C43.184 11.4036 42.77 11.1546 42.493 10.9496C42.769 10.7666 43.172 10.5516 43.561 10.3836ZM36.015 5.41155L50.854 28.9496H49.482L35.715 5.29055L36.015 5.41155ZM31.907 3.76256L33.324 4.33155L47.649 28.9496H39.347L31.907 3.76256ZM31.907 64.5056L39.331 39.3746H47.687L33.416 63.8996L31.907 64.5056ZM45.671 56.6656V57.8846H43.561C43.172 57.7166 42.769 57.5006 42.493 57.3186C42.77 57.1136 43.184 56.8646 43.589 56.6656H45.671ZM36.015 62.8576L35.807 62.9406L49.52 39.3746H50.819L36.015 62.8576ZM52.871 45.6476V47.0176H50.61C50.171 46.8296 49.716 46.5826 49.423 46.3806C49.715 46.1556 50.182 45.8716 50.639 45.6476H52.871ZM65.31 36.1856C63.312 36.7556 61.311 37.0896 60.893 37.1566H52.76H50.901H49.043H42.264H40.049H37.834H15.157C14.878 37.1126 13.9 36.9486 12.699 36.6766L13.395 35.3196H14.842V33.1026H13.459L12.772 31.7636C13.929 31.4426 14.877 31.2326 15.185 31.1666H37.93H40.145H42.36H48.968H50.827H52.686H60.9C61.307 31.2266 63.375 31.5436 65.419 32.1306C68.654 33.0586 69.362 33.9386 69.362 34.1986C69.361 34.2066 69.08 35.1096 65.31 36.1856Z" fill="#057AC2"/>
<path d="M52.6025 36.6045H53.8285V35.7788H52.6025V36.6045Z" fill="#FFBF0F"/>
<path d="M50.9073 35.7785H50.2383V36.6045H51.4623V36.1925V35.7785H50.9073Z" fill="#FFBF0F"/>
<path d="M49.0491 35.7785H47.8721V36.2855V36.6045H48.3011H49.0971V35.8145V35.7785H49.0491Z" fill="#FFBF0F"/>
<path d="M46.4798 35.7785H45.9078H45.5068V36.6045H46.7318V35.7785H46.4798Z" fill="#FFBF0F"/>
<path d="M43.1406 35.7785V36.6045H43.2166H44.3666V35.9415V35.7785H43.1406Z" fill="#FFBF0F"/>
<path d="M40.7754 35.7785V36.6045H41.0004H42.0004V36.0275V35.7785H40.7754Z" fill="#FFBF0F"/>
<path d="M38.4102 35.7785V36.6045H38.7872H39.6362V36.1135V35.7785H38.4102Z" fill="#FFBF0F"/>
<path d="M36.0444 36.6045H37.2694V35.7788H36.0444V36.6045Z" fill="#FFBF0F"/>
<path d="M33.6792 36.6045H34.9052V35.7788H33.6792V36.6045Z" fill="#FFBF0F"/>
<path d="M31.3132 36.6045H32.5383V35.7788H31.3132V36.6045Z" fill="#FFBF0F"/>
<path d="M28.9482 36.6045H30.1743V35.7788H28.9482V36.6045Z" fill="#FFBF0F"/>
<path d="M26.5833 36.6045H27.8093V35.7788H26.5833V36.6045Z" fill="#FFBF0F"/>
<path d="M24.2183 36.6045H25.4443V35.7788H24.2183V36.6045Z" fill="#FFBF0F"/>
<path d="M21.8523 36.6045H23.0782V35.7788H21.8523V36.6045Z" fill="#FFBF0F"/>
<path d="M19.4873 36.6045H20.7133V35.7788H19.4873V36.6045Z" fill="#FFBF0F"/>
<path d="M52.6023 32.6582H53.8282V31.832H52.6023V32.6582Z" fill="#FFBF0F"/>
<path d="M50.2383 31.8293V32.6553H50.6803H51.4623V32.0753V31.8293H50.2383Z" fill="#FFBF0F"/>
<path d="M48.0731 31.8293H47.8721V31.9793V32.6553H48.8211H49.0971V32.4503V31.8293H48.0731Z" fill="#FFBF0F"/>
<path d="M45.5068 31.8293V32.6553H45.6138H46.7078H46.7318V31.8293H45.5068Z" fill="#FFBF0F"/>
<path d="M43.5106 31.8293H43.1406V32.6553H44.3666V32.3243V31.8293H43.5106Z" fill="#FFBF0F"/>
<path d="M41.2944 31.8293H40.7754V32.6553H42.0004V32.2393V31.8293H41.2944Z" fill="#FFBF0F"/>
<path d="M39.0792 31.8293H38.4102V32.6553H39.6352V32.1523V31.8293H39.0792Z" fill="#FFBF0F"/>
<path d="M36.0439 32.6592H37.2689V31.833H36.0439V32.6592Z" fill="#FFBF0F"/>
<path d="M33.6787 32.6592H34.9047V31.833H33.6787V32.6592Z" fill="#FFBF0F"/>
<path d="M31.3125 32.6592H32.5376V31.833H31.3125V32.6592Z" fill="#FFBF0F"/>
<path d="M28.9482 32.6592H30.1743V31.833H28.9482V32.6592Z" fill="#FFBF0F"/>
<path d="M26.583 32.6592H27.8091V31.833H26.583V32.6592Z" fill="#FFBF0F"/>
<path d="M24.2178 32.6592H25.4438V31.833H24.2178V32.6592Z" fill="#FFBF0F"/>
<path d="M21.8516 32.6592H23.0775V31.833H21.8516V32.6592Z" fill="#FFBF0F"/>
<path d="M19.4873 32.6592H20.7133V31.833H19.4873V32.6592Z" fill="#FFBF0F"/>
</svg>
