<svg width="64" height="37" viewBox="0 0 64 37" fill="none" xmlns="http://www.w3.org/2000/svg">
<path d="M10.1484 36.3213C15.3404 36.3213 19.5644 32.0973 19.5644 26.9043C19.5644 21.7133 15.3404 17.4883 10.1484 17.4883C4.95642 17.4883 0.732422 21.7133 0.732422 26.9043C0.732422 32.0973 4.95642 36.3213 10.1484 36.3213ZM10.1484 19.4383C14.2654 19.4383 17.6154 22.7883 17.6154 26.9043C17.6154 31.0223 14.2654 34.3713 10.1484 34.3713C6.03142 34.3713 2.68242 31.0223 2.68242 26.9043C2.68242 22.7883 6.03142 19.4383 10.1484 19.4383Z" fill="#1C80C6"/>
<path d="M10.1487 29.375C11.5127 29.375 12.6187 28.27 12.6187 26.905C12.6187 25.542 11.5127 24.436 10.1487 24.436C8.78471 24.436 7.67871 25.542 7.67871 26.905C7.67871 28.27 8.78471 29.375 10.1487 29.375Z" fill="#1C80C6"/>
<path d="M44.82 27.0479C44.82 32.2399 49.044 36.4639 54.236 36.4639C59.428 36.4639 63.652 32.2399 63.652 27.0479C63.652 21.8559 59.428 17.6319 54.236 17.6319C53.335 17.6319 52.465 17.7609 51.639 17.9989L48.744 10.0659C50.358 9.40787 51.461 7.84187 51.461 6.07687C51.461 3.69687 49.487 1.76086 47.061 1.76086C46.372 1.76086 45.701 1.91987 45.092 2.21987C43.8 1.19087 41.443 0.271866 37.277 1.09187L37.653 3.00487C43.359 1.88087 44.586 4.48187 44.684 4.71687L45.261 6.20687L46.186 8.74187C45.491 8.23087 43.335 7.41287 41.371 6.91487C36.129 5.58687 31.072 6.42887 26.707 9.34687C25.628 8.71487 23.303 7.47187 21.718 7.47187C20.344 7.47187 9.14002 6.58987 3.40802 6.12487L2.88002 6.08187C2.58702 6.05787 2.35202 6.48587 2.35402 7.03887L2.36902 11.3619L10.606 13.0609C15.282 16.1149 22.546 21.9879 22.592 25.0969L22.599 25.5769C22.603 25.8419 25.292 26.0569 28.606 26.0569H37.6L37.814 25.9439C38.065 25.8119 43.591 22.7999 47.802 13.1709L48.816 15.9499C49.376 17.4849 49.164 19.0839 48.341 19.5209C46.853 20.3129 44.82 23.4469 44.82 27.0479ZM37.091 24.1079H30.753C27.252 24.1079 24.335 23.7799 24.237 23.3759C24.06 22.6449 22.964 20.9639 21.104 19.0299L32.194 19.0929C37.683 19.1239 41.609 19.8479 40.963 20.7109C39.793 22.2739 37.714 23.7169 37.091 24.1079ZM43.469 17.2069L19.052 17.0689C18.814 16.8539 18.287 16.3989 17.875 16.0529C14.728 13.4139 11.643 11.4089 11.513 11.3249L11.436 11.2759C11.394 11.2479 10.483 11.0449 9.40102 10.8219L4.31302 9.77287L4.30802 8.15287C8.02702 8.45287 20.167 9.42187 21.718 9.42187C22.803 9.42187 25.055 10.5929 26.219 11.3309L26.775 11.6839L27.31 11.3009C29.847 8.68287 35.899 7.55887 40.827 8.78887C43.476 9.44987 45.539 10.5669 46.033 10.8669C46.306 11.0329 46.312 11.7039 46.047 12.3639C45.568 13.5599 44.515 15.5549 43.469 17.2069ZM50.507 20.5839L51.406 23.0479C51.902 24.4079 52.229 25.6059 52.137 25.7219C51.969 25.9329 51.767 26.4669 51.767 27.0479C51.767 28.4119 52.872 29.5179 54.236 29.5179C55.6 29.5179 56.706 28.4119 56.706 27.0479C56.706 25.6839 55.6 24.5779 54.236 24.5779C54.171 24.5779 54.107 24.5829 54.043 24.5879L53.176 22.2109C52.697 20.8989 52.447 19.7979 52.616 19.7529C52.924 19.6709 53.57 19.5809 54.236 19.5809C58.353 19.5809 61.703 22.9309 61.703 27.0479C61.703 31.1649 58.353 34.5139 54.236 34.5139C50.119 34.5139 46.77 31.1649 46.77 27.0479C46.77 24.2889 48.275 21.8759 50.507 20.5839Z" fill="#FFBC31"/>
</svg>
