<svg width="279" height="52" viewBox="0 0 279 52" fill="none" xmlns="http://www.w3.org/2000/svg">
<path d="M0 20.23L2.966 16.679C5.018 18.373 7.166 19.449 9.773 19.449C11.826 19.449 13.061 18.634 13.061 17.299V17.233C13.061 15.964 12.28 15.312 8.47 14.335C3.878 13.162 0.913 11.893 0.913 7.36495V7.29895C0.913 3.16395 4.237 0.427954 8.892 0.427954C12.216 0.427954 15.05 1.46995 17.361 3.32795L14.755 7.10395C12.734 5.70495 10.749 4.85795 8.828 4.85795C6.907 4.85795 5.895 5.73695 5.895 6.84495V6.90895C5.895 8.40695 6.871 8.89595 10.813 9.90595C15.44 11.111 18.042 12.772 18.042 16.745V16.811C18.042 21.338 14.591 23.877 9.673 23.877C6.221 23.877 2.738 22.673 0 20.23Z" fill="#1C80C6"/>
<path d="M21.748 17.396V6.09498H26.698V15.834C26.698 18.177 27.806 19.383 29.695 19.383C31.584 19.383 32.788 18.177 32.788 15.834V6.09498H37.738V23.552H32.788V21.077C31.648 22.542 30.186 23.876 27.674 23.876C23.932 23.876 21.748 21.401 21.748 17.396Z" fill="#1C80C6"/>
<path d="M42.1611 6.09476H47.1111V8.56976C48.2511 7.10276 49.7181 5.76776 52.2241 5.76776C55.9711 5.76776 58.1511 8.24276 58.1511 12.2508V23.5518H53.2011V13.8128C53.2011 11.4668 52.0931 10.2638 50.2041 10.2638C48.3141 10.2638 47.1111 11.4668 47.1111 13.8128V23.5518H42.1611V6.09476Z" fill="#1C80C6"/>
<path d="M63.2554 18.6017V10.3277H61.1714V6.09573H63.2554V1.63373H68.2054V6.09573H72.3104V10.3277H68.2054V17.7867C68.2054 18.9267 68.6964 19.4807 69.8044 19.4807C70.7124 19.4807 71.5294 19.2537 72.2424 18.8607V22.8347C71.2024 23.4547 69.9994 23.8447 68.3374 23.8447C65.3084 23.8447 63.2554 22.6387 63.2554 18.6017Z" fill="#1C80C6"/>
<path d="M74.613 14.9204V14.8544C74.613 9.87341 78.164 5.76741 83.246 5.76741C89.077 5.76741 91.747 10.2954 91.747 15.2454C91.747 15.6354 91.711 16.0924 91.679 16.5484H79.531C80.022 18.7964 81.584 19.9684 83.8 19.9684C85.458 19.9684 86.665 19.4484 88.032 18.1764L90.866 20.6854C89.236 22.7044 86.892 23.9414 83.732 23.9414C78.491 23.9414 74.613 20.2614 74.613 14.9204ZM86.924 13.4534C86.634 11.2394 85.33 9.74141 83.246 9.74141C81.193 9.74141 79.858 11.2084 79.468 13.4534H86.924Z" fill="#1C80C6"/>
<path d="M94.5671 14.9204V14.8544C94.5671 9.87341 98.3771 5.76741 103.722 5.76741C107.01 5.76741 109.063 6.87541 110.689 8.69841L107.66 11.9574C106.551 10.7834 105.448 10.0344 103.686 10.0344C101.211 10.0344 99.4541 12.2164 99.4541 14.7914V14.8544C99.4541 17.5244 101.179 19.6754 103.881 19.6754C105.543 19.6754 106.683 18.9604 107.891 17.8204L110.788 20.7494C109.095 22.6064 107.142 23.9414 103.654 23.9414C98.4141 23.9414 94.5671 19.9044 94.5671 14.9204Z" fill="#1C80C6"/>
<path d="M124.343 0.751953H129.356V23.5508H124.343V0.751953Z" fill="#1C80C6"/>
<path d="M134.529 6.09476H139.479V8.56976C140.619 7.10276 142.086 5.76776 144.592 5.76776C148.339 5.76776 150.519 8.24276 150.519 12.2508V23.5518H145.569V13.8128C145.569 11.4668 144.461 10.2638 142.572 10.2638C140.682 10.2638 139.479 11.4668 139.479 13.8128V23.5518H134.529V6.09476Z" fill="#1C80C6"/>
<path d="M153.439 21.24L155.56 17.982C157.449 19.351 159.433 20.066 161.064 20.066C162.494 20.066 163.148 19.546 163.148 18.762V18.699C163.148 17.623 161.454 17.266 159.533 16.678C157.09 15.963 154.32 14.823 154.32 11.435V11.369C154.32 7.82098 157.186 5.83398 160.705 5.83398C162.917 5.83398 165.328 6.58298 167.217 7.85198L165.328 11.272C163.602 10.264 161.877 9.64398 160.605 9.64398C159.402 9.64398 158.784 10.166 158.784 10.849V10.915C158.784 11.892 160.442 12.348 162.331 13C164.774 13.813 167.608 14.987 167.608 18.177V18.242C167.608 22.118 164.71 23.876 160.932 23.876C158.489 23.876 155.755 23.063 153.439 21.24Z" fill="#1C80C6"/>
<path d="M171.018 17.396V6.09498H175.968V15.834C175.968 18.177 177.076 19.383 178.965 19.383C180.854 19.383 182.058 18.177 182.058 15.834V6.09498H187.008V23.552H182.058V21.077C180.918 22.542 179.456 23.876 176.944 23.876C173.202 23.876 171.018 21.401 171.018 17.396Z" fill="#1C80C6"/>
<path d="M191.431 6.09476H196.381V9.61176C197.389 7.19976 199.019 5.63776 201.949 5.76776V10.9468H201.69C198.397 10.9468 196.381 12.9338 196.381 17.1028V23.5518H191.431V6.09476Z" fill="#1C80C6"/>
<path d="M203.179 18.536V18.471C203.179 14.66 206.076 12.903 210.213 12.903C211.975 12.903 213.243 13.196 214.482 13.618V13.325C214.482 11.272 213.211 10.133 210.736 10.133C208.847 10.133 207.511 10.492 205.918 11.077L204.678 7.29895C206.599 6.45395 208.488 5.89995 211.453 5.89995C214.155 5.89995 216.108 6.61595 217.348 7.85295C218.651 9.15595 219.237 11.077 219.237 13.423V23.552H214.45V21.663C213.243 22.998 211.585 23.877 209.173 23.877C205.881 23.877 203.179 21.99 203.179 18.536ZM214.546 17.396V16.517C213.701 16.127 212.593 15.866 211.39 15.866C209.269 15.866 207.966 16.713 207.966 18.275V18.341C207.966 19.676 209.074 20.457 210.672 20.457C212.984 20.457 214.546 19.188 214.546 17.396Z" fill="#1C80C6"/>
<path d="M223.492 6.09476H228.442V8.56976C229.582 7.10276 231.049 5.76776 233.555 5.76776C237.302 5.76776 239.482 8.24276 239.482 12.2508V23.5518H234.532V13.8128C234.532 11.4668 233.424 10.2638 231.534 10.2638C229.645 10.2638 228.442 11.4668 228.442 13.8128V23.5518H223.492V6.09476Z" fill="#1C80C6"/>
<path d="M242.925 14.9204V14.8544C242.925 9.87341 246.735 5.76741 252.08 5.76741C255.368 5.76741 257.421 6.87541 259.046 8.69841L256.017 11.9574C254.909 10.7834 253.806 10.0344 252.044 10.0344C249.569 10.0344 247.811 12.2164 247.811 14.7914V14.8544C247.811 17.5244 249.537 19.6754 252.239 19.6754C253.901 19.6754 255.041 18.9604 256.249 17.8204L259.146 20.7494C257.452 22.6064 255.5 23.9414 252.012 23.9414C246.767 23.9414 242.925 19.9044 242.925 14.9204Z" fill="#1C80C6"/>
<path d="M261.026 14.9204V14.8544C261.026 9.87341 264.577 5.76741 269.659 5.76741C275.49 5.76741 278.16 10.2954 278.16 15.2454C278.16 15.6354 278.124 16.0924 278.092 16.5484H265.944C266.435 18.7964 267.997 19.9684 270.213 19.9684C271.871 19.9684 273.079 19.4484 274.445 18.1764L277.279 20.6854C275.649 22.7044 273.306 23.9414 270.145 23.9414C264.904 23.9414 261.026 20.2614 261.026 14.9204ZM273.337 13.4534C273.047 11.2394 271.743 9.74141 269.659 9.74141C267.606 9.74141 266.271 11.2084 265.881 13.4534H273.337Z" fill="#1C80C6"/>
<path d="M16.0601 34.1461H23.1701C24.9121 34.1461 26.1401 34.5941 26.9521 35.4301C27.5071 36.0011 27.8441 36.7541 27.8441 37.7331V37.7721C27.8441 39.4241 26.9321 40.4011 25.7051 40.9521C27.3881 41.5231 28.4571 42.5021 28.4571 44.4371V44.4781C28.4571 46.9221 26.5171 48.4111 23.2091 48.4111H16.0601V34.1461ZM22.2191 39.8321C23.3871 39.8321 24.0411 39.4241 24.0411 38.5891V38.5481C24.0411 37.7721 23.4481 37.3241 22.2991 37.3241H19.8031V39.8321H22.2191ZM22.7741 45.2311C23.9421 45.2311 24.6161 44.7621 24.6161 43.9271V43.8861C24.6161 43.1121 24.0221 42.6031 22.7341 42.6031H19.8031V45.2311H22.7741Z" fill="#FFBC31"/>
<path d="M30.3867 37.3861H34.1487V39.6081C34.7637 38.1001 35.7527 37.1221 37.5357 37.2041V41.2781H37.2187C35.2577 41.2781 34.1487 42.4411 34.1487 44.9891V48.4121H30.3867V37.3861Z" fill="#FFBC31"/>
<path d="M38.6086 42.9508V42.9098C38.6086 39.7708 41.1036 37.1418 44.5496 37.1418C47.9756 37.1418 50.4516 39.7298 50.4516 42.8688V42.9098C50.4516 46.0468 47.9556 48.6758 44.5096 48.6758C41.0836 48.6758 38.6086 46.0878 38.6086 42.9508ZM46.7876 42.9508V42.9098C46.7876 41.5648 45.8366 40.4228 44.5096 40.4228C43.1436 40.4228 42.2726 41.5448 42.2726 42.8688V42.9098C42.2726 44.2558 43.2226 45.3958 44.5496 45.3958C45.9166 45.3958 46.7876 44.2758 46.7876 42.9508Z" fill="#FFBC31"/>
<path d="M52.4194 33.5341H56.1814V41.0751L59.0924 37.3861H63.3504L59.6274 41.8081L63.4494 48.4111H59.3104L57.1524 44.6621L56.1814 45.8241V48.4111H52.4194V33.5341Z" fill="#FFBC31"/>
<path d="M64.7434 33.5342H68.6644V36.3882H64.7434V33.5342ZM64.8224 37.3857H68.5844V48.4121H64.8224V37.3857Z" fill="#FFBC31"/>
<path d="M71.0645 37.3861H74.8265V38.9361C75.5195 38.0191 76.5095 37.1421 78.0355 37.1421C80.3125 37.1421 81.6795 38.6901 81.6795 41.1991V48.4121H77.9155V42.4411C77.9155 41.2401 77.3025 40.5861 76.4105 40.5861C75.5005 40.5861 74.8265 41.2401 74.8265 42.4411V48.4121H71.0645V37.3861Z" fill="#FFBC31"/>
<path d="M83.9025 50.4489L85.1105 47.8809C86.2595 48.5339 87.4075 48.9209 88.8535 48.9209C90.7345 48.9209 91.6655 47.9629 91.6655 46.2099V45.7819C90.9135 46.6789 89.9225 47.4329 88.3575 47.4329C85.7235 47.4329 83.6055 45.4769 83.6055 42.3179V42.2769C83.6055 39.0969 85.7635 37.1419 88.2395 37.1419C89.8435 37.1419 90.7935 37.8129 91.6065 38.6899V37.3859H95.3685V45.7619C95.3685 47.7789 94.9325 49.1849 93.9825 50.1639C93.0115 51.1629 91.5075 51.7119 89.2695 51.7119C87.1895 51.7119 85.4475 51.2639 83.9025 50.4489ZM91.6655 42.3179V42.2769C91.6655 41.0539 90.7545 40.1579 89.4875 40.1579C88.1995 40.1579 87.2895 41.0749 87.2895 42.2979V42.3389C87.2895 43.5609 88.1995 44.4579 89.4875 44.4579C90.7545 44.4579 91.6655 43.5399 91.6655 42.3179Z" fill="#FFBC31"/>
<path d="M103.855 34.1461H109.796C113.301 34.1461 115.559 36.0011 115.559 39.1581V39.1991C115.559 42.5621 113.044 44.3341 109.598 44.3341H107.697V48.4111H103.855V34.1461ZM109.52 41.2391C110.885 41.2391 111.718 40.5031 111.718 39.3831V39.3431C111.718 38.1201 110.885 37.4671 109.499 37.4671H107.697V41.2391H109.52Z" fill="#FFBC31"/>
<path d="M117.348 37.3861H121.11V39.6081C121.725 38.1001 122.714 37.1221 124.497 37.2041V41.2781H124.18C122.219 41.2781 121.11 42.4411 121.11 44.9891V48.4121H117.348V37.3861Z" fill="#FFBC31"/>
<path d="M126.204 33.5342H130.125V36.3882H126.204V33.5342ZM126.283 37.3857H130.045V48.4121H126.283V37.3857Z" fill="#FFBC31"/>
<path d="M131.713 37.3861H135.674L137.734 43.8271L139.794 37.3861H143.694L139.417 48.4941H135.992L131.713 37.3861Z" fill="#FFBC31"/>
<path d="M144.156 45.2523V45.2113C144.156 42.9303 145.839 41.7473 148.354 41.7473C149.345 41.7473 150.315 41.9513 150.929 42.1743V41.9923C150.929 40.8503 150.236 40.1993 148.791 40.1993C147.661 40.1993 146.79 40.4223 145.839 40.8093L145.067 38.0793C146.275 37.5693 147.562 37.2233 149.404 37.2233C151.325 37.2233 152.632 37.6923 153.483 38.5683C154.295 39.3833 154.632 40.5243 154.632 42.0743V48.4113H150.909V47.2713C150.177 48.1063 149.166 48.6553 147.761 48.6553C145.72 48.6553 144.156 47.4533 144.156 45.2523ZM150.968 44.4173V43.9073C150.592 43.7453 150.058 43.6223 149.503 43.6223C148.414 43.6223 147.78 44.1733 147.78 44.9883V45.0293C147.78 45.7823 148.335 46.2313 149.107 46.2313C150.196 46.2313 150.968 45.5183 150.968 44.4173Z" fill="#FFBC31"/>
<path d="M157.489 44.9888V40.5048H156.222V37.3858H157.489V34.5948H161.251V37.3858H163.746V40.5048H161.251V44.2358C161.251 45.0098 161.588 45.3348 162.281 45.3348C162.777 45.3348 163.252 45.1918 163.707 44.9678V48.0048C163.034 48.3918 162.143 48.6348 161.093 48.6348C158.835 48.6348 157.489 47.6178 157.489 44.9888Z" fill="#FFBC31"/>
<path d="M165.019 42.9508V42.9098C165.019 39.6888 167.257 37.1418 170.426 37.1418C174.129 37.1418 175.832 39.9328 175.832 43.1738C175.832 43.4178 175.832 43.7048 175.812 43.9688H168.643C168.94 45.1708 169.792 45.7828 170.96 45.7828C171.852 45.7828 172.564 45.4368 173.336 44.6628L175.415 46.4358C174.387 47.7788 172.901 48.6758 170.762 48.6758C167.395 48.6758 165.019 46.3748 165.019 42.9508ZM172.306 41.9928C172.168 40.7708 171.475 39.9938 170.445 39.9938C169.455 39.9938 168.781 40.7908 168.584 41.9928H172.306Z" fill="#FFBC31"/>
<path d="M183.901 34.1461H187.743V44.9471H194.457V48.4111H183.901V34.1461Z" fill="#FFBC31"/>
<path d="M196.265 33.5342H200.186V36.3882H196.265V33.5342ZM196.344 37.3857H200.107V48.4121H196.344V37.3857Z" fill="#FFBC31"/>
<path d="M202.586 37.3861H206.348V38.8951C207.041 37.9781 208.031 37.1421 209.536 37.1421C210.962 37.1421 212.052 37.7931 212.626 38.9361C213.557 37.8341 214.646 37.1421 216.21 37.1421C218.488 37.1421 219.874 38.6111 219.874 41.1781V48.4121H216.111V42.4211C216.111 41.2191 215.537 40.5861 214.646 40.5861C213.754 40.5861 213.101 41.2191 213.101 42.4211V48.4121H209.339V42.4211C209.339 41.2191 208.764 40.5861 207.873 40.5861C206.982 40.5861 206.348 41.2191 206.348 42.4211V48.4121H202.586V37.3861Z" fill="#FFBC31"/>
<path d="M222.202 33.5342H226.123V36.3882H222.202V33.5342ZM222.28 37.3857H226.043V48.4121H222.28V37.3857Z" fill="#FFBC31"/>
<path d="M229.175 44.9888V40.5048H227.908V37.3858H229.175V34.5948H232.938V37.3858H235.433V40.5048H232.938V44.2358C232.938 45.0098 233.274 45.3348 233.967 45.3348C234.463 45.3348 234.938 45.1918 235.393 44.9678V48.0048C234.72 48.3918 233.829 48.6348 232.779 48.6348C230.521 48.6348 229.175 47.6178 229.175 44.9888Z" fill="#FFBC31"/>
<path d="M236.705 42.9508V42.9098C236.705 39.6888 238.943 37.1418 242.111 37.1418C245.815 37.1418 247.518 39.9328 247.518 43.1738C247.518 43.4178 247.518 43.7048 247.498 43.9688H240.329C240.626 45.1708 241.478 45.7828 242.646 45.7828C243.538 45.7828 244.25 45.4368 245.022 44.6628L247.101 46.4358C246.073 47.7788 244.587 48.6758 242.448 48.6758C239.081 48.6758 236.705 46.3748 236.705 42.9508ZM243.992 41.9928C243.854 40.7708 243.161 39.9938 242.131 39.9938C241.141 39.9938 240.467 40.7908 240.27 41.9928H243.992Z" fill="#FFBC31"/>
<path d="M249.109 42.9503V42.9093C249.109 39.3223 251.287 37.1413 253.822 37.1413C255.446 37.1413 256.396 37.8953 257.11 38.7303V33.5333H260.872V48.4113H257.11V46.9433C256.377 47.8603 255.446 48.6553 253.842 48.6553C251.307 48.6553 249.109 46.4743 249.109 42.9503ZM257.169 42.9093V42.8683C257.169 41.4213 256.199 40.3813 254.991 40.3813C253.783 40.3813 252.793 41.4003 252.793 42.8683V42.9093C252.793 44.3753 253.783 45.4153 254.991 45.4153C256.199 45.4153 257.169 44.3753 257.169 42.9093Z" fill="#FFBC31"/>
</svg>
