<svg width="44" height="47" viewBox="0 0 44 47" fill="none" xmlns="http://www.w3.org/2000/svg">
<path d="M42.2635 -0.0019989H9.11354C8.54854 -0.0019989 8.06554 0.481003 8.06554 1.046V38.31H6.04855C3.70955 38.31 1.93555 40.084 1.93555 42.343C1.93555 44.602 3.79055 46.375 6.12955 46.375H37.1015C40.5695 46.295 43.2315 43.714 43.2315 40.327V0.965C43.3115 0.401001 42.8285 -0.0019989 42.2635 -0.0019989ZM3.95155 42.262C3.95155 41.133 4.83855 40.246 6.04855 40.246H33.6335C32.8265 41.536 32.8265 43.069 33.6335 44.279H6.20955C5.00055 44.359 3.95155 43.392 3.95155 42.262ZM41.2955 40.246C41.2955 42.504 39.5215 44.198 37.1015 44.279C35.9725 44.198 35.0855 43.311 35.0855 42.262C35.0855 41.213 36.1335 40.327 37.2625 40.246C37.8275 40.246 38.2305 39.762 38.2305 39.197C38.2305 38.633 37.7475 38.229 37.2625 38.229H10.0815V1.934H41.2955V40.246Z" fill="#1C80C6"/>
<path d="M2.984 37.2617C3.387 37.2617 3.79 37.0197 3.952 36.6157L5.887 31.6157C5.968 31.5347 5.968 31.3737 5.968 31.2127V10.0797C5.968 8.38672 4.596 7.09572 2.984 7.09572C1.371 7.09572 0 8.46672 0 10.0797V31.2927C0 31.4537 -7.45058e-08 31.5347 0.0799999 31.6957L2.096 36.7777C2.177 37.0197 2.58 37.2617 2.984 37.2617ZM1.936 13.0647H3.952V14.1127H1.936V13.0647ZM2.984 9.03172C3.548 9.03172 4.032 9.51572 4.032 10.0797V11.1287H2.016V10.0797C1.936 9.51572 2.419 9.03172 2.984 9.03172ZM1.936 16.1297H3.952V31.0517L2.903 33.5517L1.854 31.0517V16.1297H1.936Z" fill="#FFBC31"/>
<path d="M24.0351 19.8384C24.4381 20.2414 25.0831 20.2414 25.4871 19.8384L30.8101 14.5154C31.7781 13.5474 31.7781 11.9344 30.8101 10.9654C29.8421 9.99837 28.2291 9.99837 27.2611 10.9654L24.7611 13.4664L24.4381 13.0634C23.4701 12.0954 21.8571 12.0954 20.8891 13.0634C19.9211 14.0314 19.9211 15.6444 20.8891 16.6124L24.0351 19.8384ZM22.2601 14.5154C22.4221 14.3544 22.7441 14.3544 22.9871 14.5154L24.0351 15.5644C24.4381 15.9664 25.0831 15.9664 25.4871 15.5644L28.7131 12.3374C28.8741 12.1764 29.1971 12.1764 29.4391 12.3374C29.6001 12.4984 29.6001 12.8214 29.4391 13.0634L24.8411 17.6604L22.3411 15.1604C22.0991 14.9994 22.0991 14.6764 22.2601 14.5154Z" fill="#FFBC31"/>
<path d="M22.9865 25.8889C23.1475 26.0499 23.4705 26.2109 23.7125 26.2109H27.5835C27.8255 26.2109 28.1485 26.1309 28.3095 25.8889C32.1005 21.9359 33.8745 20.6459 34.6815 18.1449C35.4075 15.9679 35.2455 12.8219 35.2455 6.44994C35.2455 5.80494 34.6815 5.40194 34.1165 5.48194C31.6975 5.88594 29.5995 5.72394 27.9865 5.15994C27.8255 4.99794 27.6645 4.99794 27.5835 4.99794H23.8735C23.7925 4.99794 23.6315 4.99794 23.5505 5.07894C21.9375 5.72394 19.7595 5.80494 17.3405 5.40194C16.6955 5.32094 16.2105 5.80494 16.2105 6.36894C16.2105 12.9829 16.0495 15.8869 16.7755 18.0649C17.4205 20.6459 19.1955 21.9359 22.9865 25.8889ZM18.0665 7.57894C20.3245 7.82094 22.3415 7.65994 23.9535 7.01494H27.3415C28.9545 7.57894 30.8905 7.74094 33.1495 7.57894C33.1495 12.9829 33.2295 15.8059 32.6655 17.5809C32.1005 19.5159 30.5675 20.5649 27.0995 24.1949H24.1155C20.5665 20.4849 19.1145 19.4359 18.5495 17.5809C17.9855 15.8059 18.0665 13.0639 18.0665 7.57894Z" fill="#1C80C6"/>
<path d="M14.0334 30.2422H37.2624C37.8274 30.2422 38.2304 29.7582 38.2304 29.1932C38.2304 28.6292 37.7464 28.1442 37.2624 28.1442H14.0334C13.4684 28.1442 13.0654 28.6292 13.0654 29.1932C13.0654 29.7582 13.4684 30.2422 14.0334 30.2422Z" fill="#1C80C6"/>
<path d="M34.1979 31.2135H17.0989C16.5339 31.2135 16.1309 31.6965 16.1309 32.2615C16.1309 32.8265 16.6149 33.2305 17.0989 33.2305H34.2779C34.8429 33.2305 35.3279 32.7455 35.3279 32.2615C35.2459 31.6965 34.7629 31.2135 34.1979 31.2135Z" fill="#1C80C6"/>
<path d="M31.2132 34.278H20.0832C19.5182 34.278 19.0342 34.762 19.0342 35.326C19.0342 35.891 19.5182 36.375 20.0832 36.375H31.2132C31.7782 36.375 32.2612 35.891 32.2612 35.326C32.2612 34.762 31.7782 34.278 31.2132 34.278Z" fill="#1C80C6"/>
</svg>
