<svg width="83" height="35" viewBox="0 0 83 35" fill="none" xmlns="http://www.w3.org/2000/svg">
<path d="M78.4043 10.8859C78.2373 10.7349 78.0253 10.6419 77.8013 10.6199L57.8513 8.73994L49.8003 0.319944C49.6033 0.114944 49.3303 -0.00205612 49.0453 -0.00205612H26.7523C26.5163 -0.00205612 26.2873 0.0769463 26.1023 0.223946L14.1213 9.73094H4.2453C3.8703 9.73094 3.5243 9.93194 3.3383 10.2579L0.1383 15.8619C0.00129969 16.1009 -0.0357048 16.3839 0.0352952 16.6489L2.2753 25.0549C2.3973 25.5119 2.8113 25.8309 3.2853 25.8309H11.0183C11.4813 25.8309 11.8893 25.5249 12.0203 25.0799C13.0433 21.5949 16.2923 19.1609 19.9203 19.1609C24.4613 19.1609 28.1553 22.8549 28.1553 27.3959C28.1553 27.6809 28.1393 27.9739 28.1083 28.2649C28.0773 28.5599 28.1733 28.8539 28.3713 29.0729C28.5693 29.2939 28.8513 29.4189 29.1473 29.4189H55.8223H55.8253C56.4013 29.4189 56.8693 28.9519 56.8693 28.3749C56.8693 28.3119 56.8643 28.2499 56.8533 28.1899C56.8273 27.9229 56.8143 27.6569 56.8143 27.3959C56.8143 22.8549 60.5083 19.1609 65.0483 19.1609C68.6983 19.1609 71.9523 21.6139 72.9613 25.1239C73.0903 25.5719 73.4993 25.8799 73.9653 25.8799H79.0543C79.5283 25.8799 79.9423 25.5609 80.0643 25.1039L82.6243 15.4689C82.7243 15.0899 82.6053 14.6879 82.3153 14.4259L78.4043 10.8859ZM4.8513 11.8199H14.4853C14.7213 11.8199 14.9493 11.7399 15.1343 11.5939L27.1163 2.08694H48.5993L56.6103 10.4649C56.7843 10.6469 57.0173 10.7599 57.2673 10.7829L77.2603 12.6679L79.3833 14.5889H3.2703L4.8513 11.8199ZM78.2513 23.7909H74.7193C73.2263 19.7979 69.3573 17.0719 65.0483 17.0719C59.3783 17.0719 54.7613 21.6679 54.7253 27.3299H30.2443C30.2083 21.6679 25.5913 17.0719 19.9203 17.0719C15.6363 17.0719 11.7743 19.7779 10.2683 23.7409H4.0873L2.2053 16.6779H80.1413L78.2513 23.7909Z" fill="#1C80C6"/>
<path d="M22.3756 27.5739C22.3756 26.1859 21.2506 25.0599 19.8626 25.0599C18.4746 25.0599 17.3486 26.1859 17.3486 27.5739C17.3486 28.9619 18.4746 30.0869 19.8626 30.0869C21.2506 30.0869 22.3756 28.9619 22.3756 27.5739Z" fill="#FFBC31"/>
<path d="M26.8019 27.5737C26.8019 23.7467 23.6889 20.6347 19.8619 20.6347C16.0359 20.6347 12.9229 23.7467 12.9229 27.5737C12.9229 31.3997 16.0359 34.5127 19.8619 34.5127C23.6889 34.5127 26.8019 31.3997 26.8019 27.5737ZM15.0119 27.5737C15.0119 24.8987 17.1879 22.7227 19.8619 22.7227C22.5369 22.7227 24.7129 24.8987 24.7129 27.5737C24.7129 30.2477 22.5369 32.4237 19.8619 32.4237C17.1879 32.4237 15.0119 30.2477 15.0119 27.5737Z" fill="#1C80C6"/>
<path d="M71.9298 27.5737C71.9298 23.7467 68.8168 20.6347 64.9898 20.6347C61.1638 20.6347 58.0508 23.7467 58.0508 27.5737C58.0508 31.3997 61.1638 34.5127 64.9898 34.5127C68.8168 34.5127 71.9298 31.3997 71.9298 27.5737ZM60.1398 27.5737C60.1398 24.8987 62.3158 22.7227 64.9898 22.7227C67.6648 22.7227 69.8408 24.8987 69.8408 27.5737C69.8408 30.2477 67.6648 32.4237 64.9898 32.4237C62.3158 32.4237 60.1398 30.2477 60.1398 27.5737Z" fill="#1C80C6"/>
<path d="M67.5036 27.5739C67.5036 26.1859 66.3786 25.0599 64.9906 25.0599C63.6026 25.0599 62.4766 26.1859 62.4766 27.5739C62.4766 28.9619 63.6026 30.0869 64.9906 30.0869C66.3786 30.0869 67.5036 28.9619 67.5036 27.5739Z" fill="#FFBC31"/>
<path d="M26.4727 13.3877H30.7256V12.0449H26.4727V13.3877Z" fill="#1C80C6"/>
<path d="M42.5886 13.3877H46.8416V12.0449H42.5886V13.3877Z" fill="#1C80C6"/>
<path d="M38.5791 3.86701V10.333H53.0181L47.5401 3.86701H38.5791Z" fill="#FFBC31"/>
<path d="M20.6533 10.333H36.6893V3.86701H27.8733L20.6533 10.333Z" fill="#FFBC31"/>
</svg>
