<svg width="67" height="39" viewBox="0 0 67 39" fill="none" xmlns="http://www.w3.org/2000/svg">
<path d="M44.4497 22.1409C44.4497 22.4349 44.6877 22.6729 44.9817 22.6729H46.8817C47.1747 22.6729 47.4137 22.4349 47.4137 22.1409C47.4137 21.8469 47.1747 21.6089 46.8817 21.6089H44.9817C44.6877 21.6089 44.4497 21.8469 44.4497 22.1409Z" fill="#FFBC31"/>
<path d="M52.6173 38.9922C56.0783 38.9922 58.8943 36.1762 58.8943 32.7152C58.8943 29.2542 56.0783 26.4382 52.6173 26.4382C49.1563 26.4382 46.3403 29.2542 46.3403 32.7152C46.3403 36.1762 49.1563 38.9922 52.6173 38.9922ZM52.6173 28.5652C54.9053 28.5652 56.7673 30.4272 56.7673 32.7152C56.7673 35.0032 54.9053 36.8642 52.6173 36.8642C50.3293 36.8642 48.4683 35.0032 48.4683 32.7152C48.4683 30.4272 50.3293 28.5652 52.6173 28.5652Z" fill="#FFBC31"/>
<path d="M52.617 34.9365C53.845 34.9365 54.84 33.9415 54.84 32.7135C54.84 31.4865 53.845 30.4915 52.617 30.4915C51.389 30.4915 50.394 31.4865 50.394 32.7135C50.394 33.9415 51.389 34.9365 52.617 34.9365Z" fill="#1C80C6"/>
<path d="M10.202 30.6964C11.099 27.3944 14.113 25.0894 17.532 25.0894C20.951 25.0894 23.965 27.3944 24.862 30.6964L24.969 31.0894C25.027 31.3054 27.761 31.4814 31.075 31.4814H40.653H42.508H45.08L45.295 30.6994C46.2 27.4134 49.211 25.1184 52.617 25.1184C56.023 25.1184 59.034 27.4134 59.94 30.6994L60.155 31.4814H63.213C64.87 31.4814 66.213 30.1384 66.213 28.4814V23.2234L66.212 23.1704C66.051 19.9924 61.891 18.4404 61.714 18.3764L61.625 18.3434C61.577 18.3264 61.09 18.3114 60.537 18.3114H56.905C55.801 18.3114 54.358 17.6034 53.682 16.7294L50.038 12.0174C49.363 11.1434 47.92 10.4584 46.816 10.4864L42.508 10.5954V10.2474C42.508 10.0544 43.403 9.89944 44.508 9.89944H49.312C49.864 9.89944 50.312 9.45144 50.312 8.89944V5.07145C50.312 2.40445 46.128 0.242445 40.966 0.242445H9.346C4.185 0.242445 0 4.42645 0 9.58845V28.4814C0 30.1384 1.344 31.4814 3 31.4814H9.989L10.202 30.6964ZM42.781 12.7174L45.792 12.6404C46.896 12.6124 48.339 13.2984 49.015 14.1724L52.637 18.8574C53.313 19.7314 54.756 20.4394 55.861 20.4394H59.144C60.249 20.4394 61.207 20.4664 61.285 20.4984C61.43 20.4964 62.031 20.8364 62.629 21.2564C63.264 21.7024 64.03 22.4104 64.057 22.8324C64.073 23.0654 64.085 24.1494 64.085 25.2544V29.3534H61.74C60.343 25.5694 56.702 22.9904 52.617 22.9904C48.532 22.9904 44.891 25.5694 43.495 29.3534H43.138C42.94 29.3534 42.781 26.2194 42.781 22.3534V12.7174ZM2.128 10.8374C2.128 6.16145 6.312 2.37045 11.474 2.37045H48.184V5.77145C48.184 6.87645 47.289 7.77145 46.184 7.77145H41.38C40.828 7.77145 40.38 8.21945 40.38 8.77145V13.5374C40.38 16.7224 36.196 19.3034 31.034 19.3034H9.128C5.262 19.3034 2.128 16.1704 2.128 12.3034V10.8374ZM2.128 29.3534V25.3924C2.128 23.2054 6.312 21.4314 11.474 21.4314H39.38C39.932 21.4314 40.38 21.8794 40.38 22.4314V27.3534C40.38 28.4584 39.484 29.3534 38.38 29.3534H28.666C27.561 29.3534 26.359 28.5124 25.98 27.4744C25.278 25.5514 21.632 22.9614 17.532 22.9614C13.432 22.9614 9.786 25.5514 9.084 27.4744C8.705 28.5124 7.503 29.3534 6.398 29.3534H2.128Z" fill="#FFBC31"/>
<path d="M24.2146 32.6849C24.2146 29.2239 21.3986 26.4079 17.9376 26.4079C14.4756 26.4079 11.6606 29.2239 11.6606 32.6849C11.6606 36.1459 14.4756 38.9619 17.9376 38.9619C21.3986 38.9619 24.2146 36.1459 24.2146 32.6849ZM13.7876 32.6849C13.7876 30.3969 15.6496 28.5359 17.9376 28.5359C20.2256 28.5359 22.0866 30.3969 22.0866 32.6849C22.0866 34.9729 20.2256 36.8339 17.9376 36.8339C15.6496 36.8339 13.7876 34.9729 13.7876 32.6849Z" fill="#FFBC31"/>
<path d="M20.1603 32.6852C20.1603 31.4572 19.1653 30.4622 17.9373 30.4622C16.7103 30.4622 15.7153 31.4572 15.7153 32.6852C15.7153 33.9132 16.7103 34.9082 17.9373 34.9082C19.1653 34.9082 20.1603 33.9132 20.1603 32.6852Z" fill="#1C80C6"/>
<path d="M46.7169 13.9345H45.1079C44.5559 13.9345 44.1079 14.3825 44.1079 14.9345V19.3555C44.1079 19.9075 44.5559 20.3555 45.1079 20.3555H48.7069C50.3639 20.3555 50.8829 19.2945 49.8659 17.9865L46.7169 13.9345Z" fill="#1C80C6"/>
</svg>
