<svg width="46" height="44" viewBox="0 0 46 44" fill="none" xmlns="http://www.w3.org/2000/svg">
<path d="M22.4605 17.6035C21.1855 17.6035 20.2305 16.5675 20.2305 15.3735C20.2305 14.1785 21.2655 13.1435 22.4605 13.1435C23.6555 13.1435 24.6905 14.1785 24.6905 15.3735C24.6905 16.5675 23.6555 17.6035 22.4605 17.6035ZM22.4605 15.1345C22.3015 15.1345 22.2215 15.2135 22.2215 15.3735C22.2215 15.5325 22.3015 15.6125 22.4605 15.6125C22.6195 15.6125 22.6995 15.5325 22.6995 15.3735C22.6995 15.2135 22.6195 15.1345 22.4605 15.1345Z" fill="#FFBC31"/>
<path d="M22.4606 22.9395C18.3186 22.9395 14.9736 19.5945 14.9736 15.4525V9.95645C14.9736 9.39945 15.4516 8.92145 16.0086 8.92145H28.9916C29.5496 8.92145 30.0276 9.39945 30.0276 9.95645V15.4525C29.9476 19.5945 26.5226 22.9395 22.4606 22.9395ZM16.9646 10.9925V15.4525C16.9646 18.4795 19.4336 20.9485 22.4606 20.9485C25.4866 20.9485 27.9566 18.4795 27.9566 15.4525V10.9925H16.9646Z" fill="#1C80C6"/>
<path d="M22.4608 18.877C21.9028 18.877 21.4248 18.399 21.4248 17.841V16.567C21.4248 16.01 21.9028 15.532 22.4608 15.532C23.0178 15.532 23.4958 16.01 23.4958 16.567V17.841C23.4168 18.399 23.0178 18.877 22.4608 18.877Z" fill="#FFBC31"/>
<path d="M29.7087 43.9668H14.4157C14.0977 43.9668 13.7787 43.8068 13.6197 43.5688C13.4597 43.3298 13.3807 43.0108 13.4597 42.6928L16.3277 33.1338C16.4867 32.7358 16.8057 32.4168 17.2837 32.4168H26.8407C27.3187 32.4168 27.6377 32.7358 27.7967 33.1338L30.6647 42.6928C30.7437 43.0108 30.6647 43.3298 30.5047 43.5688C30.3457 43.8068 30.0277 43.9668 29.7087 43.9668ZM15.7697 41.9758H28.3547L26.1247 34.4088H18.0007L15.7697 41.9758Z" fill="#1C80C6"/>
<path d="M23.0983 29.712C23.0983 30.27 22.6203 30.748 22.0623 30.748C21.5053 30.748 21.0273 30.27 21.0273 29.712C21.0273 29.155 21.5053 28.677 22.0623 28.677C22.6203 28.677 23.0983 29.155 23.0983 29.712Z" fill="#FFBC31"/>
<path d="M34.4876 43.9668H9.63656C9.07956 43.9668 8.60156 43.4888 8.60156 42.9308C8.60156 42.3738 9.07956 41.8958 9.63656 41.8958H34.4876C35.0446 41.8958 35.5226 42.3738 35.5226 42.9308C35.4436 43.4888 35.0446 43.9668 34.4876 43.9668Z" fill="#FFBC31"/>
<path d="M7.726 27.7207H1.036C0.478 27.7207 0 27.2427 0 26.6847C0 26.1277 0.478 25.6497 1.036 25.6497H7.726C8.284 25.6497 8.682 26.1277 8.682 26.6847C8.682 27.2427 8.284 27.7207 7.726 27.7207Z" fill="#1C80C6"/>
<path d="M44.0458 27.7207H13.4608C12.9028 27.7207 12.4248 27.2427 12.4248 26.6847C12.4248 26.1277 12.9028 25.6497 13.4608 25.6497H44.0458C44.6028 25.6497 45.0808 26.1277 45.0808 26.6847C45.0808 27.2427 44.6028 27.7207 44.0458 27.7207Z" fill="#1C80C6"/>
<path d="M39.9034 27.7188C39.3464 27.7188 38.8684 27.2408 38.8684 26.6828V6.13383H27.3984C27.7974 6.92983 28.0364 7.80583 28.0364 8.76183V10.0368C28.0364 10.5938 27.5584 11.0718 27.0004 11.0718H17.8414C17.2834 11.0718 16.8054 10.5938 16.8054 10.0368V8.76183C16.8054 7.80583 17.0444 6.92983 17.4424 6.13383H6.05244V26.7628C6.05244 27.3198 5.57444 27.7988 5.01744 27.7988C4.45944 27.7988 3.98145 27.3198 3.98145 26.7628V5.17783C3.98145 4.61983 4.45944 4.14283 5.01744 4.14283H19.5924C19.9914 4.14283 20.3894 4.38083 20.5484 4.77983C20.7084 5.17783 20.5484 5.65583 20.2304 5.89483C19.3544 6.61183 18.8764 7.64683 18.8764 8.76183V9.00083H26.1244V8.76183C26.1244 7.64683 25.6464 6.61183 24.7704 5.89483C24.4514 5.65583 24.2924 5.17783 24.4514 4.77983C24.6114 4.38083 24.9294 4.14283 25.4074 4.14283H39.9834C40.5404 4.14283 41.0184 4.61983 41.0184 5.17783V26.7628C40.8594 27.3198 40.3814 27.7188 39.9034 27.7188Z" fill="#1C80C6"/>
<path d="M27.0807 10.9941H17.8417C17.2837 10.9941 16.8057 10.5161 16.8057 9.95814V8.68414C16.8057 6.93214 17.6027 5.33914 18.9567 4.30414C19.9917 3.50714 21.1867 3.10914 22.4607 3.10914C23.7347 3.10914 24.9297 3.50714 25.9657 4.30414C27.3197 5.33914 28.1157 7.01214 28.1157 8.68414V9.95814C28.0367 10.5961 27.6377 10.9941 27.0807 10.9941ZM18.7967 9.00314H26.0447V8.76414C26.0447 7.64914 25.5677 6.61314 24.6907 5.89614C24.0537 5.41914 23.2577 5.10014 22.4607 5.10014C21.6647 5.10014 20.8677 5.33914 20.2307 5.89614C19.3547 6.61314 18.8767 7.64914 18.8767 8.76414V9.00314H18.7967Z" fill="#1C80C6"/>
<path d="M41.6561 34.4082H3.4241C1.5921 34.4082 0.0791016 32.8942 0.0791016 31.0622V3.3452C0.0791016 1.5132 1.5921 -0.000797272 3.4241 -0.000797272H41.6561C43.4881 -0.000797272 45.0011 1.5132 45.0011 3.3452V31.0622C45.0011 32.8942 43.4881 34.4082 41.6561 34.4082ZM3.4241 1.9112C2.7081 1.9112 2.0701 2.5482 2.0701 3.2652V30.9832C2.0701 31.7002 2.7081 32.3372 3.4241 32.3372H41.6561C42.3731 32.3372 43.0101 31.7002 43.0101 30.9832V3.3452C43.0101 2.6282 42.3731 1.9912 41.6561 1.9912H3.4241V1.9112Z" fill="#1C80C6"/>
</svg>
