<svg width="53" height="54" viewBox="0 0 53 54" fill="none" xmlns="http://www.w3.org/2000/svg">
<path d="M34.4317 51.9613H16.6597C16.3337 51.9833 15.9197 51.7763 15.7347 51.4983C15.5487 51.2203 15.4567 50.8503 15.5487 50.4803L18.8807 39.3733C19.0667 38.9103 19.4367 38.5393 19.9917 38.5393H31.0997C31.6547 38.5393 32.0247 38.9103 32.2097 39.3733L35.5417 50.4803C35.6247 50.7653 35.5417 51.2203 35.3567 51.4983C35.2157 51.7533 34.8017 51.9613 34.4317 51.9613ZM19.5287 45.2513C18.8137 47.6793 20.4717 49.6473 23.2337 49.6473H30.8577C31.9627 49.6473 32.6047 48.7883 32.2927 47.7293L30.8317 42.7723C30.5197 41.7123 29.3707 40.8543 28.2667 40.8543H23.8247C22.1677 40.8543 20.4457 42.1423 19.9767 43.7323L19.5287 45.2513Z" stroke="#1C80C6" stroke-width="1.287"/>
<path d="M40.0791 53.3389H11.2001C10.5521 53.3389 9.99609 52.7829 9.99609 52.1349C9.99609 51.4869 10.5521 50.9319 11.2001 50.9319H40.0791C40.7271 50.9319 41.2821 51.4869 41.2821 51.8109C41.2821 51.9899 41.2611 52.2799 41.2361 52.4589C41.2451 52.9449 40.7271 53.3389 40.0791 53.3389Z" fill="#1C80C6"/>
<path d="M50.1797 33.0791H15.5197C14.8877 33.0791 14.3467 32.5231 14.3467 31.8761C14.3467 31.2271 14.8877 30.6721 15.5197 30.6721H50.1797C50.8277 30.6891 51.3527 31.2271 51.3527 31.8761C51.3367 32.5401 50.8117 33.0791 50.1797 33.0791Z" stroke="#1C80C6" stroke-width="1.287"/>
<path d="M26.7488 35.3927C26.7488 36.0407 26.1938 36.5957 25.5458 36.5957C24.8978 36.5957 24.3428 36.0407 24.3428 35.3927C24.3428 34.7447 24.8978 34.1897 25.5458 34.1897C26.1938 34.1897 26.7488 34.7447 26.7488 35.3927Z" fill="#FFBC31"/>
<path d="M46.2792 33.0789C45.6312 33.0789 45.0762 32.5229 45.0762 31.8759V19.6709C45.0762 13.2219 39.8492 7.99487 33.4002 7.99487H16.9412C11.4182 7.99487 6.94115 12.4719 6.94115 17.9949V31.9679C6.94115 32.6159 6.38616 33.1719 5.73816 33.1719C5.09016 33.1719 4.53516 32.6159 4.53516 31.9679V6.88387C4.53516 6.23587 5.09016 5.68087 5.73816 5.68087H46.2792C46.9272 5.68087 47.4832 6.23587 47.4832 6.88387V20.2919C47.4832 26.7409 47.4622 32.1129 47.4362 32.2919C47.3902 32.6159 46.8342 33.0789 46.2792 33.0789Z" fill="#1C80C6"/>
<path d="M48.316 40.8545H3.887C1.758 40.8545 0 39.0955 0 36.9665V4.75549C0 2.62649 1.758 0.868492 3.887 0.868492H48.316C50.445 0.868492 52.203 2.62649 52.203 4.75549V36.9665C52.185 39.1145 50.445 40.8545 48.316 40.8545ZM3.887 3.13649C3.887 3.11049 3.701 3.08949 3.471 3.08949C3.054 3.08949 2.314 3.83049 2.314 4.66349V36.8745C2.314 37.7075 3.054 38.4475 3.887 38.4475H48.316C49.149 38.4475 49.889 37.7075 49.889 36.8745V4.75549C49.889 3.92249 49.149 3.18249 48.316 3.18249H3.887V3.13649Z" fill="#1C80C6"/>
<path d="M19.6221 25.3965H10.3661C9.71809 25.3965 9.16309 24.8405 9.16309 24.1935V21.8785C9.16309 18.7315 11.7541 16.0475 14.9941 16.0475C18.2341 16.0475 20.8251 18.6395 20.8251 21.8785V24.1935C20.8091 24.8575 20.2701 25.3965 19.6221 25.3965ZM11.5691 23.0825H18.5111V21.8785C18.5111 19.9355 16.9381 18.3615 14.9941 18.3615C13.0501 18.3615 11.4771 19.9355 11.4771 21.8785V23.0825H11.5691Z" stroke="#1C80C6" stroke-width="1.287"/>
<path d="M40.448 17.251H25.453C24.805 17.251 24.25 16.695 24.25 16.048C24.25 15.4 24.805 14.845 25.453 14.845H40.448C41.096 14.845 41.651 15.4 41.651 16.048C41.651 16.695 41.096 17.251 40.448 17.251Z" fill="#FFBC31"/>
<path d="M40.448 20.7686H25.453C24.805 20.7686 24.25 20.2126 24.25 19.5656C24.25 18.9166 24.805 18.3616 25.453 18.3616H40.448C41.096 18.3616 41.651 18.9166 41.651 19.5656C41.651 20.2126 41.096 20.7686 40.448 20.7686Z" fill="#FFBC31"/>
<path d="M24.25 24.2395C24.25 23.6005 24.768 23.0825 25.407 23.0825C26.047 23.0825 26.564 23.6005 26.564 24.2395C26.564 24.8785 26.047 25.3965 25.407 25.3965C24.768 25.3965 24.25 24.8785 24.25 24.2395Z" stroke="#1C80C6" stroke-width="1.287"/>
<path d="M27.7676 24.2395C27.7676 23.6005 28.2856 23.0825 28.9246 23.0825C29.5636 23.0825 30.0816 23.6005 30.0816 24.2395C30.0816 24.8785 29.5636 25.3965 28.9246 25.3965C28.2856 25.3965 27.7676 24.8785 27.7676 24.2395Z" stroke="#1C80C6" stroke-width="1.287"/>
<path d="M31.1924 24.2395C31.1924 23.6005 31.7104 23.0825 32.3494 23.0825C32.9884 23.0825 33.5064 23.6005 33.5064 24.2395C33.5064 24.8785 32.9884 25.3965 32.3494 25.3965C31.7104 25.3965 31.1924 24.8785 31.1924 24.2395Z" stroke="#1C80C6" stroke-width="1.287"/>
<path d="M34.7095 24.2395C34.7095 23.6005 35.2275 23.0825 35.8665 23.0825C36.5055 23.0825 37.0235 23.6005 37.0235 24.2395C37.0235 24.8785 36.5055 25.3965 35.8665 25.3965C35.2275 25.3965 34.7095 24.8785 34.7095 24.2395Z" stroke="#1C80C6" stroke-width="1.287"/>
<path d="M38.1343 24.2395C38.1343 23.6005 38.6523 23.0825 39.2913 23.0825C39.9303 23.0825 40.4483 23.6005 40.4483 24.2395C40.4483 24.8785 39.9303 25.3965 39.2913 25.3965C38.6523 25.3965 38.1343 24.8785 38.1343 24.2395Z" stroke="#1C80C6" stroke-width="1.287"/>
</svg>
