<svg width="28" height="27" viewBox="0 0 28 27" fill="none" xmlns="http://www.w3.org/2000/svg">
<path d="M13.8886 1.35649C7.08961 1.47549 1.65561 7.10249 1.77461 13.9005C1.89261 20.6995 7.51961 26.1335 14.3186 26.0145C21.1186 25.8955 26.5526 20.2695 26.4336 13.4695C26.3146 6.67149 20.6886 1.23749 13.8886 1.35649ZM14.3356 26.9765C7.00661 27.1035 0.940605 21.2455 0.812605 13.9165C0.684605 6.58849 6.54261 0.523489 13.8716 0.395489C21.2016 0.267488 27.2686 6.12449 27.3966 13.4525C27.5236 20.7815 21.6656 26.8485 14.3356 26.9765Z" fill="#1C80C6"/>
<path d="M8.62418 17.4679L8.49518 10.0589C8.49018 9.80092 8.80218 9.66892 8.98518 9.84992L14.3922 15.2169C14.4412 15.2659 14.5022 15.3009 14.5702 15.3149C14.6862 15.3389 14.8052 15.2999 14.8842 15.2149L20.1062 9.65592C20.2842 9.46792 20.5992 9.58992 20.6042 9.84792L20.7332 17.2569C20.7462 17.9969 20.1572 18.6079 19.4152 18.6209L9.98918 18.7859C9.24818 18.7989 8.63718 18.2079 8.62418 17.4679ZM19.6542 9.15092L14.8302 14.2859C14.7202 14.4039 14.5352 14.4069 14.4212 14.2939L9.42018 9.32892C9.23918 9.14992 9.36318 8.84092 9.61718 8.83692L19.4392 8.66492C19.6942 8.66092 19.8282 8.96492 19.6542 9.15092Z" fill="#1C80C6"/>
</svg>
