<svg width="78" height="35" viewBox="0 0 78 35" fill="none" xmlns="http://www.w3.org/2000/svg">
<path d="M69.8934 23.5198C69.5554 21.7628 68.7104 20.2268 68.0574 19.2438C67.7384 18.7638 68.0194 18.0918 68.5964 18.0848L74.3214 18.0128C75.0504 18.0038 75.6144 18.6478 75.5084 19.3698L74.0874 29.0088C73.9704 29.7968 73.2924 30.3828 72.4944 30.3828H70.1374C69.4944 30.3828 69.1144 29.6968 69.3504 29.0978C70.0314 27.3728 70.2694 25.4768 69.8934 23.5198Z" stroke="#1C80C6" stroke-width="1.2" stroke-miterlimit="10"/>
<path d="M1.00098 24.6611V14.9381C1.00098 14.1071 1.52798 13.3631 2.31098 13.0861L13.813 9.02709C14.457 8.80009 14.891 8.18609 14.891 7.50209C14.891 6.80909 15.304 6.17809 15.939 5.90009L19.977 4.13509C20.578 3.87209 21.25 4.31109 21.25 4.96709V8.79109C21.25 9.55909 21.871 10.1831 22.639 10.1861L46.153 10.2751C46.631 10.2771 46.853 9.68309 46.492 9.37109L39.427 3.26109C38.895 2.80109 38.824 2.00209 39.266 1.45609C39.699 0.919093 40.49 0.848095 41.012 1.2991L48.566 7.8201C49.242 8.4031 50.111 8.72209 51.004 8.73909C53.121 8.77909 57.487 8.95009 62.886 9.64609C69.792 10.5361 74.04 12.2651 75.954 13.2141C76.679 13.5731 76.981 14.4311 76.74 15.2021L73.645 25.1321C73.371 26.0111 72.959 26.8411 72.424 27.5901L72.214 27.8831C71.828 28.4241 71.201 28.7461 70.536 28.7461H69.772C69.62 28.7461 69.495 28.6031 69.567 28.4681C69.667 28.2821 69.691 28.0651 69.742 27.8591C70.003 26.8111 70.057 25.5961 70.057 25.3151C70.057 19.4861 65.333 14.7621 59.505 14.7621C52.619 14.7621 47.603 21.2361 49.274 27.8771C49.323 28.0711 49.346 28.2711 49.315 28.4691C49.291 28.6261 49.159 28.7461 49 28.7461H23.925C23.766 28.7461 23.634 28.6261 23.609 28.4691C23.582 28.2901 23.591 28.1081 23.636 27.9341C23.852 27.0961 23.973 26.2211 23.973 25.3151C23.973 19.4861 19.249 14.7621 13.421 14.7621C7.59098 14.7621 2.86698 19.4861 2.86698 25.3151C2.86698 26.2211 2.98798 27.0961 3.20398 27.9341C3.24898 28.1081 3.25998 28.2891 3.27098 28.4691C3.27798 28.5891 3.14098 28.6611 3.03998 28.5951L2.13798 28.0111C1.42998 27.5541 1.00098 26.7641 1.00098 25.9221V24.6611Z" stroke="#1C80C6" stroke-width="1.8" stroke-miterlimit="10"/>
<path d="M69.9922 26.4219H69.9932" stroke="#848589" stroke-width="1.2" stroke-miterlimit="10"/>
<path d="M25.3398 15.2037C25.3398 15.8357 25.8518 16.3477 26.4838 16.3477H28.7718C29.4028 16.3477 29.9158 15.8357 29.9158 15.2037C29.9158 14.5727 29.4028 14.0597 28.7718 14.0597H26.4838C25.8518 14.0597 25.3398 14.5727 25.3398 15.2037Z" fill="#FFBC31"/>
<path d="M76.982 14.5281H71.16C70.557 14.5281 70.153 15.1471 70.396 15.7001C70.708 16.4101 71.416 16.8711 72.191 16.8711H76.246L76.982 14.5281Z" stroke="#1C80C6" stroke-width="1.2" stroke-miterlimit="10"/>
<path d="M2.603 20.4959C2.603 20.9389 2.244 21.2969 1.801 21.2969C1.359 21.2969 1 20.9389 1 20.4959V17.6709C1 17.2279 1.359 16.8699 1.801 16.8699C2.244 16.8699 2.603 17.2279 2.603 17.6709V20.4959Z" fill="white"/>
<path d="M2.603 20.4959C2.603 20.9389 2.244 21.2969 1.801 21.2969C1.359 21.2969 1 20.9389 1 20.4959V17.6709C1 17.2279 1.359 16.8699 1.801 16.8699C2.244 16.8699 2.603 17.2279 2.603 17.6709V20.4959Z" stroke="#1C80C6" stroke-width="1.2" stroke-miterlimit="10"/>
<path d="M42.2782 26.543C43.1342 26.543 43.8972 26.04 44.1762 25.292L46.8702 16.969C47.1512 16.213 47.2522 15.394 47.1622 14.599L47.0102 13.272C46.9232 12.499 46.2232 11.917 45.3822 11.917M24.2372 11.917C23.4122 11.917 22.7412 12.537 22.7412 13.3V15.778C22.7412 16.715 23.2532 17.511 23.7662 17.918C25.7862 19.524 26.5272 22.899 26.7092 25.199C26.7692 25.953 27.4342 26.543 28.2242 26.543M25.5342 11.932H30.5012" stroke="#1C80C6" stroke-width="1.5" stroke-miterlimit="10"/>
<path d="M51.0654 25.5074C51.0654 30.1894 54.8614 33.9844 59.5434 33.9844C64.2244 33.9844 68.0204 30.1894 68.0204 25.5074C68.0204 20.8244 64.2244 17.0294 59.5434 17.0294C54.8614 17.0294 51.0654 20.8244 51.0654 25.5074Z" stroke="#1C80C6" stroke-width="1.5" stroke-miterlimit="10"/>
<path d="M54.9121 25.5067C54.9121 28.0637 56.9851 30.1367 59.5431 30.1367C62.1001 30.1367 64.1731 28.0637 64.1731 25.5067C64.1731 22.9487 62.1001 20.8757 59.5431 20.8757C56.9851 20.8757 54.9121 22.9487 54.9121 25.5067Z" stroke="#1C80C6" stroke-width="1.5" stroke-miterlimit="10"/>
<path d="M56.8662 25.5076C56.8662 26.9856 58.0642 28.1836 59.5432 28.1836C61.0212 28.1836 62.2192 26.9856 62.2192 25.5076C62.2192 24.0286 61.0212 22.8306 59.5432 22.8306C58.0642 22.8306 56.8662 24.0286 56.8662 25.5076Z" fill="#FFBC31"/>
<path d="M4.82617 25.5074C4.82617 30.1894 8.62217 33.9844 13.3042 33.9844C17.9852 33.9844 21.7812 30.1894 21.7812 25.5074C21.7812 20.8244 17.9852 17.0294 13.3042 17.0294C8.62217 17.0294 4.82617 20.8244 4.82617 25.5074Z" stroke="#1C80C6" stroke-width="1.5" stroke-miterlimit="10"/>
<path d="M8.67285 25.5067C8.67285 28.0637 10.7459 30.1367 13.3039 30.1367C15.8609 30.1367 17.9339 28.0637 17.9339 25.5067C17.9339 22.9487 15.8609 20.8757 13.3039 20.8757C10.7459 20.8757 8.67285 22.9487 8.67285 25.5067Z" stroke="#1C80C6" stroke-width="1.5" stroke-miterlimit="10"/>
<path d="M10.627 25.5076C10.627 26.9856 11.825 28.1836 13.304 28.1836C14.782 28.1836 15.981 26.9856 15.981 25.5076C15.981 24.0286 14.782 22.8306 13.304 22.8306C11.825 22.8306 10.627 24.0286 10.627 25.5076Z" fill="#FFBC31"/>
</svg>
