<svg width="59" height="64" viewBox="0 0 59 64" fill="none" xmlns="http://www.w3.org/2000/svg">
<path d="M23.6828 32.3446C23.1348 31.7966 22.2578 31.7966 21.7098 32.3446L15.8978 38.1556C15.3498 38.7036 15.3498 39.5816 15.8978 40.1296L21.7098 45.9406C22.2578 46.4886 23.1348 46.4886 23.6828 45.9406L29.4938 40.1296C30.0428 39.5816 30.0428 38.7036 29.4938 38.1556L23.6828 32.3446ZM22.6958 42.9806L18.8588 39.1426L22.6958 35.3046L26.5338 39.1426L22.6958 42.9806Z" fill="#FFBC31"/>
<path d="M30.2614 52.1897H15.1314C14.3634 52.1897 13.8154 52.8477 13.8154 53.5047C13.8154 54.2727 14.4734 54.9307 15.1314 54.9307H30.2614C31.0294 54.9307 31.6874 54.2727 31.6874 53.8887C31.6874 53.6767 31.6624 53.3337 31.6324 53.1217C31.6434 52.6067 31.0294 52.1897 30.2614 52.1897Z" fill="#1C80C6"/>
<path d="M48.1334 23.1338L44.7344 26.5328L44.2954 26.0938C42.9804 24.7788 40.7874 24.7788 39.4714 26.0938C38.1554 27.4098 38.1554 29.6028 39.4714 30.9178L43.8574 35.3038C44.4054 35.8518 45.2834 35.8518 45.8314 35.3038L53.0674 28.0678C54.3834 26.7518 54.3834 24.5588 53.0674 23.2428C51.6424 21.8178 49.4494 21.8178 48.1334 23.1338ZM50.9844 26.0938L44.7344 32.3438L41.3354 28.9448C41.1164 28.7258 41.1164 28.2868 41.3354 27.9578C41.5544 27.7378 41.9934 27.7378 42.3224 27.9578L43.7474 29.3838C44.2954 29.9318 45.1734 29.9318 45.7214 29.3838L50.1074 24.9978C50.3264 24.7788 50.7654 24.7788 51.0934 24.9978C51.3134 25.3268 51.3134 25.7648 50.9844 26.0938Z" fill="#FFBC31"/>
<path d="M58.879 17.1033C58.798 16.2673 58.111 15.6783 57.344 15.7883C54.054 16.3353 51.204 16.1163 49.955 15.6793C49.433 15.4973 48.986 15.3243 48.956 15.2943C48.901 15.2393 48.682 15.2393 48.572 15.2393H43.529C43.419 15.2393 43.199 15.2393 43.09 15.3493C41.777 16.1393 38.047 16.3353 34.757 15.7883C33.88 15.6783 33.222 16.3353 33.222 17.1033V19.2963H31.851C31.094 19.2963 30.481 17.9533 30.481 16.2963V9.64732H31.139C33.003 9.64732 34.538 8.11232 34.538 6.24932C34.538 4.38432 33.003 2.85032 31.139 2.85032H14.692C12.828 2.85032 11.293 4.38432 11.293 6.24932C11.293 8.11232 12.828 9.64732 14.692 9.64732H15.021C15.203 9.64732 15.35 10.9913 15.35 12.6473V18.2963C15.35 18.8483 14.903 19.2963 14.35 19.2963H10.745C8.00404 19.2963 5.81104 21.4893 5.81104 24.2303V54.0533C5.81104 56.7943 8.00404 58.9873 10.745 58.9873H11.293V61.7283C11.293 62.4963 11.951 63.1533 12.719 63.1533H16.775C17.543 63.1533 18.201 62.4963 18.201 61.7283V60.3573C18.201 59.6013 19.544 58.9873 21.201 58.9873H27.85V61.7283C27.85 62.4963 28.507 63.1533 29.275 63.1533H33.442C34.209 63.1533 34.867 62.4963 34.867 61.7283V58.9873H35.415C38.156 58.9873 40.349 56.7943 40.349 54.0533V41.8953C40.349 41.3433 40.521 41.0673 40.733 41.2803C41.036 41.5343 41.993 42.5413 42.871 43.5273C43.09 43.7473 43.529 43.9663 43.857 43.9663H48.901C49.227 44.0533 49.669 43.8563 49.888 43.5273C53.575 41.1133 57.453 36.4013 58.55 33.0023C59.098 29.9323 58.879 25.7653 58.879 17.1033ZM37.059 48.0233H14.333C11.019 48.0233 8.33303 45.3363 8.33303 42.0233V33.2603C8.33303 31.6033 9.67603 30.2603 11.333 30.2603H30.222C31.879 30.2603 33.296 31.0463 33.386 32.0153C33.551 33.7693 34.647 35.5233 35.853 36.8393C36.519 37.5653 37.059 39.4983 37.059 41.1553V48.0233ZM13.815 6.24932C13.815 5.91932 14.144 5.59132 14.473 5.59132H30.919C31.249 5.59132 31.577 5.91932 31.577 6.24932C31.577 6.57732 31.249 6.90732 30.919 6.90732H14.473C14.144 6.90732 13.815 6.57732 13.815 6.24932ZM17.872 11.6473C17.872 10.5433 18.767 9.64732 19.872 9.64732H25.52C26.625 9.64732 27.52 10.5433 27.52 11.6473V17.1863C27.52 18.2913 26.625 19.1863 25.52 19.1863H20.872C19.215 19.1863 17.872 17.8433 17.872 16.1863V11.6473ZM10.526 22.0373H22.003C28.078 22.0373 33.003 22.5283 33.003 23.1343V26.7523C33.003 27.1763 28.078 27.5193 22.003 27.5193H8.33303V24.2303C8.33803 23.0193 9.32004 22.0373 10.526 22.0373ZM15.131 60.4123H13.815V58.9873H15.131V60.4123ZM31.577 60.4123H30.152V58.9873H31.577V60.4123ZM34.867 56.2463H10.526C9.32004 56.2463 8.33303 55.2593 8.33303 54.0533V52.4083C8.33303 51.5003 14.153 50.7643 21.333 50.7643H37.059V54.0533C37.059 55.2593 36.073 56.2463 34.867 56.2463ZM55.48 32.1243C54.712 34.7563 52.629 36.1823 47.914 41.1153H45.941C44.851 41.1153 42.887 39.9863 41.555 38.5933C39.476 37.5423 37.169 34.6463 36.402 32.1243C35.634 29.7123 35.744 25.8743 35.744 22.2023C35.744 20.1733 36.431 18.6023 37.279 18.6933C38.814 18.8573 41.445 18.5293 43.638 17.7613H45.941C47.212 17.7613 48.734 17.9333 49.34 18.1453C50.436 18.5293 53.068 18.7483 54.603 18.6383C55.45 18.5783 56.137 20.1983 56.137 22.2573C56.542 25.4033 56.247 29.8223 55.48 32.1243Z" fill="#1C80C6"/>
<path d="M8.333 11.0729C8.333 8.77088 6.469 6.90688 4.166 6.90688C1.864 6.90688 0 8.77088 0 11.0729C0 13.3749 1.864 15.1299 4.166 15.1299C6.469 15.1299 8.333 13.2659 8.333 11.0729ZM4.166 12.3889C3.399 12.3889 2.741 11.7309 2.741 11.0729C2.741 10.3049 3.399 9.64788 4.166 9.64788C4.934 9.64788 5.592 10.3049 5.592 11.0729C5.592 11.7309 4.934 12.3889 4.166 12.3889Z" fill="#FFBC31"/>
<path d="M50.7651 48.0231C48.4631 48.0231 46.5981 49.8871 46.5981 52.1901C46.5981 54.4921 48.4631 56.2461 50.7651 56.2461C53.0671 56.2461 54.8221 54.3821 54.8221 52.1901C54.9311 49.8871 53.0671 48.0231 50.7651 48.0231ZM50.7651 53.5051C49.9971 53.5051 49.3391 52.8471 49.3391 52.1901C49.3391 51.4221 49.9971 50.7641 50.7651 50.7641C51.5321 50.7641 52.1901 51.4221 52.1901 52.1901C52.1901 52.8471 51.5321 53.5051 50.7651 53.5051Z" fill="#FFBC31"/>
<path d="M47.366 9.64844C49.997 9.64844 52.19 7.45544 52.19 4.82344C52.19 2.19244 49.997 -0.000562668 47.366 -0.000562668C44.734 -0.000562668 42.542 2.19244 42.542 4.82344C42.542 7.45544 44.734 9.64844 47.366 9.64844ZM47.366 2.85044C48.462 2.85044 49.449 3.72744 49.449 4.93444C49.449 6.03044 48.572 7.01744 47.366 7.01744C46.269 7.01744 45.283 6.13944 45.283 4.93444C45.283 3.72744 46.269 2.85044 47.366 2.85044Z" fill="#FFBC31"/>
</svg>
