<svg width="78" height="37" viewBox="0 0 78 37" fill="none" xmlns="http://www.w3.org/2000/svg">
<path d="M46.1465 17.8418H50.8835V15.77H46.1465V17.8418Z" fill="#1C80C6"/>
<path d="M65.2274 29.921C65.2274 26.178 62.1824 23.133 58.4394 23.133C54.6964 23.133 51.6514 26.178 51.6514 29.921C51.6514 33.664 54.6964 36.709 58.4394 36.709C62.1824 36.709 65.2274 33.664 65.2274 29.921ZM53.7234 29.921C53.7234 27.321 55.8394 25.205 58.4394 25.205C61.0394 25.205 63.1554 27.321 63.1554 29.921C63.1554 32.521 61.0394 34.637 58.4394 34.637C55.8394 34.637 53.7234 32.521 53.7234 29.921Z" fill="#1C80C6"/>
<path d="M60.8913 29.921C60.8913 28.567 59.7933 27.469 58.4393 27.469C57.0843 27.469 55.9863 28.567 55.9863 29.921C55.9863 31.275 57.0843 32.373 58.4393 32.373C59.7933 32.373 60.8913 31.275 60.8913 29.921Z" fill="#FFBC31"/>
<path d="M55.248 0.933453L38.394 0.955452V14.1435H35.537V12.2655H36.425V10.1925H35.537V6.71345H36.425V4.64145H35.537V2.51945H33.465V4.64145H4.746V2.51945H2.673V4.64145H2.007V6.71345H2.673V10.1925H2.007V12.2655H2.673V14.1435H0V30.9395H9.995L10.025 29.9335C10.089 27.8335 10.957 25.8665 12.47 24.3945C13.986 22.9195 15.982 22.1075 18.092 22.1075C20.201 22.1075 22.197 22.9195 23.713 24.3945C25.226 25.8665 26.094 27.8335 26.158 29.9335L26.188 30.9395H50.364L50.366 29.9045C50.375 25.4625 53.997 21.8495 58.439 21.8495C62.881 21.8495 66.502 25.4625 66.511 29.9045L66.513 30.9395H77.077V15.7955L62.715 11.8065L55.248 0.933453ZM4.746 6.71345H33.465V10.1925H4.746V6.71345ZM4.746 12.2655H33.465V14.1445H4.746V12.2655ZM8.034 28.8665H2.073V27.2905H8.368C8.216 27.8045 8.103 28.3305 8.034 28.8665ZM48.348 28.8665H28.149C28.08 28.3305 27.967 27.8045 27.815 27.2905H48.643C48.505 27.8025 48.404 28.3275 48.348 28.8665ZM75.004 28.8665H68.529C68.473 28.3275 68.372 27.8025 68.234 27.2905H75.004V28.8665ZM75.004 25.2185H67.423C65.724 21.9865 62.333 19.7765 58.439 19.7765C54.545 19.7765 51.154 21.9865 49.454 25.2185H26.938C26.464 24.3775 25.868 23.5995 25.158 22.9085C23.253 21.0555 20.744 20.0345 18.092 20.0345C15.44 20.0345 12.93 21.0555 11.025 22.9085C10.315 23.5995 9.719 24.3775 9.245 25.2185H2.073V16.2165H40.466V3.02445L54.158 3.00745L61.433 13.6005L75.004 17.3705V25.2185Z" fill="#1C80C6"/>
<path d="M18.0917 36.9707C21.8347 36.9707 24.8797 33.9257 24.8797 30.1827C24.8797 26.4397 21.8347 23.3947 18.0917 23.3947C14.3487 23.3947 11.3037 26.4397 11.3037 30.1827C11.3037 33.9257 14.3487 36.9707 18.0917 36.9707ZM18.0917 25.4667C20.6917 25.4667 22.8077 27.5827 22.8077 30.1827C22.8077 32.7827 20.6917 34.8977 18.0917 34.8977C15.4917 34.8977 13.3757 32.7827 13.3757 30.1827C13.3757 27.5827 15.4917 25.4667 18.0917 25.4667Z" fill="#1C80C6"/>
<path d="M18.0916 32.6348C19.4456 32.6348 20.5436 31.5368 20.5436 30.1828C20.5436 28.8278 19.4456 27.7308 18.0916 27.7308C16.7376 27.7308 15.6396 28.8278 15.6396 30.1828C15.6396 31.5368 16.7376 32.6348 18.0916 32.6348Z" fill="#FFBC31"/>
<path d="M42.7871 5.34408V12.7051H58.0021L52.9381 5.33108L42.7871 5.34408Z" fill="#FFBC31"/>
</svg>
