<svg width="68" height="53" viewBox="0 0 68 53" fill="none" xmlns="http://www.w3.org/2000/svg">
<g filter="url(#filter0_d_3_4587)">
<path d="M47.4692 23.5195H50.5892V21.2795H47.4692V23.5195Z" fill="white"/>
<path d="M27.2207 21.2937H15.3727C15.3727 19.7447 14.1347 18.5827 12.6647 18.5827V6.04269C14.1347 6.04269 15.3727 4.87869 15.3727 3.33169H27.4527V1.31769H10.5747V23.3047H26.8307L27.2207 21.2937Z" fill="white"/>
<path d="M40.769 3.33169H52.925C52.925 4.87869 54.087 6.04269 55.56 6.04269V18.5827C54.087 18.5827 52.925 19.7447 52.925 21.2937H40.769V23.3047H57.649V1.31769H40.769V3.33169Z" fill="white"/>
<path d="M19.168 12.312C19.168 14.014 20.561 15.332 22.188 15.332C23.892 15.332 25.207 14.014 25.207 12.312C25.207 10.686 23.892 9.29403 22.188 9.29403C20.561 9.29403 19.168 10.686 19.168 12.312Z" fill="white"/>
<path d="M49.1321 12.312C49.1321 10.686 47.7401 9.29403 46.0351 9.29403C44.4101 9.29403 43.0151 10.686 43.0151 12.312C43.0151 14.014 44.4101 15.332 46.0351 15.332C47.7401 15.332 49.1321 14.014 49.1321 12.312Z" fill="white"/>
<path d="M28.6133 0.851532H39.6873V23.7695H34.3423H28.6133V15.9495V0.851532Z" fill="white"/>
<path d="M63.068 29.887C62.682 28.878 61.055 28.261 59.198 28.415C58.734 28.492 58.19 28.65 57.725 28.804C55.48 29.423 43.947 33.448 43.792 33.525L43.557 33.603L43.711 33.757C45.03 34.843 45.647 36.003 45.339 36.931C44.951 38.404 43.093 39.255 39.919 39.487C37.209 39.719 33.724 39.487 29.621 38.713C30.085 38.713 30.627 38.713 31.091 38.791C34.033 38.791 36.82 38.791 38.991 38.636C42.319 38.327 43.866 37.553 44.101 36.313C44.175 35.462 43.711 34.764 42.551 34.222C41.237 33.603 38.681 33.293 36.124 32.829C34.42 32.597 32.795 32.365 31.71 32.056C27.685 30.971 23.503 29.965 18.781 30.274C18.008 30.428 17.232 30.506 16.536 30.661C12.82 31.279 9.259 32.133 5.464 33.216L5 33.293L10.574 41.269C11.58 41.036 12.588 40.881 13.593 40.804C14.909 40.647 16.149 40.728 17.309 40.881C18.936 41.114 22.729 41.887 26.447 42.661C30.24 43.512 33.878 44.211 35.271 44.366C36.124 44.521 36.82 44.521 37.673 44.442C39.454 44.288 41.391 43.282 43.247 42.352C43.792 41.965 44.41 41.656 44.875 41.346L61.444 32.443C63.301 31.357 63.301 30.351 63.068 29.887Z" stroke="white" stroke-miterlimit="10"/>
</g>
<defs>
<filter id="filter0_d_3_4587" x="0.135986" y="0.851562" width="67.5381" height="52.1426" filterUnits="userSpaceOnUse" color-interpolation-filters="sRGB">
<feFlood flood-opacity="0" result="BackgroundImageFix"/>
<feColorMatrix in="SourceAlpha" type="matrix" values="0 0 0 0 0 0 0 0 0 0 0 0 0 0 0 0 0 0 127 0" result="hardAlpha"/>
<feOffset dy="4"/>
<feGaussianBlur stdDeviation="2"/>
<feComposite in2="hardAlpha" operator="out"/>
<feColorMatrix type="matrix" values="0 0 0 0 0 0 0 0 0 0 0 0 0 0 0 0 0 0 0.25 0"/>
<feBlend mode="normal" in2="BackgroundImageFix" result="effect1_dropShadow_3_4587"/>
<feBlend mode="normal" in="SourceGraphic" in2="effect1_dropShadow_3_4587" result="shape"/>
</filter>
</defs>
</svg>
