<svg width="41" height="43" viewBox="0 0 41 43" fill="none" xmlns="http://www.w3.org/2000/svg">
<path d="M21.047 19.4349V20.4709C21.047 21.0429 22.78 22.5069 24.917 23.7409C28.788 25.9739 32.707 23.6849 32.707 28.6979C32.707 31.4669 30.021 33.7109 26.707 33.7109H17.015H16.91H1C1 23.3579 4.92 25.9739 12.66 21.5069V19.7619C11.35 18.7819 11.024 17.0379 10.479 15.1849C10.262 15.1849 10.152 14.8589 10.152 14.5329V14.3149C9.935 14.0969 9.935 13.8789 9.717 13.4439C9.161 12.6749 9.064 11.6979 9.499 11.2619C9.935 10.9359 9.935 10.9359 10.152 11.2619C9.609 8.32094 8.847 4.39794 12.983 3.19894C17.744 0.672936 22.575 1.89294 23.772 5.92394C24.208 7.55794 24.208 7.55794 23.555 11.2619C23.638 11.0329 23.881 10.9359 24.099 11.0449C24.196 11.8229 24.099 12.8969 23.881 13.4439C23.772 13.8789 23.664 14.2059 23.555 14.4229V14.5329C23.555 14.8589 23.337 15.1849 23.119 15.1849C22.792 16.8209 22.357 18.5639 21.047 19.4349Z" stroke="#1C80C6" stroke-width="2"/>
<path d="M37.566 23.8161C38.018 24.3691 38.731 24.8001 39.7 25.0461L40.348 25.2311C40.736 25.2921 40.995 25.6001 40.995 25.9701V26.5861C40.995 26.6471 41.059 27.8161 40.736 29.6011C40.607 30.4621 40.348 31.5101 39.958 32.6171C39.377 34.1561 38.472 36.0041 37.049 37.7871C35.563 39.5111 33.557 41.2361 30.777 42.6521L30.387 42.8371C30.194 42.8981 29.871 42.8981 29.612 42.8371L29.289 42.6521H29.224C26.831 41.4201 25.02 40.0051 23.661 38.4651C21.787 36.4961 20.751 34.3411 20.105 32.6171C19.718 31.5101 19.459 30.5241 19.265 29.6011C18.942 27.8161 19.005 26.6471 19.005 26.5861V25.9701C19.005 25.6611 19.265 25.2921 19.718 25.2311L20.3 25.0461C21.335 24.8001 22.046 24.3691 22.498 23.8161C23.338 22.8301 23.338 21.6621 23.338 21.5981V20.9831C23.338 20.6141 23.598 20.2451 24.051 20.1831L24.697 20.0611C24.761 19.9981 25.536 19.8141 26.573 19.6911C27.607 19.5071 28.965 19.3201 30 19.3201C31.098 19.3201 32.392 19.5071 33.429 19.6911C34.397 19.8141 35.173 19.9981 35.302 19.9981L35.366 20.0611L35.95 20.1831C36.402 20.2451 36.661 20.5521 36.661 20.9831V21.5981C36.661 21.7211 36.726 22.8921 37.566 23.8161Z" fill="#FFBC31"/>
<path d="M28.7453 35.8867V32.3237H24.9873V29.8917H28.7453V26.3307H31.2553V29.8917H35.0753V32.3237H31.2553V35.8867H28.7453Z" fill="#1C80C6"/>
<path d="M28.7453 35.8867V32.3237H24.9873V29.8917H28.7453V26.3307H31.2553V29.8917H35.0753V32.3237H31.2553V35.8867H28.7453Z" stroke="#1C80C6" stroke-miterlimit="10"/>
</svg>
