<svg width="52" height="59" viewBox="0 0 52 59" fill="none" xmlns="http://www.w3.org/2000/svg">
<path d="M24.7458 31.5638C24.9468 31.7658 25.3498 31.9668 25.6528 31.9668H30.4918C30.7948 31.9668 31.1978 31.8658 31.3998 31.5638C36.1388 26.6238 38.3558 25.0098 39.3648 21.8848C40.2718 19.1628 40.0698 15.2308 40.0698 7.2658C40.0698 6.4588 39.3648 5.9548 38.6588 6.0558C35.6348 6.5598 33.0128 6.3578 30.9958 5.6518C30.7948 5.4508 30.5938 5.4508 30.4918 5.4508H25.8538C25.7538 5.4508 25.5528 5.4508 25.4508 5.5518C23.4338 6.3578 20.7128 6.4588 17.6878 5.9548C16.8818 5.8538 16.2758 6.4588 16.2758 7.1648C16.2758 15.4318 16.0748 19.0618 16.9818 21.7838C17.7888 25.0098 20.0068 26.6238 24.7458 31.5638ZM18.5958 8.6768C21.4188 8.9798 23.9388 8.7778 25.9548 7.9718H30.1898C32.2058 8.6768 34.6258 8.8788 37.4488 8.6768C37.4488 15.4318 37.5498 18.9608 36.8448 21.1788C36.1388 23.5988 34.2228 24.9098 29.8878 29.4468H26.1568C21.7208 24.8088 19.9058 23.4978 19.1998 21.1788C18.4948 18.9608 18.5958 15.5328 18.5958 8.6768Z" fill="white"/>
<path d="M50.41 0.961594H8.972C8.266 0.961594 7.662 1.56559 7.662 2.27259V48.8516H5.141C2.218 48.8516 0 51.0696 0 53.8926C0 56.7156 2.318 58.9336 5.242 58.9336H43.958C48.293 58.8336 51.62 55.6076 51.62 51.3726V2.17059C51.72 1.46559 51.116 0.961594 50.41 0.961594ZM2.52 53.7926C2.52 52.3806 3.629 51.2716 5.141 51.2716H39.623C38.614 52.8846 38.614 54.8006 39.623 56.3126H5.343C3.831 56.4136 2.52 55.2036 2.52 53.7926ZM49.2 51.2716C49.2 54.0946 46.982 56.2116 43.958 56.3126C42.546 56.2116 41.437 55.1026 41.437 53.7926C41.437 52.4816 42.748 51.3726 44.159 51.2716C44.865 51.2716 45.369 50.6666 45.369 49.9606C45.369 49.2546 44.764 48.7516 44.159 48.7516H10.182V3.38059H49.2V51.2716Z" fill="white"/>
<path d="M26.2072 24.3466C26.7112 24.8506 27.5182 24.8506 28.0212 24.3466L34.6762 17.6926C35.8862 16.4826 35.8862 14.4666 34.6762 13.2566C33.4662 12.0466 31.4492 12.0466 30.2392 13.2566L27.1142 16.3816L26.7112 15.8776C25.5012 14.6676 23.4842 14.6676 22.2742 15.8776C21.0642 17.0876 21.0642 19.1036 22.2742 20.3136L26.2072 24.3466ZM23.9882 17.6926C24.1902 17.4916 24.5942 17.4916 24.8962 17.6926L26.2072 19.0036C26.7112 19.5076 27.5182 19.5076 28.0212 19.0036L32.0552 14.9706C32.2562 14.7686 32.6592 14.7686 32.9622 14.9706C33.1632 15.1716 33.1632 15.5756 32.9622 15.8776L27.2152 21.6246L24.0902 18.4986C23.7872 18.2976 23.7872 17.8946 23.9882 17.6926Z" fill="white"/>
<path d="M15.1226 38.7715H44.1586C44.8646 38.7715 45.3686 38.1665 45.3686 37.4605C45.3686 36.7545 44.7646 36.1495 44.1586 36.1495H15.1226C14.4166 36.1495 13.9126 36.7545 13.9126 37.4605C13.9126 38.1665 14.4166 38.7715 15.1226 38.7715Z" fill="white"/>
<path d="M40.3277 39.981H18.9537C18.2477 39.981 17.7437 40.585 17.7437 41.292C17.7437 41.997 18.3487 42.502 18.9537 42.502H40.4287C41.1347 42.502 41.7397 41.897 41.7397 41.292C41.6387 40.585 41.0337 39.981 40.3277 39.981Z" fill="white"/>
</svg>
