<svg width="71" height="31" viewBox="0 0 71 31" fill="none" xmlns="http://www.w3.org/2000/svg">
<path d="M22.9701 24.3658C22.9701 21.0938 20.3081 18.4318 17.0361 18.4318C13.7631 18.4318 11.1011 21.0938 11.1011 24.3658C11.1011 27.6378 13.7631 30.3008 17.0361 30.3008C20.3081 30.3008 22.9701 27.6378 22.9701 24.3658ZM12.8881 24.3658C12.8881 22.0788 14.7481 20.2178 17.0361 20.2178C19.3231 20.2178 21.1831 22.0788 21.1831 24.3658C21.1831 26.6538 19.3231 28.5138 17.0361 28.5138C14.7481 28.5138 12.8881 26.6538 12.8881 24.3658Z" fill="#FFBC31"/>
<path d="M19.6268 24.366C19.6268 22.935 18.4668 21.775 17.0358 21.775C15.6048 21.775 14.4448 22.935 14.4448 24.366C14.4448 25.798 15.6048 26.958 17.0358 26.958C18.4668 26.958 19.6268 25.798 19.6268 24.366Z" fill="#1C80C6"/>
<path d="M26.3467 16.3736C26.3467 16.6596 26.5787 16.8906 26.8637 16.8906H29.1047C29.3907 16.8906 29.6217 16.6596 29.6217 16.3736C29.6217 16.0876 29.3907 15.8566 29.1047 15.8566H26.8637C26.5787 15.8566 26.3467 16.0876 26.3467 16.3736Z" fill="#FFBC31"/>
<path d="M34.6948 16.3736C34.6948 16.6596 34.9268 16.8906 35.2118 16.8906H37.4528C37.7388 16.8906 37.9698 16.6596 37.9698 16.3736C37.9698 16.0876 37.7388 15.8566 37.4528 15.8566H35.2118C34.9268 15.8566 34.6948 16.0876 34.6948 16.3736Z" fill="#FFBC31"/>
<path d="M67.0493 10.2477C66.9063 10.1187 66.7253 10.0397 66.5333 10.0207L52.4593 8.69466C50.8103 8.53866 48.5443 7.44166 47.3993 6.24466L42.5883 1.21266C42.4193 1.03666 42.1863 0.936657 41.9423 0.936657H22.8773C22.6753 0.936657 22.4803 1.00466 22.3223 1.12966L14.4253 7.39566C13.1283 8.42566 10.7323 9.26066 9.07533 9.26066H3.63033C3.30933 9.26066 3.01333 9.43266 2.85433 9.71066L0.117332 14.5027C0.00133184 14.7077 -0.0306661 14.9497 0.0303339 15.1767L1.94633 22.3647C2.05033 22.7567 2.40433 23.0287 2.80933 23.0287H9.42233C9.78333 23.0547 10.1673 22.7677 10.2793 22.3867C11.1543 19.4067 13.9323 17.3247 17.0353 17.3247C20.9183 17.3247 24.0773 20.4837 24.0773 24.3667C24.0813 24.5277 24.0643 24.8607 24.0373 25.1097C23.9923 25.3037 24.0923 25.6137 24.2623 25.8017C24.4313 25.9897 24.6733 26.0977 24.9263 26.0977H47.7373H47.7403C48.2333 26.0977 48.6333 25.6977 48.6333 25.2037C48.6343 25.1677 48.6283 25.0967 48.6193 25.0457C48.5973 24.8177 48.5863 24.5897 48.5863 24.3667C48.5863 20.4837 51.7453 17.3247 55.6283 17.3247C58.5013 17.1387 61.5313 19.4217 62.3953 22.4237C62.5053 22.8067 62.8553 23.0707 63.2533 23.0707H67.6053C68.0103 23.0707 68.3643 22.7977 68.4683 22.4067L70.6583 14.1667C70.7443 13.8437 70.6423 13.4997 70.3943 13.2747L67.0493 10.2477ZM3.47233 12.2307C3.84633 11.5767 5.49233 11.0467 7.14833 11.0467H12.3873C12.5883 11.0467 12.7843 10.9787 12.9423 10.8537L18.4883 6.45266C21.0843 4.39366 25.8753 2.72366 29.1883 2.72366H38.5603C40.2173 2.72366 42.4883 3.69366 43.6333 4.89165L48.4113 9.88866C48.5603 10.0437 48.7593 10.1397 48.9733 10.1607L66.0703 11.7717L66.9783 12.5937C67.4793 13.0467 63.0083 13.4147 56.9913 13.4147H2.79633L3.47233 12.2307ZM67.1753 20.3177C67.0333 20.8517 66.4703 21.2837 65.9183 21.2837H64.8983C64.3463 21.2837 63.7413 20.8647 63.5483 20.3477C62.6213 17.8687 59.3123 15.5377 55.6283 15.5377C50.7783 15.5377 46.8303 19.4687 46.7993 24.3107H26.8633C26.3113 24.3107 25.8613 23.8627 25.8573 23.3107C25.8333 19.4687 21.8853 15.5377 17.0353 15.5377C13.3723 15.5377 10.0693 17.8517 9.13633 20.3077C8.94033 20.8237 8.33333 21.2417 7.78033 21.2417H3.49533L2.69033 18.2217C2.24633 16.5537 6.76333 15.2017 12.7803 15.2017H66.5343C67.6393 15.2017 68.3043 16.0667 68.0213 17.1347L67.1753 20.3177Z" fill="#FFBC31"/>
<path d="M61.5624 24.3658C61.5624 21.0938 58.9004 18.4318 55.6274 18.4318C52.3554 18.4318 49.6934 21.0938 49.6934 24.3658C49.6934 27.6378 52.3554 30.3008 55.6274 30.3008C58.9004 30.3008 61.5624 27.6378 61.5624 24.3658ZM51.4804 24.3658C51.4804 22.0788 53.3404 20.2178 55.6274 20.2178C57.9154 20.2178 59.7754 22.0788 59.7754 24.3658C59.7754 26.6538 57.9154 28.5138 55.6274 28.5138C53.3404 28.5138 51.4804 26.6538 51.4804 24.3658Z" fill="#FFBC31"/>
<path d="M58.2191 24.366C58.2191 22.935 57.0591 21.775 55.6281 21.775C54.1971 21.775 53.0371 22.935 53.0371 24.366C53.0371 25.798 54.1971 26.958 55.6281 26.958C57.0591 26.958 58.2191 25.798 58.2191 24.366Z" fill="#1C80C6"/>
<path d="M20.7991 6.98988C19.0941 8.51688 19.9501 9.75488 22.7121 9.75488H30.4251C30.9781 9.75488 31.4251 9.30688 31.4251 8.75488V5.22488C31.4251 4.67288 30.9781 4.22488 30.4251 4.22488H26.8861C25.2291 4.22488 22.8861 5.12088 21.6511 6.22588L20.7991 6.98988Z" fill="#1C80C6"/>
<path d="M20.7991 6.98988C19.0941 8.51688 19.9501 9.75488 22.7121 9.75488H30.4251C30.9781 9.75488 31.4251 9.30688 31.4251 8.75488V5.22488C31.4251 4.67288 30.9781 4.22488 30.4251 4.22488H26.8861C25.2291 4.22488 22.8861 5.12088 21.6511 6.22588L20.7991 6.98988Z" stroke="#1C80C6" stroke-linecap="square"/>
<path d="M43.5176 6.98988C45.2226 8.51688 44.3666 9.75488 41.6046 9.75488H33.8916C33.3386 9.75488 32.8916 9.30688 32.8916 8.75488V5.22488C32.8916 4.67288 33.3386 4.22488 33.8916 4.22488H37.4306C39.0876 4.22488 41.4306 5.12088 42.6656 6.22588L43.5176 6.98988Z" fill="#1C80C6"/>
<path d="M43.5176 6.98988C45.2226 8.51688 44.3666 9.75488 41.6046 9.75488H33.8916C33.3386 9.75488 32.8916 9.30688 32.8916 8.75488V5.22488C32.8916 4.67288 33.3386 4.22488 33.8916 4.22488H37.4306C39.0876 4.22488 41.4306 5.12088 42.6656 6.22588L43.5176 6.98988Z" stroke="#1C80C6" stroke-linecap="square"/>
</svg>
