<svg width="54" height="52" viewBox="0 0 54 52" fill="none" xmlns="http://www.w3.org/2000/svg">
<path d="M52.5777 9.25H47.4737C47.2767 9.25 46.9497 9.054 46.8187 8.857L41.9757 1.919C41.8447 1.658 41.8447 1.461 42.1067 1.461H47.2117C47.4077 1.461 47.7347 1.658 47.8657 1.919L52.7087 8.857C52.8397 9.054 52.7737 9.25 52.5777 9.25Z" fill="#FFBC31"/>
<path d="M52.5777 9.25H47.4737C47.2767 9.25 46.9497 9.054 46.8187 8.857L41.9757 1.919C41.8447 1.658 41.8447 1.461 42.1067 1.461H47.2117C47.4077 1.461 47.7347 1.658 47.8657 1.919L52.7087 8.857C52.8397 9.054 52.7737 9.25 52.5777 9.25Z" stroke="#1C80C6" stroke-width="1.826"/>
<path d="M34.3835 26.1396V26.0736V25.4186H36.2155C35.2995 24.5676 34.2535 23.6516 33.3355 22.8006V17.9566C33.3355 17.6296 33.0735 17.3676 32.7475 17.3676H30.5865C30.2585 17.3676 29.9985 17.6296 29.9985 17.9566V19.7896C29.1485 19.0046 28.2955 18.2196 27.4455 17.4326C27.1185 17.1066 26.9205 17.1066 26.5955 17.4326C23.7795 19.9206 20.9645 22.4076 18.1505 24.8946C17.9545 25.0256 17.7585 25.2226 17.5625 25.4186H19.0015V26.0736V26.4006V34.0576C19.0015 34.4516 19.0685 34.5156 19.4605 34.5156H23.9105C24.2365 34.5156 24.3675 34.3856 24.3675 34.0576C24.3045 32.8146 24.3675 31.5066 24.3675 30.1976C24.3675 29.4766 24.7625 29.0836 25.4815 29.0186H27.5105C28.7535 29.0186 29.0805 29.4106 29.0805 30.6556V34.1236C29.0805 34.3856 29.1485 34.5156 29.4745 34.5156H33.8605C34.2535 34.5156 34.3835 34.4516 34.3835 34.1896V32.4876V26.1396Z" stroke="#1C80C6" stroke-width="1.826" stroke-miterlimit="10"/>
<path d="M5.25697 11.0175C5.51797 11.7365 6.62997 12.1295 7.87497 11.9985C8.20197 11.9985 8.59497 11.9335 8.92097 11.8025C10.493 11.3445 18.412 8.59647 18.477 8.53047L18.673 8.46447L18.542 8.39847C17.627 7.61247 17.169 6.82847 17.431 6.17447C17.693 5.19147 19.001 4.60247 21.095 4.47247C22.994 4.27547 25.416 4.47247 28.164 4.99547C27.903 4.99547 27.51 4.99547 27.183 4.92947C25.154 4.92947 23.321 4.92947 21.815 5.06047C19.523 5.25647 18.412 5.71547 18.281 6.63147C18.216 7.22047 18.542 7.67847 19.33 8.00647C20.18 8.46447 21.945 8.72647 23.713 8.98847C24.892 9.18447 26.004 9.31547 26.789 9.57647C29.54 10.2305 32.354 11.0175 35.691 10.7555C36.215 10.6895 36.737 10.6245 37.197 10.4935C39.75 10.1005 42.171 9.51147 44.789 8.72647H45.116L41.257 3.22847C40.6 3.35847 39.88 3.48947 39.227 3.55547C38.309 3.62147 37.459 3.62147 36.606 3.48947C35.56 3.29347 32.943 2.76847 30.389 2.24647C27.771 1.65747 25.285 1.20047 24.304 1.06847C23.779 1.00247 23.255 1.00247 22.732 1.00247C21.421 1.13447 20.114 1.85347 18.87 2.44247C18.477 2.76847 18.085 2.90047 17.693 3.16347L6.36797 9.24947C5.12697 10.0345 5.12697 10.6895 5.25697 11.0175Z" stroke="#1C80C6" stroke-width="1.826" stroke-miterlimit="10"/>
<path d="M48.0621 40.6677C47.8001 40.0127 46.6882 39.6187 45.3782 39.6847C45.0522 39.7507 44.7251 39.8157 44.3971 39.8817C42.8251 40.4057 34.9071 43.1547 34.7761 43.1547L34.6451 43.2207L34.7761 43.3507C35.6261 44.0697 36.0841 44.9207 35.8871 45.5767C35.6261 46.4917 34.3161 47.0817 32.1581 47.2777C30.2591 47.4087 27.9031 47.2777 25.0891 46.7537H26.0701C28.0991 46.7537 29.9981 46.7537 31.5021 46.6887C33.7931 46.4917 34.8411 45.9687 35.0381 45.1177C35.0381 44.5277 34.7761 44.0697 33.9241 43.6777C33.0731 43.2207 31.3081 43.0237 29.5401 42.6967C28.3601 42.5647 27.3141 42.3687 26.4641 42.1727C23.7131 41.4527 20.8991 40.7327 17.6271 40.9947C17.1031 41.0597 16.5791 41.1257 16.1221 41.1907C13.5681 41.6487 11.0821 42.2377 8.52815 42.9587L8.20215 43.0237L12.0651 48.5217C12.6531 48.3907 13.4371 48.2597 14.0921 48.1947C15.0101 48.0637 15.8591 48.1287 16.6461 48.2597C17.6931 48.3907 20.3761 48.9137 22.8631 49.4367C25.4811 50.0257 28.0341 50.4847 28.9491 50.6817C29.5401 50.7467 29.9981 50.7467 30.5861 50.6817C31.8311 50.6157 33.2042 49.8957 34.4492 49.2407C34.7762 48.9797 35.2341 48.7827 35.5611 48.5867L46.9501 42.4997C48.1921 41.7137 48.1921 41.0597 48.0621 40.6677Z" stroke="#1C80C6" stroke-width="1.826" stroke-miterlimit="10"/>
<path d="M1.19832 42.4362H6.30432C6.50032 42.4362 6.82632 42.5672 6.95932 42.8302L11.8033 49.7672C11.9973 49.9632 11.9343 50.1602 11.6703 50.1602H6.63032C6.36832 50.1602 6.04132 49.9632 5.91132 49.7672L1.06832 42.8302C0.93732 42.5672 1.00232 42.4362 1.19832 42.4362Z" fill="#FFBC31"/>
<path d="M1.19832 42.4362H6.30432C6.50032 42.4362 6.82632 42.5672 6.95932 42.8302L11.8033 49.7672C11.9973 49.9632 11.9343 50.1602 11.6703 50.1602H6.63032C6.36832 50.1602 6.04132 49.9632 5.91132 49.7672L1.06832 42.8302C0.93732 42.5672 1.00232 42.4362 1.19832 42.4362Z" stroke="#1C80C6" stroke-width="1.826"/>
</svg>
