<svg width="61" height="55" viewBox="0 0 61 55" fill="none" xmlns="http://www.w3.org/2000/svg">
<path d="M50.814 39.522C53.738 36.498 53.435 31.255 50.108 28.734C50.915 26.315 49.1 23.693 46.58 23.693C43.958 23.693 42.143 26.213 43.051 28.734C39.724 31.255 39.421 36.498 42.345 39.522C39.724 40.329 37.405 42.043 35.691 44.261C35.186 43.959 34.581 43.656 33.977 43.353C34.783 42.345 35.288 41.035 35.288 39.522C35.288 36.397 33.069 33.876 30.247 33.876C27.423 33.876 25.205 36.397 25.205 39.522C25.205 41.035 25.71 42.345 26.516 43.353C25.911 43.555 25.306 43.858 24.802 44.261C23.088 42.043 20.769 40.429 18.148 39.522C19.357 38.211 20.164 36.397 20.164 34.481C20.164 30.65 17.341 27.524 13.913 27.524C10.485 27.524 7.561 30.65 7.561 34.481C7.561 36.498 8.368 38.312 9.578 39.522C4.033 41.337 0 46.58 0 52.73C0 53.436 0.604999 54.04 1.21 54.04H59.182C59.888 54.04 60.493 53.436 60.493 52.73C60.392 46.58 56.359 41.337 50.814 39.522ZM46.58 26.315C47.285 26.315 47.89 26.919 47.789 27.726C46.983 27.525 46.075 27.525 45.269 27.726C45.168 26.919 45.773 26.315 46.58 26.315ZM42.748 34.481C42.748 32.566 43.756 31.053 45.168 30.347C47.689 29.239 50.31 31.457 50.31 34.481C50.31 36.901 48.596 38.918 46.478 38.918C44.462 38.918 42.748 36.901 42.748 34.481ZM27.625 39.522C27.625 37.808 28.734 36.397 30.145 36.397C31.557 36.397 32.666 37.808 32.666 39.522C32.666 41.236 31.557 42.648 30.145 42.648C28.734 42.648 27.625 41.236 27.625 39.522ZM9.981 34.481C9.981 32.061 11.695 30.045 13.812 30.045C15.93 30.045 17.543 32.061 17.543 34.481C17.543 36.901 15.829 38.918 13.812 38.918C11.695 38.918 9.981 36.901 9.981 34.481ZM13.812 41.438C17.341 41.438 20.668 43.051 22.786 45.874C21.374 47.386 20.467 49.302 20.164 51.52H2.52C3.126 45.874 7.965 41.438 13.812 41.438ZM22.685 51.52C23.289 47.992 26.415 45.269 30.145 45.269C33.876 45.269 37.001 47.992 37.606 51.52H22.685ZM40.127 51.52C39.825 49.403 38.917 47.386 37.505 45.874C39.623 43.051 42.95 41.438 46.478 41.438C52.326 41.438 57.166 45.874 57.771 51.52H40.127Z" fill="#1C80C6"/>
<path d="M12.502 19.8615C13.107 20.0635 13.813 19.7605 14.014 19.1555C14.619 17.7435 16.131 16.9375 17.644 17.2405C19.055 17.5435 20.064 18.8535 20.064 20.4665C20.064 21.1725 20.669 21.6765 21.374 21.6765C22.08 21.6765 22.685 21.0715 22.685 20.4665C22.685 20.0635 22.786 19.6605 22.886 19.2575C22.886 19.2575 22.886 19.1555 22.987 19.1555C23.491 18.0475 24.601 17.2405 25.81 17.2405C27.525 17.2405 28.936 18.7525 28.936 20.4665V20.5675V28.8355C28.936 29.5395 29.541 30.1455 30.247 30.1455C30.952 30.1455 31.557 29.5395 31.557 28.8355V20.2645C31.658 18.5505 33.069 17.2405 34.683 17.2405C35.993 17.2405 37.103 18.0475 37.506 19.1555C37.506 19.1555 37.506 19.2575 37.606 19.2575C37.707 19.6605 37.808 20.0635 37.808 20.4665C37.808 21.1725 38.413 21.6765 39.119 21.6765C39.825 21.6765 40.429 21.0715 40.429 20.4665C40.429 18.6515 41.841 17.2405 43.555 17.2405C44.866 17.2405 45.975 18.0475 46.479 19.2575C46.68 19.8615 47.386 20.1645 47.991 19.9625C48.596 19.7605 49 19.1555 48.898 18.5505C47.285 9.98051 40.631 3.02451 31.658 2.41951V1.20951C31.658 0.504507 31.053 0.000507355 30.347 0.000507355C29.642 0.000507355 29.037 0.604507 29.037 1.20951V2.41951C20.366 3.02451 13.409 9.67851 11.796 18.4505C11.494 19.0545 11.897 19.6605 12.502 19.8615ZM23.491 15.1235C24.5 9.98051 26.617 6.14951 28.936 5.14151V15.6275C27.222 14.5175 25.205 14.3165 23.491 15.1235ZM31.456 15.6275V5.04151C33.775 6.04851 35.893 9.88051 36.9 15.1235C35.086 14.3165 33.069 14.5175 31.456 15.6275ZM44.966 14.8205C43.152 14.2155 41.034 14.7195 39.522 16.0305C38.917 11.7965 37.606 8.26651 35.893 5.84751C39.925 7.46051 43.152 10.6865 44.966 14.8205ZM24.399 5.94851C22.382 8.77151 21.273 12.7035 20.769 16.1315C19.257 14.7195 17.24 14.3165 15.325 14.8205C17.14 10.6865 20.366 7.56151 24.399 5.94851Z" fill="#FFBC31"/>
<path d="M48.3945 7.36035C50.1085 7.36035 51.5205 5.94935 51.5205 4.23535C51.5205 2.52135 50.1085 1.10935 48.3945 1.10935C46.6805 1.10935 45.2695 2.52135 45.2695 4.23535C45.2695 5.94935 46.6805 7.36035 48.3945 7.36035ZM48.3945 3.63035C48.6965 3.63035 48.9995 3.93235 48.9995 4.23535C48.9995 4.53735 48.6965 4.83935 48.3945 4.83935C48.0915 4.83935 47.7895 4.53735 47.7895 4.23535C47.7895 3.93235 48.0915 3.63035 48.3945 3.63035Z" fill="#FFBC31"/>
<path d="M4.3348 27.5244C6.0488 27.5244 7.4598 26.1124 7.4598 24.3984C7.4598 22.6844 6.0488 21.2734 4.3348 21.2734C2.6208 21.2734 1.2088 22.6844 1.2088 24.3984C1.1088 26.1124 2.6208 27.5244 4.3348 27.5244ZM4.3348 23.7944C4.6368 23.7944 4.9388 24.0954 4.9388 24.3984C4.9388 24.7014 4.6368 25.0034 4.3348 25.0034C4.0318 25.0034 3.7298 24.7014 3.7298 24.3984C3.6288 24.0954 3.9318 23.7944 4.3348 23.7944Z" fill="#FFBC31"/>
<path d="M9.98139 9.87988C12.0984 9.87988 13.8124 8.16588 13.8124 6.14988C13.8124 4.03188 12.0984 2.31788 9.98139 2.31788C7.86339 2.31788 6.15039 4.03188 6.15039 6.14988C6.15039 8.16588 7.86339 9.87988 9.98139 9.87988ZM9.98139 4.83888C10.6874 4.83888 11.2924 5.44388 11.2924 6.14988C11.2924 6.85588 10.6874 7.45988 9.98139 7.45988C9.27539 7.45988 8.67039 6.85588 8.67039 6.14988C8.67039 5.44388 9.27539 4.83888 9.98139 4.83888Z" fill="#FFBC31"/>
</svg>
