<svg width="74" height="45" viewBox="0 0 74 45" fill="none" xmlns="http://www.w3.org/2000/svg">
<path d="M72.7935 27.0253H61.2965C61.0455 27.0253 60.8035 27.1163 60.6155 27.2813L59.0365 28.6663H57.8915V21.8393C57.8915 21.2683 57.4285 20.8053 56.8575 20.8053H49.9755V17.9843C49.9755 17.4143 49.5125 16.9513 48.9415 16.9513H42.4895V15.0023C42.4895 14.7273 42.3805 14.4643 42.1865 14.2703C41.9925 14.0773 41.7305 13.9683 41.4565 13.9683H41.4545L34.0875 13.9763V6.63734C34.0875 6.06734 33.6255 5.60434 33.0545 5.60434H28.4125C27.8415 5.60434 27.3785 6.06734 27.3785 6.63734V13.9833L24.3245 13.9863V1.03634C24.3245 0.465343 23.8625 0.00234222 23.2915 0.00234222H17.6895C17.1185 0.00234222 16.6555 0.465343 16.6555 1.03634V13.9953L9.94549 14.0023C9.45849 14.0033 9.03848 14.3433 8.93548 14.8193L5.95749 28.7153L1.03049 28.7293C0.738486 28.7303 0.460488 28.8543 0.264488 29.0713C0.0694875 29.2893 -0.0245151 29.5793 0.00548485 29.8693C0.00748485 29.8863 0.0494841 30.2903 0.173484 30.9613C0.423484 32.3173 1.05849 35.0253 2.49949 37.9263C2.56349 38.0553 2.63049 38.1843 2.69749 38.3143C3.99549 40.8153 5.63949 42.9363 7.58349 44.6193C7.77149 44.7813 8.01149 44.8713 8.25949 44.8713H63.1115C63.3035 44.8913 63.4995 44.9023 63.6965 44.9023C65.9215 44.9023 67.7195 43.5873 67.7945 43.5323C67.9525 43.4153 68.0735 43.2553 68.1435 43.0713L73.7585 28.4293C73.8805 28.1113 73.8385 27.7543 73.6455 27.4733C73.4525 27.1923 73.1335 27.0253 72.7935 27.0253ZM29.4465 7.67134H32.0205V13.6063H29.4465V7.67134ZM18.7235 2.06934H22.2575V13.9263H18.7235V2.06934ZM10.7825 16.0693L40.4225 16.0373V17.9843C40.4225 18.5553 40.8855 19.0183 41.4565 19.0183H47.9085V21.8393C47.9085 22.4103 48.3705 22.8733 48.9415 22.8733H55.8245V28.4903H8.12049L10.7825 16.0693ZM66.3325 42.0203C65.8875 42.2913 64.8475 42.8353 63.6965 42.8353C63.5585 42.8353 63.4215 42.8263 63.2895 42.8113C63.2495 42.8063 63.2085 42.8033 63.1685 42.8033H8.65149C7.02949 41.3343 5.64449 39.5053 4.53249 37.3613C4.47049 37.2433 4.41049 37.1263 4.35149 37.0073C3.85049 35.9993 3.45648 35.0173 3.14548 34.1163H69.3635L66.3325 42.0203ZM69.8165 32.9343H2.76948C2.51948 32.0783 2.35249 31.3413 2.24549 30.7943L23.8665 30.7333H59.4255C59.6765 30.7333 59.9185 30.6423 60.1065 30.4773L61.6855 29.0923H71.2895L69.8165 32.9343Z" fill="#057AC2"/>
<path d="M12.2207 18.8828H14.9877V16.9629H12.2207V18.8828Z" fill="#FFBF0F"/>
<path d="M16.9917 18.8828H19.7587V16.9629H16.9917V18.8828Z" fill="#FFBF0F"/>
<path d="M21.7627 18.8828H24.5297V16.9629H21.7627V18.8828Z" fill="#FFBF0F"/>
<path d="M26.5327 18.8828H29.2997V16.9629H26.5327V18.8828Z" fill="#FFBF0F"/>
<path d="M31.3037 18.8828H34.0707V16.9629H31.3037V18.8828Z" fill="#FFBF0F"/>
<path d="M36.0737 18.8828H38.8407V16.9629H36.0737V18.8828Z" fill="#FFBF0F"/>
<path d="M12.2207 22.6719H14.9877V20.752H12.2207V22.6719Z" fill="#FFBF0F"/>
<path d="M16.9917 22.6719H19.7587V20.752H16.9917V22.6719Z" fill="#FFBF0F"/>
<path d="M21.7627 22.6719H24.5297V20.752H21.7627V22.6719Z" fill="#FFBF0F"/>
<path d="M26.5327 22.6719H29.2997V20.752H26.5327V22.6719Z" fill="#FFBF0F"/>
<path d="M31.3037 22.6719H34.0707V20.752H31.3037V22.6719Z" fill="#FFBF0F"/>
<path d="M36.0737 22.6719H38.8407V20.752H36.0737V22.6719Z" fill="#FFBF0F"/>
<path d="M41.0889 22.6719H43.8558V20.752H41.0889V22.6719Z" fill="#FFBF0F"/>
<path d="M45.8608 27.0195H48.6278V25.0996H45.8608V27.0195Z" fill="#FFBF0F"/>
<path d="M50.6626 27.0195H53.4296V25.0996H50.6626V27.0195Z" fill="#FFBF0F"/>
<path d="M12.2207 26.9121H14.9877V24.9922H12.2207V26.9121Z" fill="#FFBF0F"/>
<path d="M16.9917 26.9121H19.7587V24.9922H16.9917V26.9121Z" fill="#FFBF0F"/>
<path d="M21.7627 26.9121H24.5297V24.9922H21.7627V26.9121Z" fill="#FFBF0F"/>
<path d="M26.5327 26.9121H29.2997V24.9922H26.5327V26.9121Z" fill="#FFBF0F"/>
<path d="M31.3037 26.9121H34.0707V24.9922H31.3037V26.9121Z" fill="#FFBF0F"/>
<path d="M36.0737 26.9121H38.8407V24.9922H36.0737V26.9121Z" fill="#FFBF0F"/>
<path d="M41.0889 26.9668H43.8558V25.0459H41.0889V26.9668Z" fill="#FFBF0F"/>
<path d="M12.7812 39.2344C13.9302 39.2344 14.8622 38.3034 14.8622 37.1534C14.8622 36.0054 13.9302 35.0734 12.7812 35.0734C11.6322 35.0734 10.7002 36.0054 10.7002 37.1534C10.7002 38.3034 11.6322 39.2344 12.7812 39.2344Z" fill="#FFBF0F"/>
<path d="M34.374 39.2344C35.523 39.2344 36.455 38.3034 36.455 37.1534C36.455 36.0054 35.523 35.0734 34.374 35.0734C33.225 35.0734 32.293 36.0054 32.293 37.1534C32.293 38.3034 33.225 39.2344 34.374 39.2344Z" fill="#FFBF0F"/>
<path d="M56.9521 39.2344C58.1011 39.2344 59.0331 38.3034 59.0331 37.1534C59.0331 36.0054 58.1011 35.0734 56.9521 35.0734C55.8031 35.0734 54.8711 36.0054 54.8711 37.1534C54.8711 38.3034 55.8031 39.2344 56.9521 39.2344Z" fill="#FFBF0F"/>
</svg>
