<svg width="56" height="56" viewBox="0 0 56 56" fill="none" xmlns="http://www.w3.org/2000/svg">
<path d="M39.1714 24.7701V27.4641C49.2344 33.2711 54.3294 30.2951 54.3294 43.3301H33.9294H33.7934H13.1104C13.1104 29.8701 18.2054 33.2711 28.2684 27.4641V25.1951C26.5654 23.9211 26.1414 21.6541 25.4334 19.2461C25.1504 19.2461 25.0084 18.8211 25.0084 18.3971V18.1141C24.7264 17.8301 24.7264 17.5471 24.4424 16.9811C24.3014 16.2711 23.5934 14.7121 24.1594 14.1451C24.7264 13.7221 25.0084 14.1451 25.0084 14.1451C24.3014 10.3231 23.3104 5.22208 28.6884 3.66308C28.6884 0.406078 41.1574 1.96508 42.7144 7.20608C43.2804 9.33008 42.4314 14.1451 42.4314 14.1451C42.5734 13.7221 42.8564 13.7221 43.1384 13.8631C43.8464 14.2881 43.1384 16.2711 42.8564 16.9811C42.7144 17.5471 42.5734 17.9721 42.4314 18.2551V18.3971C42.4314 18.8211 42.1484 19.2461 41.8644 19.2461C41.4404 21.3721 40.8744 23.6381 39.1714 24.7701Z" stroke="white" stroke-width="2" stroke-miterlimit="10"/>
<path d="M22.712 54.0837C22.712 54.1837 22.616 54.2637 22.499 54.2637H1.214C1.096 54.2637 1 54.1837 1 54.0837V31.5337C1 31.4347 1.096 31.3537 1.214 31.3537H22.499C22.616 31.3537 22.712 31.4347 22.712 31.5337V54.0837Z" stroke="#FFFDFA" stroke-width="1.78"/>
<path d="M5.46216 35.9688H18.6521V35.2388H5.46216V35.9688Z" fill="#FFFFFB"/>
<path d="M5.46216 37.1934H18.6521V36.4644H5.46216V37.1934Z" fill="#FFFFFB"/>
<path d="M5.46216 38.4375H18.6521V37.7085H5.46216V38.4375Z" fill="#FFFFFB"/>
<path d="M5.46216 39.6816H18.6521V38.9526H5.46216V39.6816Z" fill="#FFFFFB"/>
<path d="M5.45215 42.2461H18.6442V41.5161H5.45215V42.2461Z" fill="#FFFFFB"/>
<path d="M5.45215 43.4707H18.6442V42.7417H5.45215V43.4707Z" fill="#FFFFFB"/>
<path d="M5.45215 44.7168H18.6442V43.9878H5.45215V44.7168Z" fill="#FFFFFB"/>
<path d="M5.45215 45.9609H18.6442V45.2319H5.45215V45.9609Z" fill="#FFFFFB"/>
<path d="M5.45215 48.2461H18.6442V47.5161H5.45215V48.2461Z" fill="#FFFFFB"/>
<path d="M5.45215 49.4707H18.6442V48.7417H5.45215V49.4707Z" fill="#FFFFFB"/>
<path d="M5.45215 50.7148H18.6442V49.9858H5.45215V50.7148Z" fill="#FFFFFB"/>
<path d="M5.45215 51.9609H18.6442V51.231H5.45215V51.9609Z" fill="#FFFFFB"/>
</svg>
