<svg width="51" height="53" viewBox="0 0 51 53" fill="none" xmlns="http://www.w3.org/2000/svg">
<path d="M32.4148 9.38063C30.6388 8.65663 28.9818 7.68263 27.4908 6.48463C26.8408 5.96263 26.2248 5.40063 25.6578 4.81163C25.0898 5.40063 24.4748 5.96263 23.8248 6.48463C22.3328 7.68263 20.6768 8.65663 18.9008 9.38063C17.3778 10.0016 15.7548 10.4396 14.0728 10.6846V14.9106C14.0728 18.6316 14.7078 21.8816 15.9608 24.5706C16.9368 26.6646 18.2958 28.4396 20.0018 29.8436C21.5418 31.1106 23.0928 31.8466 24.1228 32.2406C24.7738 32.4896 25.3048 32.6386 25.6578 32.7236C26.0108 32.6386 26.5418 32.4896 27.1928 32.2406C28.2228 31.8466 29.7738 31.1106 31.3128 29.8436C33.0188 28.4396 34.3788 26.6646 35.3548 24.5706C36.6078 21.8816 37.2428 18.6316 37.2428 14.9106V10.6846C35.5608 10.4396 33.9378 10.0016 32.4148 9.38063ZM31.9538 15.0206C28.7958 17.9796 26.3398 21.7236 24.8518 25.8456C24.7218 26.2046 24.4088 26.4586 24.0398 26.5026C24.0018 26.5076 23.9628 26.5096 23.9248 26.5096C23.5978 26.5096 23.2878 26.3416 23.1028 26.0576C22.3578 24.9086 21.5768 23.8636 19.5498 22.7146C19.0718 22.4436 18.8978 21.8236 19.1608 21.3306C19.4238 20.8376 20.0258 20.6576 20.5038 20.9296C22.0028 21.7796 22.9588 22.6256 23.6658 23.4486C25.2868 19.6886 27.6688 16.2806 30.6228 13.5116C31.0268 13.1336 31.6528 13.1646 32.0198 13.5806C32.3868 13.9966 32.3578 14.6416 31.9538 15.0206Z" fill="#057AC2"/>
<path d="M25.6577 0.975773C25.6577 0.975773 21.5317 8.02977 11.6997 8.45377V14.9108C11.6997 33.0938 25.6577 35.2178 25.6577 35.2178C25.6577 35.2178 39.6157 33.0938 39.6157 14.9108V8.45377C29.7837 8.02977 25.6577 0.975773 25.6577 0.975773ZM38.0337 14.9108C38.0337 18.7548 37.3717 22.1228 36.0677 24.9238C35.0397 27.1288 33.6067 28.9988 31.8067 30.4798C30.1857 31.8158 28.5527 32.5908 27.4677 33.0048C26.7197 33.2908 26.1167 33.4538 25.7437 33.5388L25.6577 33.5588L25.5717 33.5388C25.1987 33.4538 24.5957 33.2908 23.8467 33.0048C22.7627 32.5908 21.1297 31.8158 19.5087 30.4798C17.7087 28.9988 16.2757 27.1288 15.2477 24.9238C13.9437 22.1228 13.2817 18.7548 13.2817 14.9108V9.96777L13.6277 9.92277C15.3677 9.69777 17.0447 9.26077 18.6097 8.62277C20.3157 7.92777 21.9067 6.99177 23.3387 5.84177C24.0687 5.25477 24.7527 4.61677 25.3707 3.94577L25.6577 3.63377L25.9447 3.94577C26.5627 4.61677 27.2467 5.25477 27.9767 5.84177C29.4087 6.99177 30.9997 7.92777 32.7057 8.62277C34.2707 9.26077 35.9477 9.69777 37.6877 9.92277L38.0337 9.96777V14.9108Z" fill="#FFBF0F"/>
<path d="M20.024 44.5995C19.694 44.0715 19.245 42.9045 19.022 41.9925C18.97 41.5725 18.783 40.7345 18.603 40.1215C18.38 39.0015 17.23 37.3175 16.034 36.3605C15.083 35.7755 13.182 34.5175 11.787 33.5515C11.469 33.3505 10.862 32.8845 10.431 32.5085C10.223 32.3175 9.798 31.9245 9.482 31.6315C9.228 31.3845 8.678 30.9155 8.254 30.5845C8.153 30.5065 8.053 30.4295 7.999 30.3955C7.97 30.3765 7.898 30.2155 7.838 30.0365C7.756 29.7895 7.515 29.0615 7.3 28.4125C7.155 27.9765 6.862 27.0845 6.645 26.4195C6.529 26.0095 6.258 25.1845 6.039 24.5765C5.95 24.1775 5.598 23.4615 5.253 22.9775C5.165 22.7815 4.886 22.4955 4.631 22.3415C4.477 22.2235 4.138 22.1365 3.875 22.1485C3.824 22.1505 3.774 22.1565 3.748 22.1605C3.734 22.1625 3.71 22.1555 3.695 22.1455C3.672 22.1305 3.603 22.0975 3.541 22.0715C3.454 22.0255 3.266 21.9795 3.122 21.9675C2.617 21.8875 1.993 22.2375 1.728 22.7475C1.699 22.8035 1.674 22.8605 1.664 22.8895C1.658 22.9055 1.63 22.9335 1.602 22.9525C1.558 22.9735 1.456 23.0665 1.372 23.1605C1.187 23.3215 1.021 23.7225 1 24.0565C1.004 24.2255 1.035 24.5605 1.071 24.8065C1.119 25.1435 1.238 25.8285 1.336 26.3375C1.506 27.2175 1.894 29.0065 2.203 30.3335C2.432 31.3235 2.918 33.3435 3.287 34.8455C3.518 35.7695 3.984 37.6615 4.33 39.0705C4.378 39.5915 4.824 40.4585 5.325 41.0075C5.482 41.2045 5.864 41.5205 6.178 41.7135C6.393 41.8285 6.831 42.0655 7.156 42.2435C8.005 42.6475 9.611 43.6765 10.744 44.5425C11.511 45.0665 12.882 46.3495 13.806 47.4085C14.499 48.1465 15.683 49.8205 16.45 51.1475C16.586 51.3775 16.85 51.8575 17.04 52.2175C17.174 52.2675 17.24 52.2285 17.188 52.1285C16.762 51.1955 15.655 49.4565 14.716 48.2445C14.188 47.4865 12.915 46.1405 11.873 45.2395C11.213 44.6305 9.744 43.5695 8.592 42.8695C8.191 42.6185 7.352 42.1445 6.717 41.8095C6.486 41.7255 6.067 41.4565 5.781 41.2105C5.582 41.0615 5.256 40.6895 5.055 40.3775C4.83 39.9745 4.508 39.0785 4.335 38.3765C4.225 37.9325 4.001 37.0225 3.833 36.3455C3.59 35.3815 3.107 33.4055 2.755 31.9325C2.525 31.0175 2.095 29.1375 1.795 27.7335C1.612 27.0455 1.348 25.6205 1.206 24.5515C1.118 24.3475 1.144 23.9435 1.264 23.6495C1.344 23.3805 1.67 23.0605 1.994 22.9365C2.254 22.7895 2.725 22.8245 3.045 23.0125C3.292 23.1855 3.658 23.6155 3.863 23.9725C4.116 24.4845 4.534 25.5635 4.798 26.3825C4.999 27.0085 5.411 28.2875 5.717 29.2405C5.86 29.6835 6.003 30.1265 6.074 30.3475C6.113 30.4705 6.122 30.6065 6.093 30.6525C6.054 30.7145 5.987 30.9235 5.943 31.1185C5.905 31.2435 5.882 31.5045 5.891 31.6995C5.947 32.1835 6.218 33.1035 6.494 33.7535C6.66 34.4235 7.335 35.5725 8.003 36.3215C8.24 36.5935 8.774 37.0885 9.196 37.4285C9.58 37.7355 10.387 38.3315 10.998 38.7585C11.255 38.9385 11.783 39.3015 12.177 39.5705C12.332 39.5455 12.375 39.4705 12.273 39.4005C11.786 39.0845 10.814 38.4045 10.102 37.8805C9.76 37.6575 9.115 37.1355 8.662 36.7145C8.415 36.5165 7.989 36.0395 7.711 35.6505C7.523 35.3975 7.204 34.8425 6.997 34.4115C6.767 34.0205 6.427 33.1815 6.238 32.5365C6.068 32.2265 6.023 31.5975 6.136 31.1315C6.12 30.9335 6.279 30.6365 6.491 30.4675C6.712 30.3055 7.153 30.2555 7.477 30.3555C7.709 30.4565 8.135 30.7315 8.428 30.9695C8.566 31.0785 8.839 31.3115 9.039 31.4895C9.245 31.6835 9.669 32.0765 9.985 32.3685C10.217 32.5935 10.723 33.0135 11.114 33.3065C12.062 33.8605 13.939 35.0925 15.307 36.0575C15.709 36.2875 16.414 36.8965 16.879 37.4185C17.325 37.8405 17.944 38.8635 18.261 39.7035C18.389 40.1255 18.609 41.0035 18.752 41.6655C18.838 42.2195 19.192 43.2875 19.543 44.0525C19.934 44.9235 20.936 46.5585 21.78 47.7045C21.966 47.9595 22.356 48.4705 22.654 48.8455C22.805 48.8665 22.865 48.8045 22.788 48.7065C22.028 47.9075 20.79 46.0685 20.024 44.5995ZM6.346 30.3295C6.305 30.3715 6.206 30.2025 6.125 29.9505C6.013 29.6025 5.685 28.5805 5.391 27.6675C5.232 27.0565 4.831 25.8365 4.496 24.9435C4.418 24.6785 4.185 24.1755 3.974 23.8215C3.873 23.5285 3.521 23.1145 3.187 22.8945C2.798 22.6405 2.316 22.6185 2.109 22.7025C1.995 22.7495 1.952 22.7015 2.014 22.5945C2.113 22.3525 2.548 22.1485 2.985 22.1395C3.067 22.1275 3.241 22.1525 3.372 22.1935C3.412 22.2035 3.492 22.2365 3.551 22.2675C3.571 22.2795 3.612 22.3035 3.643 22.3195C3.646 22.3215 3.649 22.3235 3.651 22.3235C3.654 22.3265 3.659 22.3295 3.664 22.3315C3.668 22.3355 3.678 22.3425 3.685 22.3475C3.699 22.3565 3.728 22.3775 3.749 22.3935C3.843 22.4705 4.008 22.6475 4.118 22.7905C4.191 22.8825 4.323 23.0795 4.412 23.2325C4.638 23.6525 5.001 24.5485 5.222 25.2345C5.382 25.7315 5.709 26.7475 5.954 27.5035C6.125 28.0325 6.475 29.1145 6.736 29.9195L6.789 30.0855C6.795 30.1035 6.756 30.1275 6.701 30.1395C6.603 30.1605 6.42 30.2525 6.346 30.3295ZM7.166 30.0975C7.101 30.0925 7.036 30.0915 7.004 30.0935C6.986 30.0945 6.914 29.9155 6.842 29.6945C6.743 29.3895 6.453 28.4915 6.193 27.6895C6.027 27.1755 5.687 26.1235 5.435 25.3405C5.346 24.8445 4.983 23.9125 4.624 23.2595C4.569 23.1505 4.438 22.9405 4.33 22.7905C4.266 22.6795 4.104 22.4845 3.968 22.3555C3.957 22.3445 3.945 22.3335 3.939 22.3285C3.935 22.3255 3.94 22.3235 3.948 22.3235C3.96 22.3225 3.994 22.3245 4.025 22.3265C4.107 22.3275 4.266 22.3645 4.379 22.4095C4.553 22.4805 4.835 22.7175 5.008 22.9375C5.252 23.2405 5.614 23.9255 5.817 24.4665C5.952 24.8595 6.22 25.6655 6.416 26.2665C6.556 26.6985 6.845 27.5795 7.062 28.2355C7.204 28.6675 7.497 29.5505 7.716 30.2075C7.719 30.2195 7.723 30.2305 7.725 30.2355C7.726 30.2395 7.727 30.2415 7.727 30.2415H7.726C7.61 30.1775 7.36 30.1135 7.166 30.0975Z" fill="#1C80C6"/>
<path d="M20.024 44.5995C19.694 44.0715 19.245 42.9045 19.022 41.9925C18.97 41.5725 18.783 40.7345 18.603 40.1215C18.38 39.0015 17.23 37.3175 16.034 36.3605C15.083 35.7755 13.182 34.5175 11.787 33.5515C11.469 33.3505 10.862 32.8845 10.431 32.5085C10.223 32.3175 9.798 31.9245 9.482 31.6315C9.228 31.3845 8.678 30.9155 8.254 30.5845C8.153 30.5065 8.053 30.4295 7.999 30.3955C7.97 30.3765 7.898 30.2155 7.838 30.0365C7.756 29.7895 7.515 29.0615 7.3 28.4125C7.155 27.9765 6.862 27.0845 6.645 26.4195C6.529 26.0095 6.258 25.1845 6.039 24.5765C5.95 24.1775 5.598 23.4615 5.253 22.9775C5.165 22.7815 4.886 22.4955 4.631 22.3415C4.477 22.2235 4.138 22.1365 3.875 22.1485C3.824 22.1505 3.774 22.1565 3.748 22.1605C3.734 22.1625 3.71 22.1555 3.695 22.1455C3.672 22.1305 3.603 22.0975 3.541 22.0715C3.454 22.0255 3.266 21.9795 3.122 21.9675C2.617 21.8875 1.993 22.2375 1.728 22.7475C1.699 22.8035 1.674 22.8605 1.664 22.8895C1.658 22.9055 1.63 22.9335 1.602 22.9525C1.558 22.9735 1.456 23.0665 1.372 23.1605C1.187 23.3215 1.021 23.7225 1 24.0565C1.004 24.2255 1.035 24.5605 1.071 24.8065C1.119 25.1435 1.238 25.8285 1.336 26.3375C1.506 27.2175 1.894 29.0065 2.203 30.3335C2.432 31.3235 2.918 33.3435 3.287 34.8455C3.518 35.7695 3.984 37.6615 4.33 39.0705C4.378 39.5915 4.824 40.4585 5.325 41.0075C5.482 41.2045 5.864 41.5205 6.178 41.7135C6.393 41.8285 6.831 42.0655 7.156 42.2435C8.005 42.6475 9.611 43.6765 10.744 44.5425C11.511 45.0665 12.882 46.3495 13.806 47.4085C14.499 48.1465 15.683 49.8205 16.45 51.1475C16.586 51.3775 16.85 51.8575 17.04 52.2175C17.174 52.2675 17.24 52.2285 17.188 52.1285C16.762 51.1955 15.655 49.4565 14.716 48.2445C14.188 47.4865 12.915 46.1405 11.873 45.2395C11.213 44.6305 9.744 43.5695 8.592 42.8695C8.191 42.6185 7.352 42.1445 6.717 41.8095C6.486 41.7255 6.067 41.4565 5.781 41.2105C5.582 41.0615 5.256 40.6895 5.055 40.3775C4.83 39.9745 4.508 39.0785 4.335 38.3765C4.225 37.9325 4.001 37.0225 3.833 36.3455C3.59 35.3815 3.107 33.4055 2.755 31.9325C2.525 31.0175 2.095 29.1375 1.795 27.7335C1.612 27.0455 1.348 25.6205 1.206 24.5515C1.118 24.3475 1.144 23.9435 1.264 23.6495C1.344 23.3805 1.67 23.0605 1.994 22.9365C2.254 22.7895 2.725 22.8245 3.045 23.0125C3.292 23.1855 3.658 23.6155 3.863 23.9725C4.116 24.4845 4.534 25.5635 4.798 26.3825C4.999 27.0085 5.411 28.2875 5.717 29.2405C5.86 29.6835 6.003 30.1265 6.074 30.3475C6.113 30.4705 6.122 30.6065 6.093 30.6525C6.054 30.7145 5.987 30.9235 5.943 31.1185C5.905 31.2435 5.882 31.5045 5.891 31.6995C5.947 32.1835 6.218 33.1035 6.494 33.7535C6.66 34.4235 7.335 35.5725 8.003 36.3215C8.24 36.5935 8.774 37.0885 9.196 37.4285C9.58 37.7355 10.387 38.3315 10.998 38.7585C11.255 38.9385 11.783 39.3015 12.177 39.5705C12.332 39.5455 12.375 39.4705 12.273 39.4005C11.786 39.0845 10.814 38.4045 10.102 37.8805C9.76 37.6575 9.115 37.1355 8.662 36.7145C8.415 36.5165 7.989 36.0395 7.711 35.6505C7.523 35.3975 7.204 34.8425 6.997 34.4115C6.767 34.0205 6.427 33.1815 6.238 32.5365C6.068 32.2265 6.023 31.5975 6.136 31.1315C6.12 30.9335 6.279 30.6365 6.491 30.4675C6.712 30.3055 7.153 30.2555 7.477 30.3555C7.709 30.4565 8.135 30.7315 8.428 30.9695C8.566 31.0785 8.839 31.3115 9.039 31.4895C9.245 31.6835 9.669 32.0765 9.985 32.3685C10.217 32.5935 10.723 33.0135 11.114 33.3065C12.062 33.8605 13.939 35.0925 15.307 36.0575C15.709 36.2875 16.414 36.8965 16.879 37.4185C17.325 37.8405 17.944 38.8635 18.261 39.7035C18.389 40.1255 18.609 41.0035 18.752 41.6655C18.838 42.2195 19.192 43.2875 19.543 44.0525C19.934 44.9235 20.936 46.5585 21.78 47.7045C21.966 47.9595 22.356 48.4705 22.654 48.8455C22.805 48.8665 22.865 48.8045 22.788 48.7065C22.028 47.9075 20.79 46.0685 20.024 44.5995ZM6.346 30.3295C6.305 30.3715 6.206 30.2025 6.125 29.9505C6.013 29.6025 5.685 28.5805 5.391 27.6675C5.232 27.0565 4.831 25.8365 4.496 24.9435C4.418 24.6785 4.185 24.1755 3.974 23.8215C3.873 23.5285 3.521 23.1145 3.187 22.8945C2.798 22.6405 2.316 22.6185 2.109 22.7025C1.995 22.7495 1.952 22.7015 2.014 22.5945C2.113 22.3525 2.548 22.1485 2.985 22.1395C3.067 22.1275 3.241 22.1525 3.372 22.1935C3.412 22.2035 3.492 22.2365 3.551 22.2675C3.571 22.2795 3.612 22.3035 3.643 22.3195C3.646 22.3215 3.649 22.3235 3.651 22.3235C3.654 22.3265 3.659 22.3295 3.664 22.3315C3.668 22.3355 3.678 22.3425 3.685 22.3475C3.699 22.3565 3.728 22.3775 3.749 22.3935C3.843 22.4705 4.008 22.6475 4.118 22.7905C4.191 22.8825 4.323 23.0795 4.412 23.2325C4.638 23.6525 5.001 24.5485 5.222 25.2345C5.382 25.7315 5.709 26.7475 5.954 27.5035C6.125 28.0325 6.475 29.1145 6.736 29.9195L6.789 30.0855C6.795 30.1035 6.756 30.1275 6.701 30.1395C6.603 30.1605 6.42 30.2525 6.346 30.3295ZM7.166 30.0975C7.101 30.0925 7.036 30.0915 7.004 30.0935C6.986 30.0945 6.914 29.9155 6.842 29.6945C6.743 29.3895 6.453 28.4915 6.193 27.6895C6.027 27.1755 5.687 26.1235 5.435 25.3405C5.346 24.8445 4.983 23.9125 4.624 23.2595C4.569 23.1505 4.438 22.9405 4.33 22.7905C4.266 22.6795 4.104 22.4845 3.968 22.3555C3.957 22.3445 3.945 22.3335 3.939 22.3285C3.935 22.3255 3.94 22.3235 3.948 22.3235C3.96 22.3225 3.994 22.3245 4.025 22.3265C4.107 22.3275 4.266 22.3645 4.379 22.4095C4.553 22.4805 4.835 22.7175 5.008 22.9375C5.252 23.2405 5.614 23.9255 5.817 24.4665C5.952 24.8595 6.22 25.6655 6.416 26.2665C6.556 26.6985 6.845 27.5795 7.062 28.2355C7.204 28.6675 7.497 29.5505 7.716 30.2075C7.719 30.2195 7.723 30.2305 7.725 30.2355C7.726 30.2395 7.727 30.2415 7.727 30.2415H7.726C7.61 30.1775 7.36 30.1135 7.166 30.0975Z" stroke="#1C80C6" stroke-width="0.25" stroke-linecap="square"/>
<path d="M50.313 24.0344C50.277 23.5714 50.026 23.1664 49.844 23.0444C49.745 22.9764 49.618 22.8004 49.562 22.6504C49.478 22.3104 48.952 22.0044 48.389 21.9654C48.293 21.9524 48.103 21.9704 47.965 22.0054C47.837 22.0374 47.703 22.0894 47.647 22.1264C47.616 22.1474 47.537 22.1564 47.469 22.1464C47.367 22.1064 47.098 22.1524 46.869 22.2494C46.78 22.2794 46.62 22.3764 46.51 22.4664C46.432 22.5304 46.293 22.6784 46.199 22.7974C45.945 23.1054 45.566 23.8084 45.353 24.3674C45.216 24.7624 44.946 25.5704 44.75 26.1734C44.608 26.6104 44.316 27.5024 44.097 28.1654C43.952 28.6024 43.656 29.4954 43.435 30.1614C43.413 30.2274 43.391 30.2934 43.38 30.3264C43.374 30.3454 43.343 30.3764 43.311 30.3964C43.268 30.4264 43.144 30.5194 43.034 30.6054C42.878 30.7244 42.567 30.9794 42.341 31.1754C41.932 31.6214 41.012 32.4384 40.286 32.9984C39.354 33.5764 37.48 34.8104 36.101 35.7564C35.702 35.9794 34.99 36.5614 34.51 37.0554C34.046 37.4594 33.379 38.4564 33.019 39.2844C32.886 39.5534 32.696 40.1324 32.595 40.5774C32.554 40.7804 32.468 41.1934 32.404 41.5014C32.327 42.0484 31.989 43.1054 31.649 43.8624C31.263 44.7384 30.269 46.3794 29.427 47.5274C29.237 47.7914 28.834 48.3194 28.527 48.7064C28.524 48.8814 28.584 48.9434 28.661 48.8454C29.41 48.0544 30.639 46.2384 31.407 44.7904C31.748 44.2564 32.214 43.0764 32.449 42.1534C32.51 41.7374 32.696 40.9014 32.864 40.2864C33.058 39.2154 34.119 37.5864 35.233 36.6494C35.612 36.3364 36.428 35.7604 37.054 35.3634C37.582 35.0604 38.634 34.3924 39.403 33.8724C39.742 33.6634 40.392 33.1784 40.855 32.7864C41.068 32.6024 41.493 32.2154 41.805 31.9224C42.036 31.6924 42.535 31.2534 42.919 30.9434C43.079 30.7154 43.508 30.4474 43.877 30.3434C44.151 30.1834 44.592 30.2544 44.863 30.5014C44.981 30.6134 45.125 30.9014 45.183 31.1454C45.218 31.2564 45.241 31.4964 45.234 31.6834C45.177 32.1594 44.911 33.0594 44.64 33.6924C44.479 34.3484 43.816 35.4714 43.161 36.2004C42.926 36.4674 42.399 36.9544 41.984 37.2894C41.603 37.5934 40.802 38.1834 40.196 38.6064C39.944 38.7824 39.428 39.1374 39.042 39.4004C38.993 39.5644 39.036 39.6394 39.138 39.5704C39.635 39.2484 40.625 38.5554 41.349 38.0194C41.694 37.7944 42.344 37.2664 42.801 36.8404C43.051 36.6364 43.484 36.1474 43.768 35.7494C43.959 35.4934 44.282 34.9304 44.49 34.4934C44.726 34.0944 45.073 33.2354 45.265 32.5764C45.437 32.2544 45.483 31.5954 45.369 31.1034C45.324 30.9134 45.27 30.7304 45.22 30.6504C45.192 30.6054 45.236 30.3624 45.318 30.1074C45.432 29.7554 45.764 28.7214 46.062 27.7974C46.225 27.1964 46.618 25.9914 46.941 25.1054C47.017 24.8324 47.252 24.3164 47.464 23.9514C47.558 23.6304 47.928 23.2044 48.289 23.0014C49.001 22.6714 49.795 22.9734 50.062 23.6754C50.113 24.0414 50.088 24.7354 50.007 25.2244C49.95 25.5784 49.816 26.2974 49.708 26.8314C49.529 27.7174 49.129 29.5194 48.815 30.8574C48.586 31.8304 48.106 33.8154 47.742 35.2914C47.628 35.7544 47.394 36.7004 47.22 37.4044C47.146 37.8504 46.924 38.7354 46.726 39.3814C46.621 39.9184 46.081 40.7434 45.517 41.2234C45.33 41.3784 44.91 41.6454 44.579 41.8194C44.365 41.9304 43.933 42.1664 43.614 42.3464C42.801 42.7494 41.267 43.7674 40.189 44.6214C39.454 45.1414 38.141 46.4024 37.255 47.4384C36.591 48.1614 35.449 49.7914 34.706 51.0784C34.573 51.3054 34.314 51.7754 34.127 52.1284C34.156 52.2774 34.222 52.3174 34.275 52.2174C34.71 51.2514 35.857 49.4614 36.836 48.2194C37.382 47.4494 38.697 46.0904 39.772 45.1834C40.471 44.5604 42.02 43.4784 43.232 42.7674C43.436 42.6454 43.86 42.4064 44.178 42.2334C44.408 42.1354 44.854 41.8924 45.174 41.6914C45.648 41.4614 46.3 40.7374 46.631 40.0744C46.796 39.6444 47.063 38.7514 47.229 38.0794C47.344 37.6144 47.58 36.6614 47.755 35.9524C48.005 34.9624 48.499 32.9314 48.858 31.4174C49.089 30.5024 49.513 28.6204 49.804 27.2134C49.886 26.8404 50.034 26.0734 50.133 25.4994C50.161 25.3464 50.212 25.0294 50.246 24.7934C50.302 24.6254 50.332 24.2854 50.313 24.0344ZM44.126 30.0994C43.939 30.1174 43.76 30.1654 43.674 30.2034C43.626 30.2244 43.632 30.1104 43.685 29.9484C43.76 29.7254 43.978 29.0684 44.172 28.4814C44.315 28.0514 44.605 27.1694 44.819 26.5124C44.937 26.1044 45.206 25.2824 45.422 24.6754C45.509 24.2854 45.849 23.5824 46.182 23.1054C46.265 22.9134 46.528 22.6394 46.77 22.4934C46.956 22.3814 47.168 22.3234 47.275 22.3234C47.334 22.3234 47.379 22.3264 47.375 22.3284C47.37 22.3334 47.355 22.3474 47.342 22.3604C47.296 22.4044 47.211 22.4994 47.15 22.5734C47.069 22.6664 46.923 22.8714 46.824 23.0314C46.577 23.4574 46.192 24.3744 45.964 25.0794C45.8 25.5874 45.466 26.6254 45.216 27.3984C45.041 27.9384 44.684 29.0434 44.417 29.8654C44.393 29.9424 44.368 30.0184 44.355 30.0574C44.349 30.0784 44.327 30.0944 44.307 30.0934C44.28 30.0894 44.198 30.0924 44.126 30.0994ZM48.109 22.9074C47.881 23.0794 47.532 23.4974 47.329 23.8414C47.069 24.3514 46.644 25.4314 46.38 26.2524C46.174 26.8904 45.755 28.1944 45.442 29.1654C45.309 29.5794 45.176 29.9924 45.109 30.2004C45.072 30.3144 45.009 30.3724 44.968 30.3294C44.894 30.2524 44.712 30.1594 44.614 30.1384C44.559 30.1274 44.571 29.9444 44.641 29.7304C44.736 29.4364 45.017 28.5694 45.267 27.7944C45.43 27.2914 45.763 26.2624 46.009 25.4944C46.099 25.0144 46.444 24.1024 46.779 23.4584C46.871 23.2354 47.138 22.8394 47.375 22.5764C47.412 22.5274 47.5 22.4434 47.572 22.3884C47.584 22.3794 47.61 22.3604 47.63 22.3474C47.636 22.3434 47.647 22.3354 47.656 22.3294C47.659 22.3274 47.663 22.3244 47.663 22.3244L47.666 22.3224C47.666 22.3224 47.669 22.3214 47.672 22.3194C47.693 22.3054 47.736 22.2814 47.769 22.2644C47.804 22.2434 47.886 22.2114 47.953 22.1904C48.003 22.1744 48.085 22.1564 48.134 22.1494C48.638 22.0794 49.153 22.3374 49.283 22.5614C49.354 22.6854 49.389 22.7764 49.359 22.7634C49.32 22.7414 49.195 22.7094 49.079 22.6914C48.828 22.6174 48.394 22.7134 48.109 22.9074Z" fill="#1C80C6"/>
<path d="M50.313 24.0344C50.277 23.5714 50.026 23.1664 49.844 23.0444C49.745 22.9764 49.618 22.8004 49.562 22.6504C49.478 22.3104 48.952 22.0044 48.389 21.9654C48.293 21.9524 48.103 21.9704 47.965 22.0054C47.837 22.0374 47.703 22.0894 47.647 22.1264C47.616 22.1474 47.537 22.1564 47.469 22.1464C47.367 22.1064 47.098 22.1524 46.869 22.2494C46.78 22.2794 46.62 22.3764 46.51 22.4664C46.432 22.5304 46.293 22.6784 46.199 22.7974C45.945 23.1054 45.566 23.8084 45.353 24.3674C45.216 24.7624 44.946 25.5704 44.75 26.1734C44.608 26.6104 44.316 27.5024 44.097 28.1654C43.952 28.6024 43.656 29.4954 43.435 30.1614C43.413 30.2274 43.391 30.2934 43.38 30.3264C43.374 30.3454 43.343 30.3764 43.311 30.3964C43.268 30.4264 43.144 30.5194 43.034 30.6054C42.878 30.7244 42.567 30.9794 42.341 31.1754C41.932 31.6214 41.012 32.4384 40.286 32.9984C39.354 33.5764 37.48 34.8104 36.101 35.7564C35.702 35.9794 34.99 36.5614 34.51 37.0554C34.046 37.4594 33.379 38.4564 33.019 39.2844C32.886 39.5534 32.696 40.1324 32.595 40.5774C32.554 40.7804 32.468 41.1934 32.404 41.5014C32.327 42.0484 31.989 43.1054 31.649 43.8624C31.263 44.7384 30.269 46.3794 29.427 47.5274C29.237 47.7914 28.834 48.3194 28.527 48.7064C28.524 48.8814 28.584 48.9434 28.661 48.8454C29.41 48.0544 30.639 46.2384 31.407 44.7904C31.748 44.2564 32.214 43.0764 32.449 42.1534C32.51 41.7374 32.696 40.9014 32.864 40.2864C33.058 39.2154 34.119 37.5864 35.233 36.6494C35.612 36.3364 36.428 35.7604 37.054 35.3634C37.582 35.0604 38.634 34.3924 39.403 33.8724C39.742 33.6634 40.392 33.1784 40.855 32.7864C41.068 32.6024 41.493 32.2154 41.805 31.9224C42.036 31.6924 42.535 31.2534 42.919 30.9434C43.079 30.7154 43.508 30.4474 43.877 30.3434C44.151 30.1834 44.592 30.2544 44.863 30.5014C44.981 30.6134 45.125 30.9014 45.183 31.1454C45.218 31.2564 45.241 31.4964 45.234 31.6834C45.177 32.1594 44.911 33.0594 44.64 33.6924C44.479 34.3484 43.816 35.4714 43.161 36.2004C42.926 36.4674 42.399 36.9544 41.984 37.2894C41.603 37.5934 40.802 38.1834 40.196 38.6064C39.944 38.7824 39.428 39.1374 39.042 39.4004C38.993 39.5644 39.036 39.6394 39.138 39.5704C39.635 39.2484 40.625 38.5554 41.349 38.0194C41.694 37.7944 42.344 37.2664 42.801 36.8404C43.051 36.6364 43.484 36.1474 43.768 35.7494C43.959 35.4934 44.282 34.9304 44.49 34.4934C44.726 34.0944 45.073 33.2354 45.265 32.5764C45.437 32.2544 45.483 31.5954 45.369 31.1034C45.324 30.9134 45.27 30.7304 45.22 30.6504C45.192 30.6054 45.236 30.3624 45.318 30.1074C45.432 29.7554 45.764 28.7214 46.062 27.7974C46.225 27.1964 46.618 25.9914 46.941 25.1054C47.017 24.8324 47.252 24.3164 47.464 23.9514C47.558 23.6304 47.928 23.2044 48.289 23.0014C49.001 22.6714 49.795 22.9734 50.062 23.6754C50.113 24.0414 50.088 24.7354 50.007 25.2244C49.95 25.5784 49.816 26.2974 49.708 26.8314C49.529 27.7174 49.129 29.5194 48.815 30.8574C48.586 31.8304 48.106 33.8154 47.742 35.2914C47.628 35.7544 47.394 36.7004 47.22 37.4044C47.146 37.8504 46.924 38.7354 46.726 39.3814C46.621 39.9184 46.081 40.7434 45.517 41.2234C45.33 41.3784 44.91 41.6454 44.579 41.8194C44.365 41.9304 43.933 42.1664 43.614 42.3464C42.801 42.7494 41.267 43.7674 40.189 44.6214C39.454 45.1414 38.141 46.4024 37.255 47.4384C36.591 48.1614 35.449 49.7914 34.706 51.0784C34.573 51.3054 34.314 51.7754 34.127 52.1284C34.156 52.2774 34.222 52.3174 34.275 52.2174C34.71 51.2514 35.857 49.4614 36.836 48.2194C37.382 47.4494 38.697 46.0904 39.772 45.1834C40.471 44.5604 42.02 43.4784 43.232 42.7674C43.436 42.6454 43.86 42.4064 44.178 42.2334C44.408 42.1354 44.854 41.8924 45.174 41.6914C45.648 41.4614 46.3 40.7374 46.631 40.0744C46.796 39.6444 47.063 38.7514 47.229 38.0794C47.344 37.6144 47.58 36.6614 47.755 35.9524C48.005 34.9624 48.499 32.9314 48.858 31.4174C49.089 30.5024 49.513 28.6204 49.804 27.2134C49.886 26.8404 50.034 26.0734 50.133 25.4994C50.161 25.3464 50.212 25.0294 50.246 24.7934C50.302 24.6254 50.332 24.2854 50.313 24.0344ZM44.126 30.0994C43.939 30.1174 43.76 30.1654 43.674 30.2034C43.626 30.2244 43.632 30.1104 43.685 29.9484C43.76 29.7254 43.978 29.0684 44.172 28.4814C44.315 28.0514 44.605 27.1694 44.819 26.5124C44.937 26.1044 45.206 25.2824 45.422 24.6754C45.509 24.2854 45.849 23.5824 46.182 23.1054C46.265 22.9134 46.528 22.6394 46.77 22.4934C46.956 22.3814 47.168 22.3234 47.275 22.3234C47.334 22.3234 47.379 22.3264 47.375 22.3284C47.37 22.3334 47.355 22.3474 47.342 22.3604C47.296 22.4044 47.211 22.4994 47.15 22.5734C47.069 22.6664 46.923 22.8714 46.824 23.0314C46.577 23.4574 46.192 24.3744 45.964 25.0794C45.8 25.5874 45.466 26.6254 45.216 27.3984C45.041 27.9384 44.684 29.0434 44.417 29.8654C44.393 29.9424 44.368 30.0184 44.355 30.0574C44.349 30.0784 44.327 30.0944 44.307 30.0934C44.28 30.0894 44.198 30.0924 44.126 30.0994ZM48.109 22.9074C47.881 23.0794 47.532 23.4974 47.329 23.8414C47.069 24.3514 46.644 25.4314 46.38 26.2524C46.174 26.8904 45.755 28.1944 45.442 29.1654C45.309 29.5794 45.176 29.9924 45.109 30.2004C45.072 30.3144 45.009 30.3724 44.968 30.3294C44.894 30.2524 44.712 30.1594 44.614 30.1384C44.559 30.1274 44.571 29.9444 44.641 29.7304C44.736 29.4364 45.017 28.5694 45.267 27.7944C45.43 27.2914 45.763 26.2624 46.009 25.4944C46.099 25.0144 46.444 24.1024 46.779 23.4584C46.871 23.2354 47.138 22.8394 47.375 22.5764C47.412 22.5274 47.5 22.4434 47.572 22.3884C47.584 22.3794 47.61 22.3604 47.63 22.3474C47.636 22.3434 47.647 22.3354 47.656 22.3294C47.659 22.3274 47.663 22.3244 47.663 22.3244L47.666 22.3224C47.666 22.3224 47.669 22.3214 47.672 22.3194C47.693 22.3054 47.736 22.2814 47.769 22.2644C47.804 22.2434 47.886 22.2114 47.953 22.1904C48.003 22.1744 48.085 22.1564 48.134 22.1494C48.638 22.0794 49.153 22.3374 49.283 22.5614C49.354 22.6854 49.389 22.7764 49.359 22.7634C49.32 22.7414 49.195 22.7094 49.079 22.6914C48.828 22.6174 48.394 22.7134 48.109 22.9074Z" stroke="#1C80C6" stroke-width="0.25" stroke-linecap="square"/>
</svg>
