<svg width="82" height="49" viewBox="0 0 82 49" fill="none" xmlns="http://www.w3.org/2000/svg">
<path d="M81.4181 20.2951C80.7651 19.7511 79.4581 20.0781 78.2611 20.8411C77.9351 21.0591 77.6041 21.3851 77.3861 21.7121C76.0801 23.0191 69.7581 30.3211 69.6531 30.4291L69.5401 30.6471H69.6531C71.0681 30.8651 71.9391 31.4081 72.1571 32.1741C72.3751 33.2631 71.5031 34.6791 69.4351 36.0941C67.5811 37.2951 65.1861 38.4931 62.0251 39.5811C62.3511 39.4731 62.6781 39.2551 63.0041 39.0381C65.0731 37.8401 66.9281 36.8601 68.3431 35.8761C70.5231 34.3521 71.2861 33.2631 70.9591 32.2801C70.7421 31.6271 70.0891 31.3001 69.1051 31.5191C68.0161 31.5191 66.0561 32.2801 64.2021 33.0461C62.8961 33.5891 61.6951 34.0261 60.8231 34.2431C57.6621 35.1141 54.3961 35.9881 51.2361 38.1661C50.8001 38.4931 50.2561 38.9271 49.8201 39.2551C47.5301 41.2191 45.4621 43.1781 43.2811 45.3591L42.9541 45.5771L50.0381 48.9551C50.5821 48.4071 51.2361 47.8641 51.8891 47.4271C52.7601 46.7741 53.5251 46.3381 54.5051 46.0121C55.5941 45.5771 58.5371 44.5931 61.3711 43.6131C64.3111 42.6341 67.1451 41.6541 68.1251 41.3271C68.7781 41.0011 69.2171 40.7791 69.7581 40.3441C70.9591 39.5811 71.9391 38.0581 72.8101 36.7471C73.0281 36.3131 73.3551 35.8761 73.5721 35.3321L81.3131 22.6921C82.1831 21.2761 81.8531 20.6241 81.4181 20.2951Z" fill="#FFBC31"/>
<path d="M30.2055 18.225V19.859C31.4025 20.515 32.4955 21.058 33.4755 21.495C28.4635 23.563 25.3025 23.563 24.5375 29.667H14.1875C14.1875 21.385 17.2395 23.454 23.4485 19.859V18.442C22.3595 17.681 22.1415 16.263 21.8155 14.847C21.5975 14.847 21.4895 14.628 21.4895 14.302V14.193C21.4185 14.099 21.2705 13.758 21.1585 13.431C21.0535 12.995 20.6175 12.122 20.9405 11.686C21.2705 11.468 21.2705 11.468 21.4895 11.686C21.0535 9.39899 20.4005 6.23799 23.7755 5.36699C27.5975 3.23999 31.4025 4.16699 32.2735 7.43799C32.7135 8.74599 32.7135 8.74599 32.1645 11.686C32.1875 11.517 32.3835 11.468 32.6005 11.578C32.6475 12.275 32.6005 13.104 32.4955 13.431C32.3835 13.758 32.2735 13.975 32.1645 14.193V14.302C32.1645 14.628 32.0555 14.847 31.8385 14.847C31.5115 16.154 31.1855 17.571 30.2055 18.225Z" stroke="#1C80C6" stroke-width="2"/>
<path d="M45.3492 18.5511V19.5871C45.3492 20.1591 47.0822 21.6231 49.2192 22.8571C53.0902 25.0901 57.0092 22.8011 57.0092 27.8141C57.0092 30.5831 54.3232 32.8271 51.0092 32.8271H41.3172H41.2122H25.3022C25.3022 22.4741 29.2212 25.0901 36.9622 20.6231V18.8781C35.6522 17.8981 35.3262 16.1541 34.7812 14.3011C34.5642 14.3011 34.4542 13.9751 34.4542 13.6491V13.4311C34.2372 13.2131 34.2372 12.9951 34.0192 12.5601C33.4632 11.7911 33.3662 10.8141 33.8012 10.3781C34.2372 10.0521 34.2372 10.0521 34.4542 10.3781C33.9112 7.43815 33.1492 3.51415 37.2852 2.31515C42.0462 -0.210853 46.8772 1.00915 48.0742 5.04015C48.5102 6.67415 48.5102 6.67415 47.8572 10.3781C47.9402 10.1491 48.1832 10.0521 48.4012 10.1611C48.4982 10.9391 48.4012 12.0131 48.1832 12.5601C48.0742 12.9951 47.9662 13.3221 47.8572 13.5391V13.6491C47.8572 13.9751 47.6392 14.3011 47.4212 14.3011C47.0942 15.9371 46.6592 17.6801 45.3492 18.5511Z" stroke="#1C80C6" stroke-width="2"/>
<path d="M59.0818 18.225V19.859C65.1858 23.454 68.3428 21.603 68.3428 29.667H57.7748C56.9048 23.892 53.7438 23.672 48.9458 21.495C49.9298 21.058 51.0178 20.623 52.3238 19.859V18.442C51.2358 17.681 51.0178 16.263 50.5828 14.847C50.4738 14.847 50.3648 14.628 50.3648 14.302V14.193C50.2938 14.099 50.1468 13.758 50.0378 13.431C49.5428 12.903 49.4938 12.122 49.9298 11.686C50.1468 11.468 50.1468 11.468 50.3648 11.686C49.9298 9.39899 49.3808 6.23799 52.6508 5.36699C56.4728 3.23999 60.2788 4.16699 61.1538 7.43799C61.5898 8.74599 61.5898 8.74599 61.0408 11.686C61.0638 11.517 61.2588 11.468 61.4768 11.578C61.5238 12.275 61.4768 13.104 61.3708 13.431C61.2588 13.758 61.1538 13.975 61.0408 14.193V14.302C61.0408 14.628 60.9318 14.847 60.7148 14.847C60.3878 16.154 60.0618 17.571 59.0818 18.225Z" stroke="#1C80C6" stroke-width="2"/>
<path d="M0.458531 20.2951C1.11153 19.7511 2.41753 20.0781 3.61553 20.8411C3.94253 21.0591 4.27253 21.3851 4.49053 21.7121C5.79653 23.0191 12.1185 30.3211 12.2235 30.4291L12.3365 30.6471H12.2235C10.8085 30.8651 9.93753 31.4081 9.71953 32.1741C9.50153 33.2631 10.3725 34.6791 12.4415 36.0941C14.2965 37.2951 16.8035 38.4931 19.8515 39.5811C19.5255 39.4731 19.1985 39.2551 18.8725 39.0381C16.8035 37.8401 14.9485 36.8601 13.5335 35.8761C11.3525 34.3521 10.5905 33.2631 10.9175 32.2801C11.1345 31.6271 11.7875 31.3001 12.7715 31.5191C13.8605 31.5191 15.8205 32.2801 17.6745 33.0461C18.9805 33.5891 20.1785 34.0261 21.0535 34.2431C24.2105 35.1141 27.4795 35.9881 30.6415 38.1661C31.0755 38.4931 31.6205 38.9271 32.0555 39.2551C34.3465 41.2191 36.4145 43.1781 38.5955 45.3591L38.9225 45.5771L31.8385 48.9551C31.2945 48.4071 30.6415 47.8641 29.9875 47.4271C29.1165 46.7741 28.3515 46.3381 27.4795 46.0121C26.2825 45.5771 23.3395 44.5931 20.5045 43.6131C17.5655 42.6341 14.7315 41.6541 13.7515 41.3271C13.0945 41.0011 12.6595 40.7791 12.1185 40.3441C10.9175 39.5811 9.93753 38.0581 9.06653 36.7471C8.84553 36.3131 8.52253 35.8761 8.30453 35.3321L0.458531 22.6921C-0.306469 21.2761 0.0225314 20.6241 0.458531 20.2951Z" fill="#FFBC31"/>
</svg>
