<svg width="50" height="42" viewBox="0 0 50 42" fill="none" xmlns="http://www.w3.org/2000/svg">
<path d="M38.5766 29.9161L37.1876 32.8171L39.5876 35.0261C39.7126 35.1521 39.7126 35.4031 39.6476 35.5301C39.5216 35.5931 39.3956 35.6561 39.3326 35.6561L36.0536 35.2781L34.7276 38.1791C34.6016 38.3681 34.4746 38.4331 34.2856 38.3681C34.1606 38.3051 34.0966 38.2431 34.0966 38.1161V38.1791L33.4666 34.9621L30.1846 34.5851C29.9956 34.5211 29.9326 34.3321 29.9326 34.2071C29.9326 34.0781 29.9956 33.9521 30.1216 33.9521L32.8966 32.3761L32.7106 31.1131L33.2776 30.7981L33.6556 32.4391C33.6556 32.5651 33.5936 32.7541 33.4666 32.8171L31.3216 34.0181L33.7816 34.2691C33.9076 34.3321 34.0336 34.3951 34.0966 34.5851L34.5386 36.9821L35.5486 34.7731C35.6116 34.5851 35.7376 34.5211 35.9266 34.5211L38.3866 34.8361L36.5576 33.1961C36.4306 33.0691 36.4306 32.8801 36.4946 32.7541L37.5046 30.5461L35.3576 31.7441C35.2316 31.8101 35.0446 31.8101 34.9796 31.7441L33.7816 30.6091L34.4126 30.2941L35.2316 31.0501L38.0716 29.4751C38.2606 29.3491 38.4506 29.4091 38.5766 29.6011V29.9161Z" fill="#1C80C6"/>
<path d="M38.5766 29.9161L37.1876 32.8171L39.5876 35.0261C39.7126 35.1521 39.7126 35.4031 39.6476 35.5301C39.5216 35.5931 39.3956 35.6561 39.3326 35.6561L36.0536 35.2781L34.7276 38.1791C34.6016 38.3681 34.4746 38.4331 34.2856 38.3681C34.1606 38.3051 34.0966 38.2431 34.0966 38.1161V38.1791L33.4666 34.9621L30.1846 34.5851C29.9956 34.5211 29.9326 34.3321 29.9326 34.2071C29.9326 34.0781 29.9956 33.9521 30.1216 33.9521L32.8966 32.3761L32.7106 31.1131L33.2776 30.7981L33.6556 32.4391C33.6556 32.5651 33.5936 32.7541 33.4666 32.8171L31.3216 34.0181L33.7816 34.2691C33.9076 34.3321 34.0336 34.3951 34.0966 34.5851L34.5386 36.9821L35.5486 34.7731C35.6116 34.5851 35.7376 34.5211 35.9266 34.5211L38.3866 34.8361L36.5576 33.1961C36.4306 33.0691 36.4306 32.8801 36.4946 32.7541L37.5046 30.5461L35.3576 31.7441C35.2316 31.8101 35.0446 31.8101 34.9796 31.7441L33.7816 30.6091L34.4126 30.2941L35.2316 31.0501L38.0716 29.4751C38.2606 29.3491 38.4506 29.4091 38.5766 29.6011V29.9161Z" stroke="#1C80C6" stroke-width="0.5" stroke-miterlimit="10"/>
<path d="M29.302 32.755C26.777 34.207 24.254 35.656 21.794 37.109C19.775 38.306 17.882 38.306 16.117 36.793C15.485 36.352 14.728 35.972 14.222 35.404C12.52 33.7 10.879 33.7 9.04904 35.152C8.23004 35.782 7.15804 36.793 6.14804 35.089C5.26504 33.7 5.64404 32.944 6.96704 32.314C8.23004 31.684 7.53704 30.924 7.09304 30.169C5.26504 26.95 3.49804 23.67 1.54304 20.517C0.660039 19.065 0.786039 18.119 2.42504 17.361C3.18304 16.983 3.94004 16.605 4.63304 16.037C6.58904 14.649 8.16704 14.397 9.17504 17.109C9.49304 18.056 10.186 18.056 11.006 17.552C15.863 14.712 20.72 11.936 25.58 9.16099C26.777 8.46699 26.463 7.64599 25.832 6.82599C24.759 5.31199 24.885 4.30299 26.715 3.35499C32.771 0.0759919 31.195 -0.239007 34.538 5.37499C35.863 7.64599 37.187 9.85399 38.45 12.125C39.017 13.136 39.587 13.703 40.658 12.884C41.919 11.936 42.614 12.692 43.245 13.766C43.937 14.966 43.308 15.596 42.359 15.911C39.206 16.92 39.08 19.065 39.587 21.84C40.28 26.068 39.839 26.697 36.053 28.843C33.845 30.105 31.573 31.432 29.302 32.755Z" stroke="#1C80C6" stroke-width="1.5" stroke-miterlimit="10"/>
<path d="M24.2549 22.9137C20.5319 25.0587 16.8109 27.2667 13.0249 29.3487C11.3839 30.2307 11.0059 31.0507 12.8359 32.1867C14.1619 33.0697 15.4859 34.0787 16.8109 35.0887C18.2609 36.2257 19.7129 36.2257 21.3539 35.2787C25.1369 33.0067 28.9869 30.8617 32.7719 28.5907C39.8999 24.4287 38.8919 26.1927 38.0719 17.8037C38.0719 17.6777 38.0099 17.5517 38.0099 17.3607C37.9469 15.5327 37.0619 15.4697 35.6749 16.2887C31.8889 18.4967 28.0419 20.7047 24.2549 22.9137Z" fill="#FFBC31"/>
<path d="M24.2549 22.9137C20.5319 25.0587 16.8109 27.2667 13.0249 29.3487C11.3839 30.2307 11.0059 31.0507 12.8359 32.1867C14.1619 33.0697 15.4859 34.0787 16.8109 35.0887C18.2609 36.2257 19.7129 36.2257 21.3539 35.2787C25.1369 33.0067 28.9869 30.8617 32.7719 28.5907C39.8999 24.4287 38.8919 26.1927 38.0719 17.8037C38.0719 17.6777 38.0099 17.5517 38.0099 17.3607C37.9469 15.5327 37.0619 15.4697 35.6749 16.2887C31.8889 18.4967 28.0419 20.7047 24.2549 22.9137Z" stroke="#1C80C6" stroke-width="1.5"/>
<path d="M19.145 13.7682C17.694 14.5882 16.244 15.4102 14.855 16.2292C14.162 16.6702 13.592 17.2372 14.223 18.1212C14.729 18.9412 15.359 18.7522 16.053 18.3742C18.891 16.7332 21.732 15.0952 24.57 13.4542C25.263 13.0122 25.642 12.4432 25.2 11.6862C24.759 10.8662 24.066 10.9932 23.433 11.3092C21.984 12.1272 20.595 12.9472 19.145 13.7682Z" fill="#FFBC31"/>
<path d="M19.145 13.7682C17.694 14.5882 16.244 15.4102 14.855 16.2292C14.162 16.6702 13.592 17.2372 14.223 18.1212C14.729 18.9412 15.359 18.7522 16.053 18.3742C18.891 16.7332 21.732 15.0952 24.57 13.4542C25.263 13.0122 25.642 12.4432 25.2 11.6862C24.759 10.8662 24.066 10.9932 23.433 11.3092C21.984 12.1272 20.595 12.9472 19.145 13.7682Z" stroke="#1C80C6" stroke-width="1.5"/>
<path d="M31.6993 8.09019C31.3213 8.27919 31.0693 8.40519 30.8173 8.59419C29.7433 9.28819 28.2943 9.54019 29.4283 11.4962C30.5633 13.4522 31.5103 12.3792 32.6443 11.7482C33.4663 11.3072 34.2223 10.8022 35.0443 10.2982C35.6113 10.0442 36.1783 9.66619 35.8013 8.91019C35.4853 8.15119 35.2963 7.08019 34.3493 6.95319C33.2773 6.76519 32.5183 7.71019 31.6993 8.09019Z" fill="#FFBC31"/>
<path d="M31.6993 8.09019C31.3213 8.27919 31.0693 8.40519 30.8173 8.59419C29.7433 9.28819 28.2943 9.54019 29.4283 11.4962C30.5633 13.4522 31.5103 12.3792 32.6443 11.7482C33.4663 11.3072 34.2223 10.8022 35.0443 10.2982C35.6113 10.0442 36.1783 9.66619 35.8013 8.91019C35.4853 8.15119 35.2963 7.08019 34.3493 6.95319C33.2773 6.76519 32.5183 7.71019 31.6993 8.09019Z" stroke="#1C80C6" stroke-width="1.5"/>
<path d="M9.61874 22.4732C9.49274 22.5362 9.36674 22.5992 9.24074 22.6622C8.10374 23.3552 6.46274 23.6702 7.72574 25.7522C8.92274 27.7082 9.87074 26.3832 10.9427 25.8792C11.7007 25.5002 12.4567 24.9332 13.2137 24.5562C14.5387 23.9232 14.2217 23.1032 13.6547 22.0952C13.0867 21.1472 12.5827 20.6432 11.4487 21.3992C10.8787 21.7782 10.2487 22.0952 9.61874 22.4732Z" fill="#FFBC31"/>
<path d="M9.61874 22.4732C9.49274 22.5362 9.36674 22.5992 9.24074 22.6622C8.10374 23.3552 6.46274 23.6702 7.72574 25.7522C8.92274 27.7082 9.87074 26.3832 10.9427 25.8792C11.7007 25.5002 12.4567 24.9332 13.2137 24.5562C14.5387 23.9232 14.2217 23.1032 13.6547 22.0952C13.0867 21.1472 12.5827 20.6432 11.4487 21.3992C10.8787 21.7782 10.2487 22.0952 9.61874 22.4732Z" stroke="#1C80C6" stroke-width="1.5"/>
<path d="M4.57227 41.084H48.3543V39.0039H4.57227V41.084Z" fill="#1C80C6" stroke="#1C80C6" stroke-width="1.5" stroke-miterlimit="10"/>
</svg>
