<svg width="27" height="27" viewBox="0 0 27 27" fill="none" xmlns="http://www.w3.org/2000/svg">
<path d="M13.2216 1.06059C6.42261 1.17959 0.988613 6.80659 1.10761 13.6046C1.22561 20.4036 6.85261 25.8376 13.6516 25.7186C20.4516 25.5996 25.8856 19.9736 25.7666 13.1736C25.6476 6.37559 20.0216 0.941589 13.2216 1.06059ZM13.6686 26.6806C6.33961 26.8076 0.273613 20.9496 0.145613 13.6206C0.017613 6.29259 5.87561 0.22759 13.2046 0.0995903C20.5346 -0.0284097 26.6016 5.82859 26.7296 13.1566C26.8566 20.4856 20.9986 26.5526 13.6686 26.6806Z" fill="#1C80C6"/>
<g clip-path="url(#clip0_117_296)">
<mask id="mask0_117_296" style="mask-type:luminance" maskUnits="userSpaceOnUse" x="-7" y="-1" width="43" height="28">
<path d="M-6.5 0.400269L-6 27.0002L35.7 26.3003L35.3 -0.299805L-6.5 0.400269Z" fill="white"/>
</mask>
<g mask="url(#mask0_117_296)">
<path d="M8.50047 6.72202C8.15047 7.05502 8.18447 7.63902 8.57747 8.02702L11.3335 10.749L12.5095 9.53302C12.7755 9.25802 12.7745 8.82002 12.5045 8.54602L10.1235 6.13602C9.85247 5.86202 9.41447 5.85502 9.13447 6.12002L8.50047 6.72202Z" fill="#1C80C6"/>
<path d="M17.1157 15.3978C16.7657 15.7308 16.7997 16.3148 17.1927 16.7028L19.9487 19.4258L21.1247 18.2088C21.3907 17.9338 21.3887 17.4958 21.1197 17.2218L18.7387 14.8118C18.4667 14.5378 18.0277 14.5308 17.7497 14.7958L17.1157 15.3978Z" fill="#1C80C6"/>
</g>
<path d="M7.20799 7.99364L8.96199 9.73164C9.93099 10.6926 10.653 11.7086 10.576 12.0036C10.203 11.9616 10.434 12.5366 11.093 13.2886C11.751 14.0396 13.771 15.9826 13.771 15.9826C13.771 15.9826 14.508 16.9696 15.854 16.5776L17.578 18.3166C18.53 19.2766 18.593 20.6466 17.719 21.3766C19.5 24.8366 16.137 22.6976 10.206 16.5986C4.27399 10.4996 7.20799 7.99364 7.20799 7.99364Z" fill="#1C80C6"/>
</g>
<defs>
<clipPath id="clip0_117_296">
<rect width="21.1" height="21" fill="white" transform="translate(2.5 1.2998)"/>
</clipPath>
</defs>
</svg>
