<svg width="56" height="48" viewBox="0 0 56 48" fill="none" xmlns="http://www.w3.org/2000/svg">
<path d="M41.2793 24.334H44.3993V22.094H41.2793V24.334Z" fill="white"/>
<path d="M34.3762 45.5215H21.0532V39.1726H34.3762V45.5215Z" stroke="#FFFDFA" stroke-width="0.5"/>
<path d="M35.9695 46.1426H19.4604V44.9036H35.9695V46.1426Z" stroke="#FFFDFA" stroke-width="1.78"/>
<path d="M54.429 3.10817C54.429 2.12917 53.597 1.33517 52.571 1.33517H2.859C1.832 1.33517 1 2.12917 1 3.10817V34.0762H54.429V3.10817Z" stroke="#FFFDFA" stroke-width="1.78"/>
<path d="M2.85898 39.8965H52.571C53.597 39.8965 54.429 39.1035 54.429 38.1235V34.0765H1.00098V38.1235C1.00098 39.1035 1.83298 39.8965 2.85898 39.8965Z" stroke="#FFFDFA" stroke-width="1.78"/>
<path d="M52.3893 31.4883H3.04126V3.92432H52.3893V31.4883Z" stroke="#FFFDFA" stroke-width="1.78"/>
<path d="M7.50116 15.5938H6.71216V14.8047H7.50116V15.5938Z" stroke="#FFFDFA" stroke-width="0.5"/>
<path d="M7.50116 17.707H6.71216V16.918H7.50116V17.707Z" stroke="#FFFDFA" stroke-width="0.5"/>
<path d="M7.50116 19.9688H6.71216V19.1797H7.50116V19.9688Z" stroke="#FFFDFA" stroke-width="0.5"/>
<path d="M7.50116 22.0801H6.71216V21.291H7.50116V22.0801Z" stroke="#FFFDFA" stroke-width="0.5"/>
<path d="M7.50116 24.3047H6.71216V23.5146H7.50116V24.3047Z" stroke="#FFFDFA" stroke-width="0.5"/>
<path d="M7.50116 26.416H6.71216V25.627H7.50116V26.416Z" stroke="#FFFDFA" stroke-width="0.5"/>
<path d="M48.7173 15.5117H9.15527V14.8877H48.7173V15.5117Z" stroke="#FFFDFA" stroke-width="0.5"/>
<path d="M48.7173 17.623H9.15527V17H48.7173V17.623Z" stroke="#FFFDFA" stroke-width="0.5"/>
<path d="M48.7173 19.8867H9.15527V19.2627H48.7173V19.8867Z" stroke="#FFFDFA" stroke-width="0.5"/>
<path d="M48.7173 21.998H9.15527V21.374H48.7173V21.998Z" stroke="#FFFDFA" stroke-width="0.5"/>
<path d="M48.7173 24.2227H9.15527V23.5986H48.7173V24.2227Z" stroke="#FFFDFA" stroke-width="0.5"/>
<path d="M48.7173 26.334H9.15527V25.71H48.7173V26.334Z" stroke="#FFFDFA" stroke-width="0.5"/>
<path d="M43.7527 9.01072L44.5227 12.5117L45.3567 11.6717L46.4847 11.3317L43.7527 9.01072Z" stroke="#FFFDFA" stroke-width="1.78"/>
</svg>
