<svg width="49" height="53" viewBox="0 0 49 53" fill="none" xmlns="http://www.w3.org/2000/svg">
<path d="M38.0649 27.2676H41.1849V25.0276H38.0649V27.2676Z" fill="white"/>
<path d="M40.0001 24.193C40.0001 24.293 39.9041 24.373 39.7871 24.373H18.5021C18.3841 24.373 18.2891 24.293 18.2891 24.193V1.64305C18.2891 1.54405 18.3841 1.46305 18.5021 1.46305H39.7871C39.9041 1.46305 40.0001 1.54405 40.0001 1.64305V24.193Z" stroke="#FFFDFA" stroke-width="1.78"/>
<path d="M22.7498 6.07422H35.9398V5.34424H22.7498V6.07422Z" fill="#FFFFFB"/>
<path d="M22.7498 7.30078H35.9398V6.5708H22.7498V7.30078Z" fill="#FFFFFB"/>
<path d="M22.7498 8.54492H35.9398V7.81592H22.7498V8.54492Z" fill="#FFFFFB"/>
<path d="M22.7498 9.79102H35.9398V9.06104H22.7498V9.79102Z" fill="#FFFFFB"/>
<path d="M22.7397 12.3535H35.9317V11.6235H22.7397V12.3535Z" fill="#FFFFFB"/>
<path d="M22.7397 13.5781H35.9317V12.8479H22.7397V13.5781Z" fill="#FFFFFB"/>
<path d="M22.7397 14.8242H35.9317V14.0952H22.7397V14.8242Z" fill="#FFFFFB"/>
<path d="M22.7397 16.0684H35.9317V15.3381H22.7397V16.0684Z" fill="#FFFFFB"/>
<path d="M22.7397 18.3535H35.9317V17.6235H22.7397V18.3535Z" fill="#FFFFFB"/>
<path d="M22.7397 19.5781H35.9317V18.8479H22.7397V19.5781Z" fill="#FFFFFB"/>
<path d="M22.7397 20.8242H35.9317V20.0952H22.7397V20.8242Z" fill="#FFFFFB"/>
<path d="M22.7397 22.0684H35.9317V21.3394H22.7397V22.0684Z" fill="#FFFFFB"/>
<path d="M38.5037 31.3446C37.6847 31.3746 37.0437 32.0786 37.0737 32.9136C37.1047 33.7496 37.7927 34.4026 38.6117 34.3716C39.4327 34.3416 40.0727 33.6386 40.0417 32.8016C40.0127 31.9666 39.3237 31.3136 38.5037 31.3446ZM38.3337 26.6726C34.9827 26.7976 32.3667 29.6676 32.4897 33.0856C32.6137 36.5036 35.4307 39.1696 38.7817 39.0436C42.1327 38.9186 44.7497 36.0476 44.6257 32.6306C44.5027 29.2126 41.6857 26.5436 38.3337 26.6726ZM38.6747 36.0326C36.9527 36.0966 35.5097 34.7286 35.4447 32.9756C35.3817 31.2216 36.7237 29.7476 38.4427 29.6826C40.1617 29.6186 41.6077 30.9886 41.6727 32.7406C41.7357 34.4936 40.3927 35.9666 38.6747 36.0326ZM48.9667 36.0276L48.4637 37.3536C48.4057 37.5526 48.1737 37.6686 47.9507 37.6126L46.0487 37.1306C45.3657 38.3726 44.3887 39.4316 43.2127 40.2076L43.8007 42.0556C43.8737 42.2796 43.7757 42.5246 43.5817 42.5956L42.3207 43.1986C42.1437 43.3016 41.8977 43.2226 41.7737 43.0226L40.7217 41.3246C40.1287 41.4806 39.5117 41.5776 38.8747 41.6016C38.1857 41.6266 37.5137 41.5686 36.8677 41.4356L35.9247 43.2436C35.8157 43.4516 35.5767 43.5486 35.3917 43.4586L34.0887 42.9526C33.8937 42.8946 33.7777 42.6586 33.8317 42.4296L34.3047 40.4566C33.1257 39.7686 32.1167 38.8036 31.3717 37.6416L29.3737 38.3096C29.1537 38.3846 28.9147 38.2846 28.8427 38.0906L28.2467 36.8066C28.1447 36.6266 28.2197 36.3736 28.4137 36.2486L30.2517 35.0546C30.0977 34.4526 30.0047 33.8266 29.9807 33.1806C29.9547 32.4226 30.0217 31.6866 30.1737 30.9776L28.2417 29.9196C28.0377 29.8076 27.9437 29.5626 28.0337 29.3746L28.5347 28.0496C28.5947 27.8506 28.8237 27.7326 29.0487 27.7896L31.2097 28.3376C31.8877 27.1966 32.8137 26.2236 33.9147 25.4996L33.1807 23.4026C33.1017 23.1806 33.1917 22.9366 33.3807 22.8556L34.6247 22.2136C34.7997 22.1056 35.0477 22.1776 35.1787 22.3726L36.4707 24.3256L36.4907 24.3656C37.0527 24.2226 37.6397 24.1366 38.2427 24.1136C38.8997 24.0876 39.5427 24.1436 40.1627 24.2616L40.1687 24.2456L41.3177 22.1996C41.4327 21.9976 41.6747 21.9066 41.8577 22.0036L43.1437 22.5496C43.3377 22.6136 43.4457 22.8526 43.3847 23.0796L42.7957 25.2496C43.8737 25.8746 44.8107 26.7346 45.5327 27.7586L47.5147 27.0946C47.7337 27.0226 47.9717 27.1206 48.0447 27.3156L48.6427 28.5986C48.7437 28.7806 48.6667 29.0316 48.4717 29.1586L46.7577 30.2716C46.9747 30.9906 47.1057 31.7486 47.1347 32.5346C47.1577 33.2116 47.1047 33.8726 46.9857 34.5106L48.7587 35.4836C48.9597 35.5956 49.0547 35.8406 48.9667 36.0276Z" fill="white"/>
<path d="M22.613 36.3775V38.6115C30.958 43.4275 35.184 40.9595 35.184 51.7695H18.266H18.153H1C1 40.6075 5.226 43.4275 13.571 38.6115V36.7295C12.158 35.6735 11.807 33.7935 11.22 31.7965C10.985 31.7965 10.867 31.4435 10.867 31.0925V30.8575C10.633 30.6225 10.633 30.3875 10.398 29.9185C10.281 29.3285 9.693 28.0365 10.163 27.5665C10.633 27.2145 10.867 27.5665 10.867 27.5665C10.281 24.3965 9.459 20.1655 13.919 18.8725C13.919 16.1715 24.26 17.4655 25.551 21.8115C26.021 23.5725 25.317 27.5665 25.317 27.5665C25.434 27.2145 25.669 27.2145 25.903 27.3325C26.49 27.6845 25.903 29.3285 25.669 29.9185C25.551 30.3875 25.434 30.7405 25.317 30.9745V31.0925C25.317 31.4435 25.082 31.7965 24.847 31.7965C24.494 33.5595 24.026 35.4395 22.613 36.3775Z" stroke="white" stroke-width="2" stroke-miterlimit="10"/>
</svg>
