<svg width="73" height="28" viewBox="0 0 73 28" fill="none" xmlns="http://www.w3.org/2000/svg">
<path d="M11.275 17.677L2.387 9.93498L0 11.082L3.437 18.251L11.275 17.677Z" fill="#FFBC31"/>
<path d="M46.4507 13.5451C45.8777 14.8811 45.7817 15.0731 45.0177 15.5501C45.1137 14.7861 45.3047 14.1181 45.1137 13.4491C45.0177 13.0671 44.9227 12.6841 44.8267 12.3971C44.4457 11.5361 44.2537 11.5361 43.7767 12.3021C42.7227 13.7361 42.8217 15.8381 43.9677 17.3681C44.0627 17.4631 44.2537 17.6541 44.2537 18.0361C43.1047 17.9411 42.0547 17.6541 41.1947 16.7001C40.1447 15.4551 40.2397 13.9271 40.5267 12.3971C41.0037 12.5881 41.0037 12.9721 41.2907 13.2581C41.5767 13.6411 41.7677 13.6411 42.0547 13.1631C42.2457 12.5881 42.2457 12.1101 42.0547 11.6311C41.6727 10.7721 41.7677 10.0081 42.0547 9.24413C42.5317 7.99913 43.2037 7.04513 44.0627 6.18513C44.1587 6.08913 44.2537 5.89913 44.4457 5.89913C44.6357 5.99413 44.6357 6.18513 44.6357 6.37613C44.6357 7.04513 45.0177 7.52213 45.3997 8.09513C46.0687 9.24413 46.6417 10.2951 46.0687 11.6311C46.6417 11.2501 46.8327 10.9631 47.2177 9.72113C48.1727 10.8671 48.6507 12.0151 48.1727 13.5451C48.6507 13.2581 48.8417 12.7801 49.1277 12.3021C50.5607 14.6911 48.5547 17.8451 45.3047 18.0361C46.6417 16.7951 46.9317 15.3591 46.4507 13.5451Z" fill="#FFBC31"/>
<path d="M3.91796 20.1616C1.90896 20.2576 15.101 25.8986 18.447 26.1846C18.447 26.1846 44.732 24.8466 56.297 24.0806C59.356 23.9846 62.319 23.7946 65.379 23.6026C67.289 23.5076 71.88 21.5006 71.78 19.3976C71.78 17.4846 67.289 16.1476 65.283 16.2436L50.659 17.1026C50.561 17.2936 50.468 17.3896 50.369 17.5796C49.896 18.4416 49.128 19.2066 48.268 19.6846C47.6 20.1616 46.74 20.4486 45.878 20.5436C45.687 20.5436 45.591 20.6396 45.4 20.6396V20.5436H44.254C43.49 20.5436 42.723 20.4486 42.054 20.1616C41.291 19.8756 40.718 19.3976 40.049 18.7296C39.285 17.8686 38.995 16.8166 38.9 15.8616C38.804 15.2876 38.9 14.7136 38.9 14.2356L22.557 2.00057L19.402 3.91157L26.189 18.5386C19.115 19.1116 6.20996 20.0656 3.91796 20.1616Z" stroke="#1C80C6" stroke-width="2" stroke-miterlimit="10"/>
</svg>
