<svg width="75" height="49" viewBox="0 0 75 49" fill="none" xmlns="http://www.w3.org/2000/svg">
<path d="M62.7018 40.877C64.0738 40.877 65.1858 39.719 65.1858 38.291C65.1858 36.863 64.0738 35.706 62.7018 35.706C61.3298 35.706 60.2188 36.863 60.2188 38.291C60.2188 39.719 61.3298 40.877 62.7018 40.877Z" fill="#1C80C6"/>
<path d="M73.702 33.5895C70.643 26.2115 64.965 24.2485 61.953 23.7285C62.601 22.3135 62.927 21.3865 62.956 21.3015L63.07 20.9745L60.771 10.6495L61.723 9.81046V9.80545C62.628 9.78345 63.359 7.62045 63.359 4.95545C63.359 2.28945 62.628 0.127453 61.723 0.104454V0.00244904L51.725 3.05245V4.33345L47.561 5.60745L48.135 7.99745L51.725 8.47845V9.44445L55.544 11.3175V11.5755C49.783 12.5015 48.412 20.9975 47.656 25.6815C47.491 26.7085 47.348 27.5945 47.206 28.1175C46.956 29.0465 46.39 29.6185 45.478 29.8655C44.811 30.0475 44.209 29.9825 44.206 29.9825L44.129 29.9725H37.792L35.289 29.6635C33.743 28.5975 32.776 26.5195 32.408 23.4765L42.101 15.0315H41.735C41.758 14.8055 41.619 14.5245 41.298 14.2185L37.607 10.7125C36.831 9.97545 35.289 9.37245 34.182 9.37245H25.894C24.786 9.37245 23.88 10.2175 23.88 11.2515V13.6795C23.88 14.2155 24.125 14.6995 24.513 15.0424L24.417 15.0655C24.169 15.1255 18.284 16.5665 12.314 20.3055C4.258 25.3505 0 32.1665 0 40.0175V41.2385H5.32401C6.53401 45.1915 10.108 48.0645 14.32 48.0645C18.531 48.0645 22.105 45.1915 23.315 41.2385H40.937H41.516V41.1995C43.875 40.9905 46.16 40.3305 48.338 39.2435H53.313C53.776 44.1875 57.81 48.0645 62.702 48.0645C67.905 48.0645 72.137 43.6805 72.137 38.2915C72.137 37.2405 71.974 36.2285 71.676 35.2785H74.403L73.702 33.5895ZM70.526 32.8365H69.027H67.366H58.401L56.564 34.7835L54.662 36.8005H54.616H53.377H52.169C52.671 36.4065 53.164 35.9875 53.65 35.5435C55.116 34.2015 56.507 32.6335 57.809 30.8445C58.165 30.3565 58.5 29.8695 58.818 29.3885C59.595 28.2105 60.258 27.0705 60.809 26.0355C61.639 26.1265 63.043 26.3815 64.617 27.1025C67.173 28.2745 69.192 30.1985 70.638 32.8365H70.526ZM69.694 38.2915C69.694 42.3335 66.558 45.6225 62.702 45.6225C59.138 45.6225 56.19 42.8105 55.765 39.1925L59.455 35.2785H69.074C69.471 36.1985 69.694 37.2175 69.694 38.2915ZM40.903 38.7965H23.742H22.517H21.293H7.346H6.122H4.897H2.481C2.891 32.2825 6.612 26.7745 13.557 22.4085C18.717 19.1655 23.963 17.7085 24.856 17.4745H35.579L29.854 22.4615L29.911 23.0835C30.305 27.4145 31.756 30.3745 34.224 31.8835L34.449 32.0205L37.641 32.4155H43.987C44.088 32.4245 44.26 32.4365 44.483 32.4365C44.87 32.4365 45.468 32.3995 46.118 32.2235C47.864 31.7495 49.088 30.5165 49.565 28.7545C49.739 28.1095 49.884 27.2095 50.068 26.0705C50.8 21.5325 52.026 13.9365 56.601 13.9365C56.644 13.9365 56.687 13.9365 56.731 13.9385L57.987 13.9735V9.79445L54.167 7.92146V4.86045L59.28 3.30045V8.70745L58.073 9.77145L60.531 20.8145C60.352 21.2825 59.964 22.2425 59.363 23.4845C59.184 23.8525 58.987 24.2455 58.77 24.6585C58.573 25.0345 58.36 25.4255 58.131 25.8295C57.482 26.9745 56.706 28.2145 55.797 29.4575C53.796 32.1965 51.63 34.3425 49.316 35.8855C48.689 36.3035 48.051 36.6765 47.402 37.0065C46.831 37.2965 46.251 37.5505 45.663 37.7725C44.13 38.3485 42.543 38.6925 40.903 38.7965ZM14.32 45.6225C11.464 45.6225 9.00401 43.8175 7.92001 41.2385H20.72C19.635 43.8175 17.175 45.6225 14.32 45.6225Z" fill="#1C80C6"/>
<path d="M19.5919 30.1895H21.6249V27.7465H13.8789V28.5285V29.7515V30.1895H16.9509H19.5919Z" fill="#FFBC31"/>
<path d="M20.3342 32.473H18.5632H11.4912V34.916H20.5212H21.8652H23.1722H23.9852V32.473H21.8932H20.3342Z" fill="#FFBC31"/>
</svg>
