<svg width="78" height="42" viewBox="0 0 78 42" fill="none" xmlns="http://www.w3.org/2000/svg">
<path d="M68.5207 34.9121C68.5207 31.0991 65.4187 27.9961 61.6047 27.9961C57.7917 27.9961 54.6887 31.0991 54.6887 34.9121C54.6887 38.7251 57.7917 41.8281 61.6047 41.8281C65.4187 41.8281 68.5207 38.7251 68.5207 34.9121ZM56.9287 34.9121C56.9287 32.3341 59.0267 30.2361 61.6047 30.2361C64.1827 30.2361 66.2807 32.3341 66.2807 34.9121C66.2807 37.4901 64.1827 39.5881 61.6047 39.5881C59.0267 39.5881 56.9287 37.4901 56.9287 34.9121Z" fill="white"/>
<path d="M64.0758 34.9118C64.0758 33.5468 62.9698 32.4408 61.6048 32.4408C60.2398 32.4408 59.1338 33.5468 59.1338 34.9118C59.1338 36.2768 60.2398 37.3828 61.6048 37.3828C62.9698 37.3828 64.0758 36.2768 64.0758 34.9118Z" fill="white"/>
<path d="M22.2493 41.8281C26.0633 41.8281 29.1653 38.7251 29.1653 34.9121C29.1653 31.0991 26.0633 27.9961 22.2493 27.9961C18.4363 27.9961 15.3333 31.0991 15.3333 34.9121C15.3333 38.7251 18.4363 41.8281 22.2493 41.8281ZM22.2493 30.2361C24.8273 30.2361 26.9253 32.3341 26.9253 34.9121C26.9253 37.4901 24.8273 39.5881 22.2493 39.5881C19.6713 39.5881 17.5733 37.4901 17.5733 34.9121C17.5733 32.3341 19.6713 30.2361 22.2493 30.2361Z" fill="white"/>
<path d="M22.2491 37.3828C23.6141 37.3828 24.7201 36.2768 24.7201 34.9118C24.7201 33.5468 23.6141 32.4408 22.2491 32.4408C20.8841 32.4408 19.7781 33.5468 19.7781 34.9118C19.7781 36.2768 20.8841 37.3828 22.2491 37.3828Z" fill="white"/>
<path d="M61.0884 7.28919V18.4922H65.5334L63.4944 7.28919H61.0884Z" fill="white"/>
<path d="M47.9185 18.6367H60.2325V7.27368H47.9185V18.6367ZM55.1964 9.51367H57.9935V16.3967H55.1964V9.51367ZM50.1595 9.51367H52.9565V16.3967H50.1595V9.51367Z" fill="white"/>
<path d="M66.376 5.54191L66.397 3.02191C66.397 1.88791 65.507 0.964905 64.413 0.964905H6.029L0 34.0529L13.477 34.1359L13.656 33.2259C14.459 29.1279 18.072 26.1549 22.249 26.1549C26.445 26.1549 30.046 29.1279 30.844 33.2389L30.911 37.0039H52.663L52.997 33.3049C53.769 29.1589 57.381 26.1549 61.605 26.1549C65.845 26.1549 69.468 29.1829 70.221 33.3539L70.387 34.2759H77.862V22.8239L68.863 17.0039L66.376 5.54191ZM46.913 3.20491H64.155L64.145 4.41191H46.913V3.20491ZM44.672 34.7639H33.112L33.08 33.0119L33.064 32.9209C32.104 27.7019 27.556 23.9139 22.249 23.9139C17.319 23.9139 13.013 27.2149 11.676 31.8849L2.682 31.8289L4.406 22.3669H44.672V34.7639ZM44.672 20.1269H4.814L5.719 15.1619V15.2139H26.802V18.4689L36.904 12.6369L26.802 6.80391V10.0599H6.649L7.898 3.20491H44.672V20.1269ZM75.622 32.0349H72.219C70.935 27.2769 66.612 23.9139 61.605 23.9139C56.281 23.9139 51.73 27.7159 50.784 32.9539L50.616 34.7639H46.913V6.65191H64.325L66.87 18.3829L75.622 24.0419V32.0349Z" fill="white"/>
</svg>
