<svg width="74" height="38" viewBox="0 0 74 38" fill="none" xmlns="http://www.w3.org/2000/svg">
<path d="M40.416 16.9727H43.558V15.6196H40.416V16.9727Z" fill="#1C80C6" stroke="#1C80C6" stroke-width="0.654" stroke-miterlimit="10"/>
<path d="M24.625 16.8213H27.767V15.4697H24.625V16.8213Z" fill="#1C80C6" stroke="#1C80C6" stroke-width="0.654" stroke-miterlimit="10"/>
<path d="M17.9538 22.9029C14.1008 22.9029 10.9658 26.0379 10.9658 29.8909C10.9658 33.7439 14.1008 36.8789 17.9538 36.8789C21.8068 36.8789 24.9418 33.7439 24.9418 29.8909C24.9418 26.0379 21.8068 22.9029 17.9538 22.9029ZM17.9538 34.7749C15.2608 34.7749 13.0698 32.5839 13.0698 29.8909C13.0698 27.1979 15.2608 25.0069 17.9538 25.0069C20.6468 25.0069 22.8378 27.1979 22.8378 29.8909C22.8378 32.5839 20.6468 34.7749 17.9538 34.7749Z" fill="#1C80C6"/>
<path d="M17.9539 27.3599C16.5559 27.3599 15.4229 28.4929 15.4229 29.8909C15.4229 31.2889 16.5559 32.4219 17.9539 32.4219C19.3519 32.4219 20.4849 31.2889 20.4849 29.8909C20.4849 28.4929 19.3519 27.3599 17.9539 27.3599Z" fill="#FFBC31"/>
<path d="M1.422 25.8534C1.337 26.4204 1.721 26.9514 2.286 27.0474L8.853 28.1614C9.373 28.2494 9.877 27.9384 10.033 27.4364C11.117 23.9444 14.3 21.5984 17.954 21.5984C22.526 21.5984 26.245 25.3174 26.245 29.8904C26.245 30.4714 26.716 30.9414 27.297 30.9414H46.93C47.502 30.9414 47.968 30.4864 47.982 29.9154C48.034 27.7464 48.919 25.7124 50.476 24.1894C52.035 22.6644 54.092 21.8234 56.268 21.8234C59.679 21.8234 62.792 23.9694 64.014 27.1624C64.176 27.5864 64.592 27.8574 65.046 27.8364L68.118 27.6904C68.427 27.6754 68.713 27.5254 68.902 27.2804L72.884 22.0964C73.043 21.8894 73.119 21.6304 73.098 21.3704L72.458 13.5104C72.416 12.9934 72.004 12.5854 71.487 12.5464L52.662 11.1484L47.562 1.40941C47.381 1.06241 47.023 0.845407 46.632 0.845407L6.104 0.804407C5.584 0.804407 5.141 1.18541 5.063 1.69941L4.158 7.70741H0V21.3804H2.096L1.422 25.8534ZM7.008 2.90941L45.994 2.94841L51.07 12.6424C51.238 12.9644 51.561 13.1764 51.924 13.2034L70.434 14.5774L70.968 21.1364L67.53 25.6124L65.676 25.7004C63.975 22.0944 60.287 19.7204 56.268 19.7204C53.539 19.7204 50.96 20.7734 49.005 22.6864C47.302 24.3534 46.239 26.5074 45.954 28.8384H28.296C27.768 23.5984 23.331 19.4944 17.954 19.4944C13.685 19.4944 9.928 22.0494 8.337 25.9394L3.656 25.1454L7.008 2.90941Z" fill="#1C80C6"/>
<path d="M56.2673 23.1266C52.4143 23.1266 49.2793 26.2616 49.2793 30.1136C49.2793 33.9676 52.4143 37.1016 56.2673 37.1016C60.1203 37.1016 63.2553 33.9676 63.2553 30.1136C63.2553 26.2616 60.1203 23.1266 56.2673 23.1266ZM56.2673 34.9986C53.5743 34.9986 51.3833 32.8076 51.3833 30.1136C51.3833 27.4206 53.5743 25.2306 56.2673 25.2306C58.9603 25.2306 61.1513 27.4206 61.1513 30.1136C61.1513 32.8076 58.9603 34.9986 56.2673 34.9986Z" fill="#1C80C6"/>
<path d="M56.2673 27.5864C54.8693 27.5864 53.7363 28.7194 53.7363 30.1164C53.7363 31.5144 54.8693 32.6484 56.2673 32.6484C57.6653 32.6484 58.7983 31.5144 58.7983 30.1164C58.7983 28.7194 57.6653 27.5864 56.2673 27.5864Z" fill="#FFBC31"/>
<path d="M18.1812 5.27741L9.03423 5.26741L8.03223 12.8164H18.1812V5.27741Z" fill="#FFBC31"/>
<path d="M31.5545 5.29341L20.4355 5.28041V12.8164H31.5545V5.29341Z" fill="#FFBC31"/>
<path d="M44.5676 5.30741L33.8086 5.29541V12.8164H48.0296L44.5676 5.30741Z" fill="#FFBC31"/>
</svg>
